<!-- Generated by IcoMoon.io -->
<svg version="1.1" xmlns="http://www.w3.org/2000/svg" width="32" height="32" viewBox="0 0 32 32">
<title>discord</title>
<path d="M8.959 25.605c-1.845-0.175-3.398-0.749-4.745-1.754-0.407-0.304-1.128-1.020-1.401-1.391l-0.212-0.288 0-0.367c0.001-0.911 0.123-2.358 0.3-3.582 0.432-2.973 1.514-6.477 2.784-9.013l0.219-0.438 0.335-0.238c1.010-0.717 2.329-1.368 3.476-1.715 0.739-0.223 1.717-0.41 2.337-0.446l0.298-0.017 0.087 0.113c0.048 0.062 0.088 0.124 0.089 0.137s-0.313 0.129-0.698 0.257c-1.572 0.522-2.903 1.133-4.021 1.847-0.586 0.374-1.24 0.854-1.207 0.886 0.006 0.006 0.161-0.063 0.344-0.155 1.96-0.983 3.966-1.628 5.788-1.861 1.227-0.157 1.774-0.207 2.61-0.237 3.166-0.114 6.251 0.56 9.079 1.984 0.302 0.152 0.554 0.271 0.561 0.264 0.023-0.023-0.543-0.444-1.005-0.748-1.175-0.774-2.606-1.451-4.131-1.954-0.266-0.088-0.48-0.171-0.475-0.186s0.068-0.099 0.141-0.187l0.133-0.16 0.283 0.017c0.779 0.046 1.73 0.24 2.635 0.536 1.049 0.343 2.447 1.065 3.329 1.719 0.198 0.146 0.209 0.162 0.42 0.585 1.167 2.334 2.173 5.461 2.665 8.282 0.241 1.383 0.418 3.206 0.419 4.304l0 0.36-0.123 0.176c-0.189 0.271-0.501 0.629-0.791 0.907-1.295 1.243-2.969 2.024-4.937 2.302-0.465 0.066-1.15 0.117-1.176 0.088-0.037-0.042-0.609-0.734-0.686-0.831-0.040-0.051-0.239-0.296-0.44-0.546s-0.363-0.457-0.357-0.461c0.005-0.005 0.13-0.044 0.278-0.090 0.992-0.304 2.013-0.851 2.784-1.492 0.403-0.335 1.119-1.115 1.024-1.115-0.011 0-0.136 0.072-0.277 0.16-0.884 0.552-1.978 1.059-3.261 1.512-1.169 0.413-2.458 0.691-3.873 0.835-0.585 0.060-2.31 0.050-2.933-0.016-1.637-0.174-3.25-0.567-4.823-1.175-0.625-0.241-1.667-0.74-2.001-0.957-0.248-0.162-0.679-0.416-0.679-0.401 0 0.101 0.79 0.933 1.193 1.256 0.621 0.498 1.54 1.001 2.357 1.29 0.299 0.106 0.431 0.166 0.413 0.188-0.086 0.11-0.961 1.196-1.207 1.5-0.34 0.419-0.235 0.383-0.925 0.317zM12.149 19.978c0.57-0.118 1.080-0.464 1.431-0.972 0.904-1.308 0.462-3.195-0.9-3.849-0.353-0.17-0.587-0.223-0.972-0.223-0.676 0-1.285 0.286-1.721 0.807-0.855 1.023-0.825 2.57 0.068 3.528 0.379 0.407 0.763 0.622 1.316 0.737 0.146 0.030 0.573 0.015 0.779-0.027zM20.719 19.936c0.641-0.201 1.147-0.657 1.46-1.318 0.376-0.794 0.317-1.822-0.147-2.564-0.451-0.721-1.142-1.121-1.935-1.12-0.646 0.002-1.138 0.207-1.606 0.673-0.642 0.639-0.901 1.659-0.656 2.587 0.068 0.258 0.316 0.744 0.489 0.96 0.307 0.383 0.77 0.684 1.249 0.812 0.301 0.080 0.839 0.066 1.146-0.030z"></path>
</svg>
