<!-- Generated by IcoMoon.io -->
<svg version="1.1" xmlns="http://www.w3.org/2000/svg" width="32" height="32" viewBox="0 0 32 32">
<title>globe</title>
<path d="M14.555 31.802c-2.455-0.254-4.781-1.031-6.808-2.273-2.041-1.251-4.007-3.217-5.258-5.258-2.613-4.262-3.047-9.532-1.169-14.197 0.984-2.444 2.747-4.81 4.809-6.455 1.242-0.991 3.027-1.99 4.522-2.531 2.335-0.845 5.043-1.128 7.527-0.785 3.238 0.446 6.407 1.981 8.759 4.241 2.634 2.531 4.257 5.713 4.788 9.388 0.143 0.989 0.142 3.179-0.002 4.151-0.432 2.922-1.425 5.293-3.19 7.62-0.561 0.739-2 2.194-2.735 2.764-2.304 1.788-4.991 2.907-7.868 3.276-0.731 0.094-2.705 0.127-3.376 0.059zM17.312 30.503c2.969-0.308 5.585-1.373 7.837-3.191 0.526-0.425 1.62-1.491 1.983-1.934l0.165-0.202h-0.507v-0.505c0-0.494-0.006-0.513-0.248-0.834l-0.248-0.328v-1.158l-0.215-0.208c-0.153-0.149-0.226-0.284-0.254-0.471-0.035-0.233-0.008-0.322 0.241-0.78l0.281-0.517-1.032-1.813 0.053-0.456c0.096-0.831 0.123-0.774-0.385-0.816-0.384-0.031-0.469-0.063-0.638-0.225-0.261-0.253-0.68-0.269-0.901-0.033-0.135 0.144-0.187 0.156-0.723 0.156-0.344 0-0.578 0.025-0.578 0.063 0 0.033-0.137 0.063-0.305 0.063h-0.305l-1.372-1.567v-0.637c0-0.583 0.011-0.641 0.124-0.677 0.078-0.025 0.124-0.094 0.124-0.185 0-0.079 0.017-0.19 0.038-0.244 0.029-0.075-0.004-0.098-0.148-0.098-0.163 0-0.191-0.026-0.226-0.217-0.022-0.12-0.024-0.244-0.004-0.277s0.37-0.299 0.777-0.591l0.741-0.533v-0.831l0.386-0.212c0.358-0.197 0.422-0.211 0.861-0.196 0.401 0.014 0.522-0.007 0.775-0.135 0.239-0.12 0.44-0.16 0.982-0.194 0.375-0.024 0.73-0.057 0.79-0.073 0.096-0.027 0.108 0.019 0.108 0.4v0.431l0.679 0.168c0.374 0.093 0.712 0.208 0.751 0.255s0.138 0.086 0.219 0.086c0.126 0 0.147-0.029 0.147-0.21 0-0.245 0.070-0.285 0.489-0.285 0.246 0 0.348 0.040 0.626 0.248l0.332 0.248h0.608c0.49 0 0.608-0.019 0.608-0.089 0-0.049-0.086-0.328-0.192-0.62l-0.192-0.53h-0.385c-0.347 0-0.403-0.019-0.562-0.184-0.139-0.145-0.183-0.258-0.205-0.527-0.016-0.188-0.040-0.342-0.055-0.342s-0.105 0.040-0.202 0.090c-0.141 0.072-0.197 0.169-0.286 0.499l-0.11 0.408-0.261-0.256c-0.219-0.215-0.267-0.306-0.298-0.574-0.034-0.289-0.070-0.347-0.395-0.643-0.333-0.303-0.38-0.325-0.679-0.328l-0.322-0.002 0.094 0.276c0.082 0.241 0.145 0.304 0.489 0.497 0.411 0.229 0.536 0.348 0.411 0.39-0.040 0.014-0.073 0.131-0.073 0.262 0 0.216-0.020 0.244-0.215 0.309-0.168 0.056-0.252 0.053-0.383-0.012-0.27-0.131-0.255-0.237 0.035-0.237 0.139 0 0.253-0.012 0.253-0.025 0-0.014 0.016-0.067 0.034-0.115 0.024-0.060-0.146-0.207-0.523-0.454-0.353-0.232-0.57-0.417-0.593-0.505-0.046-0.183-0.099-0.175-0.309 0.044-0.155 0.163-0.206 0.179-0.433 0.148l-0.258-0.035-0.349 0.456c-0.192 0.251-0.376 0.529-0.41 0.618-0.042 0.113-0.122 0.173-0.259 0.202-0.364 0.072-0.917 0.042-1.137-0.063-0.199-0.095-0.219-0.13-0.268-0.48-0.054-0.381 0-0.706 0.132-0.793 0.135-0.089 0.734-0.124 1.047-0.063 0.177 0.035 0.329 0.058 0.337 0.050s0.032-0.102 0.054-0.209c0.034-0.171 0.020-0.199-0.125-0.235-0.112-0.027-0.155-0.073-0.136-0.142 0.015-0.056 0.044-0.203 0.065-0.326 0.037-0.222 0.041-0.224 0.406-0.266s0.371-0.045 0.626-0.409c0.142-0.202 0.317-0.386 0.389-0.41s0.35-0.038 0.617-0.033l0.486 0.010-0.044-0.324c-0.024-0.178-0.050-0.332-0.059-0.341s-0.144 0.038-0.301 0.106l-0.286 0.122-0.122-0.276c-0.097-0.219-0.153-0.276-0.275-0.276s-0.162-0.040-0.195-0.191c-0.054-0.245 0.124-0.447 0.522-0.59 0.276-0.1 0.588-0.359 0.551-0.458-0.011-0.026-0.241-0.227-0.514-0.447-2.056-1.651-4.536-2.71-7.248-3.095-0.708-0.101-2.863-0.101-3.593 0-2.226 0.306-4.317 1.068-6.102 2.223l-0.651 0.421 0.409 0.030c0.225 0.017 0.448 0.063 0.496 0.101s0.23 0.103 0.406 0.144c0.218 0.051 0.329 0.112 0.349 0.189 0.025 0.096 0.106 0.118 0.502 0.134 0.485 0.022 0.517 0.005 0.408-0.201-0.053-0.1-0.132-0.119-0.474-0.119-0.384 0-0.404-0.007-0.319-0.109 0.179-0.212 0.076-0.318-0.33-0.338l-0.373-0.019 0.401-0.294c0.383-0.281 0.42-0.294 0.812-0.294h0.411l0.197 0.279c0.188 0.267 0.209 0.279 0.507 0.279 0.263 0 0.341-0.028 0.508-0.192 0.173-0.168 0.215-0.182 0.335-0.118 0.136 0.072 0.135 0.076-0.13 0.346-0.25 0.255-0.289 0.273-0.599 0.273h-0.331l0.039 0.464 0.454 0.019c0.405 0.017 0.458 0.005 0.485-0.101 0.024-0.092 0.102-0.125 0.337-0.149 0.352-0.033 0.346-0.029 0.374-0.23 0.017-0.118-0.012-0.161-0.133-0.19-0.109-0.027-0.149-0.073-0.135-0.159 0.034-0.207 0.199-0.275 0.658-0.274 0.596 0.001 0.663 0.057 0.359 0.297-0.208 0.165-0.238 0.218-0.214 0.386 0.030 0.207 0.043 0.215 0.401 0.275l0.233 0.038-0.080-0.677 0.302-0.153c0.189-0.095 0.472-0.169 0.755-0.198 0.447-0.044 0.462-0.041 1.131 0.251l0.678 0.296v0.263c0 0.242 0.015 0.266 0.186 0.304 0.206 0.045 0.218 0.077 0.114 0.307-0.064 0.139-0.109 0.158-0.393 0.158-0.319 0-0.321 0.001-0.402 0.247-0.067 0.205-0.104 0.241-0.211 0.214-0.071-0.019-0.381-0.096-0.687-0.172l-0.557-0.14 0.279-0.162c0.153-0.089 0.383-0.211 0.511-0.271s0.232-0.129 0.232-0.155c0-0.024-0.087-0.118-0.194-0.209-0.138-0.116-0.241-0.155-0.356-0.132-0.089 0.017-0.305 0.048-0.48 0.070-0.241 0.029-0.361 0.083-0.493 0.221-0.108 0.113-0.265 0.197-0.41 0.219-0.24 0.038-0.32 0.178-0.142 0.247 0.148 0.057 0.108 0.127-0.093 0.168-0.109 0.022-0.186 0.075-0.186 0.131 0 0.064-0.060 0.095-0.181 0.095-0.151 0-0.188-0.030-0.222-0.186-0.047-0.214-0.031-0.209-0.365-0.113-0.254 0.073-1.497 0.76-1.56 0.862-0.018 0.029-0.003 0.164 0.033 0.298 0.083 0.308 0.336 0.471 0.822 0.53l0.356 0.042v0.398c0 0.386 0.005 0.398 0.158 0.398 0.132 0 0.185-0.058 0.314-0.34 0.151-0.329 0.167-0.343 0.539-0.452l0.383-0.113 0.018-0.507c0.017-0.49 0.025-0.512 0.218-0.659 0.213-0.164 0.261-0.162 0.995 0.033l0.24 0.064-0.041 0.306c-0.054 0.405 0.031 0.433 0.558 0.186 0.226-0.106 0.421-0.192 0.435-0.192s0.024 0.182 0.024 0.404v0.404l0.279 0.168c0.26 0.158 0.279 0.186 0.279 0.43 0 0.251-0.010 0.264-0.248 0.336-0.345 0.104-0.324 0.246 0.062 0.426 0.265 0.123 0.31 0.17 0.31 0.32 0 0.216-0.084 0.222-0.607 0.045-0.322-0.109-0.384-0.153-0.384-0.272 0-0.078 0.042-0.159 0.093-0.178 0.137-0.053 0.118-0.328-0.026-0.366-0.078-0.022-0.128 0.007-0.147 0.075-0.039 0.151-0.726 0.274-0.726 0.13 0-0.115-0.198-0.252-0.364-0.252-0.206 0-0.318 0.102-0.318 0.29 0 0.118 0.042 0.149 0.251 0.181l0.251 0.040-0.134 0.143c-0.125 0.133-0.144 0.136-0.28 0.047-0.14-0.091-0.16-0.083-0.488 0.197-0.188 0.161-0.342 0.327-0.342 0.369s-0.174 0.168-0.387 0.281c-0.511 0.27-1.409 1.134-1.41 1.357-0.001 0.216-0.033 0.254-0.495 0.56-0.221 0.147-0.507 0.367-0.635 0.488-0.227 0.216-0.232 0.231-0.232 0.673 0 0.249-0.015 0.452-0.033 0.452s-0.142-0.056-0.275-0.123c-0.217-0.111-0.244-0.151-0.261-0.387l-0.019-0.264-1.637-0.034-0.497 0.25c-0.464 0.233-0.509 0.274-0.678 0.607-0.296 0.586-0.347 0.856-0.216 1.145 0.122 0.27 0.278 0.356 0.65 0.356 0.193 0 0.345-0.068 0.703-0.308 0.251-0.168 0.491-0.316 0.534-0.325 0.174-0.039 0.166 0.287-0.015 0.612l-0.178 0.319 0.855 0.144 0.107 1.323 0.581 0.089c0.572 0.088 0.583 0.087 0.688-0.042 0.059-0.072 0.221-0.262 0.361-0.421l0.254-0.289 0.44 0.078c0.404 0.072 0.453 0.098 0.606 0.318 0.143 0.206 0.192 0.235 0.345 0.207 0.098-0.019 0.284-0.032 0.414-0.032 0.18 0 0.245-0.028 0.274-0.121 0.037-0.117 0.046-0.118 0.258-0.017 0.149 0.070 0.308 0.241 0.491 0.524l0.271 0.419h0.912l0.16 0.294c0.092 0.169 0.178 0.453 0.202 0.67l0.042 0.376 0.535 0.198c0.467 0.172 0.612 0.198 1.14 0.198l0.605-0.001 0.188 0.306c0.147 0.239 0.245 0.325 0.449 0.394 0.251 0.085 0.26 0.097 0.241 0.325-0.014 0.173-0.107 0.349-0.348 0.659l-0.328 0.422-0.163 1.732-0.252 0.204c-0.222 0.178-0.309 0.207-0.714 0.234-0.447 0.029-0.466 0.037-0.585 0.242-0.118 0.203-0.119 0.231-0.028 0.678l0.095 0.467-0.46 0.589c-0.253 0.324-0.514 0.695-0.58 0.824-0.095 0.185-0.214 0.282-0.565 0.459-0.245 0.123-0.572 0.242-0.727 0.264-0.226 0.031-0.286 0.067-0.301 0.173s0.022 0.142 0.17 0.174c0.25 0.055 0.253 0.258 0.007 0.493-0.172 0.165-0.177 0.182-0.086 0.321 0.071 0.109 0.153 0.147 0.313 0.147 0.215 0 0.216 0.001 0.179 0.232-0.122 0.762-0.134 0.705 0.203 0.967 0.257 0.201 0.299 0.26 0.258 0.372-0.042 0.115-0.105 0.135-0.455 0.151l-0.406 0.019-0.464-0.405c-0.371-0.323-0.528-0.519-0.785-0.978l-0.321-0.574 0.084-1.15-0.504-0.667 0.091-0.516c0.117-0.664 0.118-0.651-0.064-0.697l-0.155-0.038v-2.522l-0.449-0.308c-0.247-0.169-0.533-0.329-0.634-0.353-0.209-0.051-0.277-0.129-0.278-0.325-0.001-0.075-0.245-0.441-0.561-0.836-0.545-0.682-0.559-0.708-0.519-0.949 0.023-0.136 0.059-0.443 0.080-0.681l0.039-0.433 0.722-0.496-0.043-0.434c-0.024-0.239-0.075-0.455-0.113-0.48s-0.213-0.046-0.388-0.046c-0.588-0.001-0.668-0.040-1.12-0.562l-0.421-0.486-0.496-0.118c-0.478-0.113-0.496-0.123-0.496-0.296 0-0.159-0.027-0.182-0.232-0.216-0.172-0.027-0.232-0.017-0.232 0.045 0 0.112-0.063 0.108-0.715-0.049l-0.56-0.134-0.262-0.395c-0.259-0.39-0.261-0.396-0.162-0.587l0.1-0.194-0.404-0.596c-0.316-0.464-0.413-0.662-0.445-0.904-0.063-0.477-0.086-0.527-0.251-0.527-0.116 0-0.15 0.031-0.147 0.139 0.011 0.412 0.12 0.75 0.362 1.121 0.185 0.284 0.257 0.455 0.243 0.578-0.011 0.096-0.041 0.167-0.066 0.16-0.026-0.010-0.127-0.017-0.226-0.017-0.159 0-0.213-0.057-0.465-0.486-0.284-0.485-0.285-0.487-0.285-1.074v-0.588l-0.619-0.29-0.002-0.408c-0.002-0.494-0.030-0.455-0.359 0.498-0.579 1.679-0.78 2.908-0.78 4.763 0 1.477 0.087 2.232 0.401 3.495 0.266 1.067 0.561 1.862 1.081 2.917 1.442 2.922 3.69 5.177 6.609 6.627 2.366 1.175 5.235 1.716 7.733 1.456zM13.719 9.206c0-0.167 0.127-0.273 0.228-0.189 0.144 0.119 0.1 0.301-0.073 0.301-0.108 0-0.155-0.033-0.155-0.112zM14.351 9.181c-0.141-0.141-0.082-0.235 0.144-0.235 0.137 0 0.232-0.034 0.254-0.093 0.040-0.104 0.394-0.13 0.394-0.029 0 0.034-0.070 0.090-0.155 0.122s-0.155 0.099-0.155 0.147c0 0.159-0.349 0.222-0.483 0.089zM22.916 7.794c0.045-0.24 0.118-0.332 0.266-0.334 0.043-0 0.077-0.064 0.075-0.14-0.001-0.098-0.085-0.19-0.279-0.307-0.281-0.17-0.327-0.274-0.214-0.484 0.060-0.112 0.463-0.237 0.534-0.166 0.018 0.019 0.059 0.149 0.091 0.289 0.076 0.338 0.33 0.731 0.555 0.859 0.22 0.124 0.221 0.138 0.034 0.314-0.117 0.111-0.248 0.147-0.628 0.175l-0.48 0.036zM21.915 7.727c-0.023-0.060 0.028-0.222 0.121-0.386 0.18-0.317 0.45-0.44 0.708-0.322 0.254 0.116 0.186 0.333-0.182 0.587-0.351 0.242-0.584 0.286-0.647 0.121zM29.162 9.781c-0.092-0.187-0.189-0.341-0.216-0.341s-0.049 0.154-0.049 0.341v0.341h0.432zM11.004 9.834c0.142-0.128 0.152-0.393 0.014-0.393-0.054 0-0.187 0.049-0.294 0.109s-0.199 0.109-0.203 0.109c-0.004 0-0.027 0.063-0.051 0.139-0.039 0.127-0.023 0.139 0.189 0.139 0.129 0 0.282-0.045 0.345-0.103zM10.145 9.286l0.29-0.403h-0.236c-0.177 0-0.277 0.043-0.398 0.17-0.202 0.213-0.284 0.502-0.164 0.579 0.157 0.1 0.216 0.060 0.508-0.346zM11.922 9.482c0-0.115-0.050-0.161-0.239-0.216-0.312-0.093-0.318-0.092-0.318 0.047 0 0.246 0.069 0.315 0.316 0.315 0.212 0 0.241-0.019 0.241-0.145zM11.103 9.22c0.076-0.053 0.138-0.151 0.138-0.216 0-0.099-0.044-0.12-0.248-0.12-0.242 0-0.248 0.005-0.248 0.216 0 0.246 0.121 0.287 0.358 0.12zM3.521 8.769c0.123-0.148 0.224-0.328 0.224-0.4 0-0.17-0.063-0.099-0.314 0.359-0.228 0.417-0.224 0.419 0.090 0.040zM11.791 9.013c0.069-0.043 0.060-0.068-0.043-0.123-0.135-0.072-0.239 0-0.167 0.117 0.047 0.075 0.097 0.076 0.21 0.005zM10.807 8.604c0-0.085-0.028-0.156-0.062-0.156s-0.062-0.042-0.062-0.093c0-0.215-0.925-0.045-1.014 0.186-0.054 0.141 0.162 0.209 0.688 0.213 0.439 0.005 0.449 0 0.449-0.151zM11.241 8.67c0-0.007-0.056-0.065-0.124-0.126-0.121-0.11-0.124-0.109-0.124 0.046 0 0.127 0.024 0.153 0.124 0.126 0.068-0.019 0.124-0.038 0.124-0.046zM9.393 7.714c0.023-0.022 0.060-0.141 0.083-0.266 0.040-0.216 0.032-0.229-0.135-0.25-0.157-0.022-0.517 0.097-0.517 0.167 0 0.014 0.047 0.124 0.104 0.245 0.089 0.187 0.126 0.213 0.263 0.179 0.088-0.022 0.178-0.055 0.201-0.075zM27.158 7.093c0.070-0.099 0.128-0.204 0.128-0.232s-0.152-0.219-0.338-0.424l-0.338-0.372-0.003 0.322c-0.003 0.321-0.004 0.322-0.313 0.496-0.293 0.165-0.363 0.255-0.269 0.349 0.024 0.024 0.258 0.041 0.522 0.041 0.46 0 0.487-0.007 0.609-0.179zM8.329 5.817c0-0.178-0.097-0.195-0.53-0.085-0.431 0.109-0.361 0.24 0.127 0.24 0.388 0 0.403-0.005 0.403-0.156zM8.243 5.182c0.045-0.060 0.083-0.158 0.084-0.216 0.002-0.118-0.199-0.14-0.633-0.069-0.206 0.033-0.232 0.059-0.232 0.216 0 0.174 0.006 0.177 0.349 0.177 0.26 0 0.37-0.027 0.432-0.109z"></path>
</svg>
