<!-- Generated by IcoMoon.io -->
<svg version="1.1" xmlns="http://www.w3.org/2000/svg" width="32" height="32" viewBox="0 0 32 32">
<title>soccer-field</title>
<path d="M0.047 16v-9.979h31.906v19.958h-31.906zM30.609 21.263v-4.211l0.273-0.005v-2.062l-0.273-0.005v-8.448h-29.218v8.449l-0.123 0c-0.068 0-0.131 0.002-0.14 0.005-0.013 0.005-0.016 0.224-0.013 1.034l0.003 1.024 0.273 0.005v8.421h29.218zM1.457 25.3c0-0.058 0.004-0.107 0.009-0.107s0.034 0.005 0.064 0.012c0.060 0.015 0.109 0.087 0.127 0.148l0.011 0.019h-0.211zM1.724 25.385c0-0.005-0.016-0.051-0.036-0.088-0.039-0.071-0.123-0.139-0.189-0.151l-0.040-0.005v-3.509h4.577v-3.587l0.065-0.050c0.1-0.076 0.373-0.364 0.458-0.484 0.226-0.318 0.378-0.676 0.452-1.069 0.039-0.209 0.042-0.642 0.005-0.851-0.066-0.371-0.213-0.74-0.412-1.031-0.134-0.197-0.348-0.43-0.498-0.545l-0.069-0.053v-3.56h-4.577v-3.534l0.058-0.007c0.077-0.010 0.16-0.103 0.191-0.19l0.024-0.067h14.244v6.839h-0.072c-0.11 0-0.371 0.017-0.513 0.073-0.484 0.122-0.881 0.353-1.231 0.714-0.21 0.218-0.339 0.4-0.464 0.655-0.385 0.788-0.341 1.728 0.115 2.464 0.359 0.579 0.927 0.996 1.574 1.156 0.149 0.017 0.409 0.074 0.519 0.074h0.072v6.839h-7.125c-6.549 0-7.125-0.002-7.125-0.010zM16.027 21.987v-3.419h0.073c0.111 0 0.371-0.017 0.52-0.074 0.652-0.164 1.214-0.577 1.573-1.156 0.443-0.715 0.497-1.632 0.143-2.409-0.192-0.422-0.54-0.822-0.945-1.087-0.224-0.147-0.502-0.267-0.778-0.337-0.142-0.017-0.403-0.073-0.513-0.073h-0.073v-6.839h14.244l0.024 0.067c0.031 0.086 0.113 0.169 0.191 0.19l0.058 0.007v3.534h-4.577v3.56l-0.069 0.053c-0.15 0.114-0.364 0.348-0.498 0.545-0.199 0.291-0.347 0.661-0.412 1.031-0.035 0.199-0.035 0.63-0 0.825 0.074 0.417 0.239 0.803 0.482 1.126 0.105 0.141 0.325 0.371 0.432 0.452l0.066 0.050v3.587h4.577v3.509l-0.041 0.005c-0.067 0.007-0.151 0.080-0.189 0.151-0.020 0.017-0.036 0.076-0.036 0.088 0 0.010-0.576 0.010-7.125 0.010h-7.125v-3.419zM30.342 25.368c0.023-0.080 0.086-0.142 0.17-0.167 0.030-0.005 0.030-0.002 0.030 0.098v0.107h-0.211zM1.458 20.065v-1.497h0.757c0.493 0 0.759-0.002 0.762-0.007 0.002-0.002 0.003-1.157 0.001-2.555l-0.003-2.541h-1.517v-2.994h4.51v11.096h-4.51zM4.528 16.051c0.009-0.005 0.016-0.015 0.016-0.051 0-0.010-0.007-0.019-0.016-0.050-0.009-0.005-0.032-0.007-0.051-0.007s-0.042 0.002-0.051 0.007c-0.009 0.005-0.016 0.014-0.016 0.050 0 0.010 0.007 0.019 0.016 0.051 0.009 0.005 0.032 0.007 0.051 0.007s0.042-0.002 0.051-0.007zM26.032 16.034v-5.548h4.51v2.994h-1.517l-0.003 2.541c-0.002 1.398-0.001 2.547 0.001 2.555 0.003 0.005 0.269 0.007 0.762 0.007h0.757v2.994h-4.511v-5.548zM27.573 16.051c0.008-0.005 0.016-0.015 0.016-0.051 0-0.022-0.022-0.066-0.067-0.066s-0.067 0.010-0.067 0.066c0 0.022 0.023 0.066 0.067 0.066 0.019 0 0.042-0.002 0.051-0.007zM1.458 16.034v-2.503h1.464v5.003h-1.464zM15.777 18.52c-0.578-0.050-1.142-0.313-1.549-0.726-0.222-0.225-0.349-0.401-0.477-0.663-0.422-0.86-0.325-1.866 0.254-2.634 0.094-0.124 0.311-0.346 0.44-0.451 0.098-0.079 0.297-0.203 0.437-0.274 0.296-0.149 0.655-0.242 0.979-0.255l0.106-0.002 0.003 1.219c0.003 1.072 0.001 1.221-0.017 1.236-0.011 0.005-0.020 0.017-0.020 0.053 0 0.010 0.009 0.022 0.020 0.053 0.018 0.007 0.020 0.164 0.017 1.236-0.003 1.208-0.004 1.219-0.030 1.221-0.015 0.001-0.088-0.002-0.163-0.005zM16.035 18.523c-0.005-0.002-0.008-0.554-0.008-1.222 0-1.063 0.003-1.216 0.020-1.23 0.025-0.010 0.026-0.068 0-0.1-0.017-0.010-0.020-0.193-0.020-1.239-0-0.667 0.004-1.216 0.010-1.22 0.016-0.005 0.304 0.007 0.422 0.019 0.707 0.134 1.305 0.546 1.687 1.164 0.378 0.611 0.466 1.398 0.235 2.096-0.21 0.636-0.663 1.155-1.273 1.462-0.142 0.070-0.373 0.153-0.543 0.192-0.168 0.019-0.513 0.077-0.531 0.059zM29.079 16.029v-2.502h1.464v5.003h-1.464zM6.034 16.022c0-1.451 0.004-1.956 0.015-1.956 0.031 0 0.368 0.356 0.46 0.486 0.243 0.345 0.39 0.706 0.45 1.109 0.028 0.185 0.028 0.536-0 0.72-0.087 0.573-0.345 1.068-0.765 1.467-0.075 0.071-0.142 0.13-0.149 0.13s-0.012-0.803-0.012-1.956zM25.805 17.848c-0.516-0.489-0.785-1.116-0.786-1.826-0-0.544 0.151-1.016 0.471-1.47 0.091-0.129 0.429-0.486 0.46-0.486 0.011 0 0.015 0.504 0.015 1.956 0 1.153-0.005 1.956-0.012 1.956s-0.074-0.058-0.149-0.13zM1.178 16.031v-0.971h0.213v1.943h-0.213zM30.609 16.031v-0.971h0.213v1.943h-0.213zM1.458 6.717v-0.107h0.107c0.105 0 0.107 0.001 0.098 0.014-0.017 0.055-0.060 0.116-0.103 0.141-0.023 0.007-0.056 0.014-0.073 0.017-0.029 0.005-0.030 0.002-0.030-0.099zM30.465 6.793c-0.056-0.014-0.11-0.093-0.128-0.155-0.008-0.014-0.007-0.014 0.099-0.014h0.107v0.107c0 0.059-0.005 0.106-0.009 0.106-0.006 0-0.036-0.007-0.068-0.014z"></path>
</svg>
