<!-- Generated by IcoMoon.io -->
<svg version="1.1" xmlns="http://www.w3.org/2000/svg" width="32" height="32" viewBox="0 0 32 32">
<title>soccer-ball</title>
<path d="M14.193 31.714c-2.524-0.315-5.068-1.26-7.004-2.603-0.356-0.247-0.712-0.446-0.789-0.441-0.078 0.010-0.142-0.025-0.142-0.063 0-0.040-0.576-0.647-1.28-1.351-0.79-0.79-1.479-1.566-1.802-2.027-1.499-2.147-2.413-4.424-2.787-6.944-0.167-1.125-0.17-3.263-0.006-4.454 0.862-6.266 5.526-11.494 11.668-13.077 3.026-0.78 6.464-0.613 9.328 0.455 2.338 0.871 4.253 2.137 6.014 3.975 4.552 4.752 5.642 11.895 2.718 17.813-2.181 4.414-6.126 7.46-10.998 8.492-0.868 0.184-1.223 0.214-2.815 0.236-1.002 0.012-1.949 0.010-2.105-0.012zM17.27 31.285c0.289-0.030 0.472-0.078 0.405-0.104s-0.517-0.18-1.001-0.343c-1.020-0.342-2.124-0.845-2.918-1.329l-0.559-0.34-1.263-0.025c-1.093-0.022-1.404-0.059-2.315-0.283-0.716-0.175-1.292-0.378-1.802-0.633-0.728-0.364-0.754-0.371-0.911-0.228-0.089 0.080-0.162 0.173-0.162 0.207 0 0.13 1.555 1.091 2.55 1.575 2.496 1.214 5.453 1.771 7.975 1.504zM18.728 30.56c1.966-0.488 3.607-1.174 4.961-2.072l0.449-0.298 0.248-0.904c0.48-1.753 0.729-3.455 0.506-3.455-0.039 0-0.376-0.246-0.749-0.546s-0.952-0.709-1.285-0.907c-0.815-0.483-2.301-1.155-2.334-1.055-0.015 0.044-0.062 0.058-0.104 0.032s-0.34 0.116-0.661 0.316c-1.674 1.042-3.497 1.756-5.515 2.161l-0.478 0.096 0.255 0.162c0.272 0.172 0.332 0.308 0.135 0.308-0.066 0-0.143 0.1-0.17 0.223s-0.171 0.605-0.318 1.073c-0.147 0.468-0.347 1.251-0.443 1.741s-0.195 0.973-0.219 1.073c-0.025 0.107-0.005 0.182 0.050 0.182 0.051 0 0.215 0.122 0.364 0.272 0.327 0.327 2.137 1.248 3.205 1.631 0.423 0.151 0.787 0.277 0.81 0.278 0.022 0.010 0.605-0.137 1.296-0.309zM25.91 27.686c2.619-2.2 4.519-5.434 5.156-8.777l0.111-0.585h-1.412l-0.859 1.159c-0.783 1.056-2.176 2.875-3.091 4.036-0.301 0.382-0.377 0.551-0.453 1.012-0.123 0.743-0.547 2.401-0.741 2.898-0.216 0.552-0.082 0.81 0.438 0.845 0.076 0.010 0.459-0.26 0.85-0.588zM6.77 27.766c-0.028-0.050-0.168-0.254-0.311-0.455-0.82-1.153-2.119-3.597-2.458-4.626-0.050-0.151-0.364-0.584-0.697-0.962-0.81-0.918-1.417-1.768-2.041-2.859-0.488-0.854-0.514-0.884-0.463-0.54 0.115 0.77 0.595 2.506 0.918 3.32 0.8 2.013 1.952 3.731 3.538 5.275 1.191 1.16 1.261 1.212 1.425 1.064 0.077-0.069 0.117-0.167 0.088-0.216zM14.471 23.549c1.125-0.228 2.172-0.563 3.292-1.053 0.848-0.371 2.341-1.23 2.341-1.347 0-0.040 0.054-0.073 0.12-0.073 0.15 0 0.165-0.074 0.327-1.66 0.073-0.713 0.221-1.817 0.329-2.454s0.196-1.435 0.196-1.772v-0.614l-0.466-0.53c-0.656-0.747-1.778-1.71-2.766-2.374-1.032-0.694-2.509-1.445-2.84-1.445-0.381 0-1.541 0.415-2.953 1.056-1.315 0.597-2.797 1.476-2.797 1.658 0 0.055-0.066 0.119-0.148 0.14-0.108 0.028-0.205 0.243-0.36 0.799-0.453 1.621-0.679 3.583-0.575 5.011 0.034 0.468 0.055 0.875 0.048 0.905-0.025 0.103 1.396 1.375 2.331 2.085 0.753 0.572 2.766 1.868 2.902 1.868 0.018 0 0.476-0.090 1.019-0.2zM4.356 22.048c0.081-0.089 0.205-0.162 0.277-0.162s0.403-0.165 0.736-0.365c0.592-0.357 0.748-0.463 2.047-1.392l0.632-0.452-0.054-0.819c-0.095-1.434 0.184-3.664 0.651-5.193l0.208-0.682-0.473-0.481c-0.485-0.493-0.809-0.905-2.121-2.702-0.415-0.568-0.77-1.032-0.79-1.032s-0.143 0.076-0.274 0.17c-0.131 0.093-0.292 0.177-0.359 0.187-0.391 0.057-2.202 1.547-3.147 2.588l-0.641 0.707-0.155 0.745c-0.114 0.549-0.165 1.212-0.194 2.526l-0.039 1.781 0.552 0.991c0.303 0.545 0.789 1.328 1.078 1.74 0.518 0.737 1.68 2.005 1.838 2.005 0.044 0 0.146-0.073 0.227-0.162zM31.325 16.624c0.153-3.137-0.768-6.427-2.557-9.135l-0.445-0.674-0.508 0.049c-0.495 0.048-0.909 0.178-0.909 0.286 0 0.029 0.058 0.434 0.128 0.898 0.094 0.621 0.121 1.305 0.104 2.585-0.026 1.907-0.060 1.738 0.536 2.663 0.806 1.25 1.421 2.693 1.682 3.951l0.182 0.876 1.619 0.082 0.058-0.243c0.032-0.134 0.082-0.735 0.111-1.336zM21.278 13.87c0.109 0.090 1.651-0.348 3.077-0.874 0.356-0.131 1.067-0.357 1.579-0.501s0.945-0.275 0.961-0.29c0.017-0.012 0.060-0.457 0.096-0.983 0.080-1.16-0.022-2.734-0.258-3.985-0.164-0.867-0.196-0.948-0.508-1.287-0.328-0.357-2.257-1.778-2.964-2.184-0.2-0.115-0.527-0.319-0.726-0.453-0.357-0.241-0.374-0.244-1.351-0.228-1.603 0.025-3.174 0.295-4.654 0.799l-0.619 0.211-0.091 0.455c-0.184 0.921-0.339 3.327-0.248 3.831 0.047 0.26 0.099 0.787 0.115 1.17l0.029 0.697 0.897 0.467c1.446 0.752 2.932 1.894 4.090 3.143l0.326 0.352 0.071-0.214c0.055-0.164 0.096-0.194 0.177-0.126zM3.892 9.498c0.409-0.289 0.899-0.611 1.089-0.714s0.336-0.224 0.324-0.269c-0.013-0.047 0.047-0.059 0.142-0.029 0.109 0.034 0.164 0.014 0.164-0.057 0-0.355 2.342-3.482 3.326-4.441l0.628-0.612-0.041-0.521c-0.062-0.795-0.032-0.779-0.736-0.4-3.46 1.862-6.108 4.984-7.346 8.658l-0.279 0.829 0.992-0.958c0.546-0.527 1.327-1.195 1.736-1.484zM26.834 6.643c-0.080-0.080-0.089-0.070-0.045 0.045 0.030 0.080 0.076 0.125 0.101 0.1s0-0.090-0.055-0.145zM16.565 3.713c1.329-0.448 2.361-0.659 3.827-0.781l1.138-0.095-0.148-0.299c-0.081-0.165-0.175-0.46-0.209-0.657l-0.061-0.357-0.889-0.254c-2.395-0.684-4.93-0.776-7.395-0.268-0.719 0.148-2.279 0.636-2.957 0.925l-0.314 0.133 0.058 0.663c0.032 0.365 0.066 0.671 0.076 0.682 0.010 0.012 0.599 0.038 1.309 0.062 1.719 0.058 2.608 0.161 3.436 0.397 0.379 0.107 0.772 0.199 0.873 0.203 0.102 0.010 0.667-0.155 1.255-0.354z"></path>
</svg>
