<!-- Generated by IcoMoon.io -->
<svg version="1.1" xmlns="http://www.w3.org/2000/svg" width="32" height="32" viewBox="0 0 32 32">
<title>svb-star</title>
<path d="M6.37 30.835c0-0.078 1.287-4.086 1.665-5.186 0.428-1.245 1.844-5.684 1.887-5.918 0.047-0.25 0.004-0.295-0.866-0.921-0.503-0.362-2.028-1.466-3.389-2.455s-2.665-1.935-2.898-2.104c-0.233-0.169-0.885-0.642-1.449-1.052l-1.025-0.745 12.055-0.088 0.256-0.789c0.141-0.434 0.505-1.558 0.811-2.499s0.958-2.952 1.451-4.471c0.942-2.905 1.154-3.526 1.193-3.487 0.030 0.030 0.576 1.682 1.66 5.021 0.47 1.447 1.118 3.439 1.442 4.427l0.588 1.797 5.977 0.022c3.287 0.012 5.976 0.052 5.975 0.088-0.001 0.050-3.187 2.396-4.733 3.484-0.624 0.439-4.544 3.292-4.721 3.435l-0.198 0.161 0.176 0.482c0.097 0.265 0.558 1.665 1.025 3.112s0.998 3.084 1.181 3.638c0.78 2.368 1.311 4.062 1.283 4.090-0.016 0.015-0.402-0.243-0.856-0.576s-1.201-0.88-1.659-1.215c-1.19-0.869-6.567-4.766-6.89-4.993l-0.271-0.191-2.227 1.622c-1.225 0.892-2.353 1.709-2.506 1.815s-1.255 0.903-2.45 1.771c-1.194 0.868-2.243 1.63-2.33 1.693s-0.159 0.076-0.159 0.030z"></path>
</svg>
