<?xml version="1.0" encoding="UTF-8" standalone="no"?>
<!-- Generated by IcoMoon.io -->

<svg
   xmlns:dc="http://purl.org/dc/elements/1.1/"
   xmlns:cc="http://creativecommons.org/ns#"
   xmlns:rdf="http://www.w3.org/1999/02/22-rdf-syntax-ns#"
   xmlns:svg="http://www.w3.org/2000/svg"
   xmlns="http://www.w3.org/2000/svg"
   xmlns:sodipodi="http://sodipodi.sourceforge.net/DTD/sodipodi-0.dtd"
   xmlns:inkscape="http://www.inkscape.org/namespaces/inkscape"
   version="1.1"
   width="32"
   height="32"
   viewBox="0 0 32 32"
   id="svg6"
   sodipodi:docname="discord.svg"
   inkscape:version="0.92.4 (5da689c313, 2019-01-14)">
  <metadata
     id="metadata12">
    <rdf:RDF>
      <cc:Work
         rdf:about="">
        <dc:format>image/svg+xml</dc:format>
        <dc:type
           rdf:resource="http://purl.org/dc/dcmitype/StillImage" />
        <dc:title>github</dc:title>
      </cc:Work>
    </rdf:RDF>
  </metadata>
  <defs
     id="defs10" />
  <sodipodi:namedview
     pagecolor="#ffffff"
     bordercolor="#666666"
     borderopacity="1"
     objecttolerance="10"
     gridtolerance="10"
     guidetolerance="10"
     inkscape:pageopacity="0"
     inkscape:pageshadow="2"
     inkscape:window-width="1920"
     inkscape:window-height="986"
     id="namedview8"
     showgrid="false"
     inkscape:zoom="15.200134"
     inkscape:cx="9.1870183"
     inkscape:cy="17.041022"
     inkscape:window-x="2869"
     inkscape:window-y="-11"
     inkscape:window-maximized="1"
     inkscape:current-layer="svg6" />
  <title
     id="title2">github</title>
  <path
     style="fill:#000000;fill-opacity:1;stroke-width:0.99999994"
     d="M 8.9590922,25.604839 C 7.1136478,25.430044 5.5608958,24.856144 4.2145388,23.851234 c -0.407159,-0.3039 -1.128348,-1.019936 -1.40103,-1.391024 l -0.211866,-0.288319 4.46e-4,-0.366713 c 0.0011,-0.911318 0.122508,-2.35794 0.300434,-3.582318 0.432093,-2.9734 1.514374,-6.47724 2.78402,-9.0131387 l 0.219378,-0.438171 0.335273,-0.238156 c 1.009938,-0.717392 2.3290974,-1.368126 3.4764514,-1.714913 0.7392258,-0.223431 1.7166228,-0.40991 2.3372728,-0.445932 l 0.297744,-0.01728 0.08718,0.11294 c 0.04797,0.06212 0.08814,0.123912 0.08931,0.137321 0.002,0.01341 -0.312782,0.128912 -0.697688,0.256675 -1.571956,0.521791 -2.9028328,1.133033 -4.0209898,1.846753 -0.5860004,0.374045 -1.2396434,0.853915 -1.2072554,0.886303 0.0064,0.0064 0.161062,-0.06333 0.343717,-0.154936 1.9597214,-0.982838 3.9660332,-1.627879 5.7880982,-1.860909 1.227127,-0.156941 1.773803,-0.20652 2.609919,-0.236696 3.16556,-0.114248 6.251327,0.560017 9.078885,1.983811 0.301716,0.151927 0.553957,0.270849 0.560534,0.264272 0.02253,-0.02253 -0.543293,-0.443623 -1.004897,-0.747844 -1.174792,-0.774262 -2.606176,-1.45125 -4.130674,-1.95365 -0.265837,-0.08761 -0.479546,-0.171337 -0.474907,-0.186067 0.0049,-0.01473 0.06804,-0.09888 0.140941,-0.18701 l 0.132502,-0.16023 0.282853,0.01685 c 0.779228,0.04641 1.730438,0.239946 2.635018,0.536113 1.048932,0.343432 2.446783,1.065111 3.329213,1.718796 0.197655,0.146418 0.208572,0.161616 0.42043,0.585228 1.167351,2.3341337 2.173409,5.4607567 2.664802,8.2816657 0.240879,1.382777 0.418172,3.20553 0.418595,4.303617 l 1.09e-4,0.359799 -0.122833,0.176138 c -0.188933,0.270923 -0.500957,0.628904 -0.790616,0.907063 -1.294838,1.243428 -2.969035,2.024192 -4.937182,2.302468 -0.464724,0.06571 -1.149666,0.116817 -1.175642,0.08774 -0.03739,-0.0419 -0.608526,-0.733884 -0.68621,-0.831437 -0.04042,-0.05075 -0.238619,-0.29648 -0.44046,-0.546082 -0.201848,-0.249607 -0.362627,-0.457222 -0.357291,-0.461369 0.0049,-0.0049 0.130285,-0.04441 0.277668,-0.08951 0.992373,-0.303528 2.013309,-0.850575 2.783886,-1.491696 0.402608,-0.334978 1.119355,-1.115311 1.024415,-1.115311 -0.01129,0 -0.135877,0.07197 -0.276842,0.159878 -0.884465,0.55169 -1.978039,1.058619 -3.260679,1.5115 -1.169502,0.412934 -2.458323,0.690727 -3.873467,0.834887 -0.585085,0.05959 -2.310442,0.05036 -2.932757,-0.01573 -1.636659,-0.173789 -3.250188,-0.566773 -4.8234168,-1.174769 -0.624591,-0.241376 -1.667215,-0.740201 -2.00096,-0.957313 -0.2483664,-0.161573 -0.6787174,-0.415697 -0.6787174,-0.400785 0,0.101288 0.7898174,0.932823 1.1931884,1.256206 0.620873,0.497761 1.539719,1.000561 2.3572078,1.28988 0.298927,0.105799 0.430819,0.165772 0.413376,0.18798 -0.08612,0.109617 -0.960688,1.196185 -1.2072988,1.49992 -0.339901,0.418639 -0.234512,0.382497 -0.924701,0.317126 z m 3.1902328,-5.627293 c 0.570073,-0.11775 1.080117,-0.464222 1.431366,-0.972317 0.903984,-1.307661 0.462432,-3.195084 -0.900483,-3.849189 -0.353437,-0.169626 -0.586897,-0.223226 -0.972245,-0.223226 -0.676325,0 -1.285038,0.285503 -1.7213688,0.807369 -0.85501,1.022619 -0.825248,2.569901 0.06787,3.528106 0.37893,0.406542 0.763468,0.62184 1.315689,0.736625 0.145604,0.03024 0.57281,0.01525 0.779179,-0.02738 z m 8.569917,-0.04204 c 0.641087,-0.200679 1.146873,-0.657378 1.460011,-1.318334 0.375997,-0.793642 0.31691,-1.822438 -0.147276,-2.564285 -0.451253,-0.721179 -1.142298,-1.120945 -1.935313,-1.119581 -0.646221,0.002 -1.1383,0.207234 -1.606144,0.672781 -0.642354,0.639207 -0.900927,1.659338 -0.655716,2.586978 0.06814,0.257785 0.315773,0.74421 0.488765,0.960093 0.306921,0.383027 0.770277,0.684172 1.249364,0.812005 0.301058,0.08034 0.839452,0.06639 1.146309,-0.02966 z"
     id="path833"
     inkscape:connector-curvature="0" />
</svg>
