<?xml version="1.0" encoding="UTF-8" standalone="no"?>
<!-- Generator: Adobe Illustrator 17.1.0, SVG Export Plug-In . SVG Version: 6.00 Build 0)  -->

<svg
   xmlns:dc="http://purl.org/dc/elements/1.1/"
   xmlns:cc="http://creativecommons.org/ns#"
   xmlns:rdf="http://www.w3.org/1999/02/22-rdf-syntax-ns#"
   xmlns:svg="http://www.w3.org/2000/svg"
   xmlns="http://www.w3.org/2000/svg"
   xmlns:sodipodi="http://sodipodi.sourceforge.net/DTD/sodipodi-0.dtd"
   xmlns:inkscape="http://www.inkscape.org/namespaces/inkscape"
   version="1.1"
   id="Слой_1"
   x="0px"
   y="0px"
   viewBox="57.5 -100.7 783.74475 799.99995"
   enable-background="new 57.5 -100.7 785.1 801.3"
   xml:space="preserve"
   inkscape:version="0.91 r13725"
   sodipodi:docname="Flag_of_Suriname.svg"
   width="783.74475"
   height="799.99994"><metadata
     id="metadata25"><rdf:RDF><cc:Work
         rdf:about=""><dc:format>image/svg+xml</dc:format><dc:type
           rdf:resource="http://purl.org/dc/dcmitype/StillImage" /><dc:title></dc:title></cc:Work></rdf:RDF></metadata><defs
     id="defs23"><clipPath
       clipPathUnits="userSpaceOnUse"
       id="clipPath3390"><path
         inkscape:connector-curvature="0"
         style="fill:#ff00ff;fill-rule:evenodd"
         d="m 637.8215,-99.989673 c -1.68162,0.0976 -2.64582,0.828038 -4.23815,1.574438 -3.81759,1.78928 -7.62962,1.89749 -11.64422,2.70018 -1.15348,0.23069 -2.30339,0.17619 -3.43111,0.56286 -0.91208,0.31255 -1.80593,0.81457 -2.41954,1.57444 -0.65602,1.74152 -0.0558,2.51765 0.95608,3.77042 0.98542,1.21948 1.59863,2.63082 2.86825,3.65626 1.44641,1.16835 3.15642,2.08578 4.61393,3.26305 1.03456,0.83558 1.62836,1.76768 2.98082,2.1928 2.88409,0.90613 6.63747,-0.6473 9.09466,0.58189 2.259,1.1297 6.97043,6.59268 9.24529,6.90028 1.74886,0.23625 4.28809,-1.77699 7.19995,-1.91216 0.78563,-0.0365 1.88046,-0.11476 2.64468,0 1.53917,0.23069 2.13691,1.40875 4.04948,1.18123 0.33257,-0.0396 0.74005,-0.19582 1.06865,-0.28223 0.33177,-0.56247 2.55074,-2.23085 3.18693,-2.49247 0.83836,-0.34545 1.78612,-0.87403 2.71921,-0.82607 0.8443,0.0432 2.7747,1.31997 3.32013,1.96924 0.38885,0.46318 0.61795,1.14239 1.01315,1.63153 0.55732,0.69011 1.3707,1.30647 2.02474,1.91215 l 0,0.78802 c -0.86411,-0.80049 -1.89948,-1.87015 -2.9824,-2.36246 -2.24314,-1.0195 -5.27867,-1.47138 -7.3696,0 -1.0524,0.74085 -1.57722,1.84002 -2.47503,2.70018 -0.49944,0.47883 -1.13485,0.70715 -1.79959,0.84351 -3.67528,0.75413 -4.5628,-2.72416 -7.25702,-2.98082 -3.35303,-0.31929 -3.87348,2.62447 -6.69416,2.41795 -3.46995,-0.25408 -9.9889,-6.74171 -14.85176,-5.85064 -0.96005,1.77956 -0.58031,3.64734 -1.18123,5.40035 -0.2747,0.80089 -1.15903,1.53678 -1.46187,2.41954 -0.34882,1.01752 -0.41423,2.03345 -0.90059,3.0379 -0.78247,0.59814 -2.67679,1.42897 -3.54369,0.67544 l 0.11258,-1.07025 c 0.99175,-1.23295 2.42112,-1.97757 3.0379,-3.54369 1.17409,-2.98042 1.03179,-6.99461 -2.64469,-7.98795 -1.37228,-0.37102 -2.75963,-0.4501 -4.04947,-1.18123 -1.80593,-1.02367 -3.95751,-3.15047 -6.0758,-3.15047 -2.81394,0 -2.91065,2.73188 -6.52608,3.07595 -0.59854,0.0571 -1.44324,0.13953 -2.02474,-0.0381 -0.51729,-0.15815 -6.19789,-4.87891 -7.98796,-5.73807 -1.5681,-0.75274 -3.53536,-0.56168 -5.11972,-1.40638 -3.21825,-1.71595 -6.78334,-2.99984 -10.23784,-4.21913 -1.4262,-0.50301 -2.9047,-0.55196 -4.33169,-0.899 -1.29143,-0.31413 -2.57849,-1.11701 -3.82591,-1.46345 -1.52926,-0.42492 -3.42359,0.0736 -5.00556,0 -1.90543,-0.0888 -3.77121,-0.81576 -5.68258,-0.90059 -2.0287,-0.0904 -3.89211,0.61995 -5.85065,0.61995 -2.10877,0 -4.37649,-0.812 -6.46901,-1.12574 -1.16498,-0.17461 -2.38544,-0.19026 -3.54369,-0.39321 -1.51379,-0.26478 -2.92095,-0.78801 -4.49976,-0.78801 -1.9851,0 -4.03441,0.4154 -6.0203,0.50578 -4.47797,0.20375 -9.01777,0.36388 -13.38832,-0.78643 -1.0314,-0.27152 -3.62692,-0.78484 -4.61392,-0.56287 -1.58554,0.35675 -3.74227,1.79227 -5.62392,2.24989 -1.58673,0.38608 -3.28246,0.20136 -4.89456,0.39321 -0.75433,0.0898 -1.50628,0.31434 -2.24989,0.3948 -1.56731,0.16926 -3.12471,-0.22514 -4.66942,-0.22514 -1.5566,0 -14.29128,2.06775 -15.80785,2.5876 -2.7747,0.95113 -3.40852,3.91431 -5.41938,5.92517 -2.26971,2.26989 -13.28605,6.38537 -8.75695,10.72619 0.90456,0.8669 2.36445,1.14971 3.37563,1.79959 0.45861,0.29471 0.93864,0.86194 1.34929,1.2383 1.448,4.07524 -1.41272,5.4515 -1.68702,7.98797 -0.21603,1.99818 0.70914,2.36463 1.57603,3.71334 1.7659,2.74754 2.64151,9.45338 3.65626,12.82544 l 0.11258,-0.16807 c -0.36388,2.48712 -0.18591,8.77676 -3.15047,9.95561 l -0.9006,-0.39321 c -0.36269,-1.04567 0.24457,-3.0373 0.35675,-4.21913 0.0935,-0.98283 -0.0769,-2.01422 0.0381,-2.98081 0.19344,-1.62399 0.59973,-3.14453 0.39321,-4.83908 -0.0821,-0.67147 -0.38568,-1.39448 -0.50578,-2.08023 -0.41422,-2.36483 -0.53472,-4.93162 -2.75726,-6.41351 -1.28271,-0.85521 -2.99865,-0.52521 -4.38719,-0.90058 -0.3175,-0.0856 -0.58388,-0.36112 -0.90059,-0.4503 -0.26082,-0.0733 -0.62668,-0.009 -0.90059,-0.0555 -1.07856,-0.18471 -2.12383,-0.65879 -3.20596,-0.8435 -1.47218,-0.25131 -2.83377,-0.44733 -4.27621,-0.9006 -2.40923,-0.75749 -4.27145,-3.0369 -6.69415,-3.9369 -2.37078,-0.88057 -4.70233,-0.39876 -7.14446,-0.50737 -1.9411,-0.0862 -5.43048,-1.19054 -7.36801,-1.79959 -2.48731,-0.78166 -5.37182,-2.82544 -7.98795,-3.82591 -4.01737,-1.53639 -7.70058,-0.94142 -11.02586,-2.08182 -2.22531,-0.76304 -4.00826,-2.10678 -6.13288,-3.0363 -2.19438,-0.96005 -4.6274,-1.60656 -6.9193,-2.30697 -1.46821,-0.4487 -2.83971,-0.63937 -4.3317,-0.90058 -1.43412,-0.25091 -2.70097,-0.92755 -4.21912,-1.06866 -0.82132,-0.0765 -1.64619,0.0323 -2.47504,-0.11257 -1.98549,-0.34763 -3.772,-1.85648 -5.73807,-2.13732 -0.84827,-0.12129 -1.69614,0.1112 -2.53053,0.16808 -1.72625,0.11753 -3.98287,-0.33595 -5.62549,-0.89901 -2.08777,-0.71548 -4.12598,-2.24928 -6.18837,-3.0379 -2.20826,-0.84409 -4.60878,-0.24021 -6.86382,-1.01316 -1.18757,-0.40729 -2.25345,-1.44403 -3.4866,-1.7441 -1.86499,-0.45346 -4.82243,0.56287 -6.86381,0.56287 -2.523,0 -5.23982,-1.44285 -7.98796,-1.18123 -1.10155,0.10504 -2.01998,0.65305 -3.0379,0.90059 -2.11075,0.51332 -4.93182,0.93864 -7.08737,0.56128 -4.61828,-0.80823 -8.41327,-4.56398 -10.91487,-4.89298 -2.26494,-0.29808 -4.69558,0.11257 -6.9748,0.11257 -3.64753,0 -7.37672,-0.57039 -11.02585,-0.73251 -1.29975,-0.0579 -2.71326,0.1524 -3.99398,0 -2.10877,-0.25091 -4.82242,-1.668 -6.9748,-2.24988 -1.91454,-0.51748 -4.13231,-0.0587 -6.0203,-0.50579 -1.25614,-0.29769 -2.44609,-1.36437 -3.76883,-1.46346 -1.07856,-0.0809 -2.34898,0.20671 -3.43111,0.28223 -2.48533,0.17322 -5.44792,0.16926 -7.93247,0 -2.78619,-0.18988 -4.99802,-1.59426 -7.87538,-1.46346 -0.88989,0.0406 -1.28686,0.27589 -2.08181,0.56287 -0.97195,0.351 -1.98847,0.52957 -2.92533,1.01316 -2.63299,1.35921 -4.55268,5.15282 -6.91931,6.18837 -1.86955,0.81794 -4.63671,0.20196 -6.41192,1.40637 -3.26166,2.21302 -1.48487,9.66706 -2.64469,13.05059 -0.89346,2.60584 -2.54341,4.3551 -3.82591,6.69417 -0.95192,1.73616 -1.57822,3.6071 -2.47503,5.34485 -1.61468,3.12867 -3.89033,6.32394 -4.61234,9.84304 -0.50441,2.45878 -0.26102,9.67953 -0.39321,12.65739 -0.1649,3.71413 -1.2072,7.37672 -2.08182,10.97036 -0.24933,1.02505 -0.68476,2.11927 -0.84351,3.15047 -0.71826,4.66803 -1.79483,14.4296 -3.93849,18.33837 -2.53468,4.6218512 -9.02331,4.1600712 -12.09451,6.2438612 -0.82646,0.56089 -1.91038,1.87193 -2.5876,2.64467995 l -0.33772,0 c -0.46278,1.05934024 -1.81227,3.79381005 -1.96924,4.66942005 -0.21286,1.18658 0.0611,2.4683 0,3.65626 -0.0983,1.91653 -1.58891,10.4146288 -2.41795,11.9264488 -1.36159,2.48257 -5.00477,3.18099 -6.97639,4.83748 -0.74976,0.62966 -1.19649,1.42441 -1.79959,2.13731 -1.71219,2.02316 -2.66411,3.13502 -3.32012,5.85065 l 0.28223,1.06866 0.67544,0.619943 c 2.28436,0.79535 6.10414,-2.698193 8.21311,-1.182813 l 0.26161,0.60092 c 0.20314,0.464174 0.10427,0.593388 0.0571,1.087683 -0.31751,3.334985 -2.11511,10.024974 -0.71349,13.107668 0.62133,1.366937 1.75599,1.875901 3.09497,2.192811 1.05955,0.25091 2.26912,0.578519 3.26147,-0.11258 1.30807,-2.969522 -4.20645,-4.968687 -2.13732,-8.100527 0.51867,-0.375773 1.10215,-0.699818 1.6886,-0.956087 2.94911,0.217814 4.87534,1.757972 6.35644,4.21913 l -0.56287,-0.50579 c 2.73625,2.299034 8.59701,12.193219 7.65024,15.69528 -0.53095,1.964485 -2.33749,1.984698 -3.71175,2.868242 -1.19867,0.770169 -3.01888,3.569838 -4.83908,2.249872 -1.65848,-1.852505 -0.51055,-5.05192 -4.10655,-6.469001 -2.16387,-0.852826 -6.37804,-0.07176 -7.76281,1.969249 -0.76146,1.121774 -0.264,5.548196 -0.56287,7.257013 -0.8328,4.760193 -6.4698,7.473447 -4.38719,13.33123 1.16954,1.447199 2.85358,1.403402 4.21913,2.364043 1.05517,0.742429 1.66581,1.788097 2.5876,2.643098 0.20156,0.690896 0.20156,1.671369 0,2.36246 l -0.61836,0.619945 c -4.15472,0.277075 -5.3411,-2.364441 -8.55083,-1.688603 -1.48248,0.312152 -1.91791,1.460683 -3.0379,2.194393 -0.54423,0.35655 -4.38541,1.372287 -5.11971,1.461869 -1.11939,0.136357 -2.34045,0.06421 -3.43111,0.507373 -1.50904,0.613012 -2.27862,2.24988 -3.93848,2.643098 -1.41728,0.335938 -5.09752,-0.532539 -6.29936,-1.349296 -2.60723,0.225542 -4.95106,1.992629 -7.59475,1.349296 -3.5526,-0.864515 -6.22523,-4.331701 -8.77597,-4.331701 -4.87613,0 -9.92608,3.938483 -14.51404,3.938483 -2.28754,0 -3.03077,-0.95568 -5.00556,-1.576023 -10.37717,-3.261063 -8.67964,-3.60671 -17.04615,3.150471 -1.33602,1.07896 -4.16919,2.582839 -5.11813,3.768826 -0.38668,0.483588 -0.69289,1.07381 -1.07024,1.57604 -0.51709,1.53798 1.06826,2.50079 0,4.16205 -0.43999,0.68495 -1.28945,1.11187 -1.96766,1.51895 -5.5159,3.30942 -9.88248,-2.18805 -13.67054,-0.8435 -1.05438,0.37418 -3.50267,3.94482 -4.16205,5.00713 -0.63422,1.02188 -1.80691,1.99025 -2.25146,3.0379 l 0.28222,-0.56287 c -0.97749,0.6909 -2.29725,2.58088 -3.03789,3.54369 -0.71291,0.92675 -1.88244,1.68028 -2.64469,2.58761 -2.76618,3.29356 -5.88553,7.50476 -5.17521,12.00096 0.16232,1.02742 0.59122,2.70413 1.46346,3.35659 1.70406,0.46377 3.61761,0.4051 5.17521,1.40638 0.22713,0.14587 0.81853,0.95408 0.99413,1.20025 1.80276,2.52299 1.38477,5.70161 2.54955,8.36373 0.76047,1.73815 2.26118,4.16442 3.48819,5.6255 0.56644,0.67464 1.41707,1.38695 1.91217,2.08023 0.50737,0.71072 1.00086,2.83891 1.12573,3.71334 0.022,0.15339 0.0555,0.23824 0.0555,0.39322 0,3.06683 -2.49168,7.75012 -4.10655,10.352 -0.67544,1.08847 -1.57761,2.01563 -1.96924,3.26146 l 0.28222,-0.50579 c -0.42631,1.22443 -1.35028,2.23522 -1.74409,3.48819 -0.52421,1.66839 -1.17905,3.24718 -1.74409,4.89456 -0.67426,1.96647 -1.12119,4.03997 -1.7996,6.01873 -0.73609,2.14642 -2.12462,4.07047 -2.86982,6.24385 -0.77117,2.24988 -1.14873,4.67378 -2.24989,6.80674 -1.48169,2.87062 -6.64738,6.50547 -7.25702,9.9017 -0.6909,3.8489 1.88878,6.19313 2.24988,9.22469 0.1974,1.65649 -0.40273,10.42255 -1.01157,11.81386 -1.11266,2.54361 -2.69919,2.38903 -4.38878,3.65627 -1.09561,0.82131 -2.48415,2.09094 -3.37403,3.15047 -1.23098,1.46583 -2.03208,3.16831 -3.60077,4.38878 -1.22602,0.95331 -2.86607,1.50665 -4.05106,2.41794 -0.79277,0.61004 -1.87927,1.953 -2.47503,2.75727 -0.36884,0.49785 -0.50678,1.25851 -0.899,1.74409 -0.1972,0.24417 -0.53037,0.37775 -0.73252,0.61836 -0.40253,0.47923 -0.51412,1.18282 -0.84351,1.68702 -0.89504,1.36832 -1.9302,2.43696 -2.13731,4.21912 -0.12585,1.08292 0.20394,2.46195 0.39321,3.54369 0.66454,3.79737 2.78897,7.15951 3.60077,10.91487 0.6794,3.14175 0.0392,6.56414 0.11257,9.78754 0.0325,1.42739 0.16966,3.34232 0.50579,4.72491 0.16074,0.66039 0.54305,1.25932 0.67544,1.96925 1.77462,1.43293 3.5865,4.9358 5.23229,6.58159 1.53163,1.53163 3.76566,2.38583 5.40036,3.76882 1.62974,1.37863 3.39384,2.82901 5.11812,4.10656 0.24259,0.17956 0.61122,0.2628 0.84351,0.45029 0.43405,0.35081 0.75769,0.96124 1.18281,1.35088 3.31141,3.03473 4.32714,5.64453 6.35644,9.44983 1.26189,2.36642 3.58016,4.49304 5.28778,6.52609 1.5909,1.89393 2.81295,4.40344 3.9369,6.58158 0.47209,0.91486 0.58407,1.95814 1.07024,2.86983 0.30799,0.57713 0.6806,1.05003 0.899,1.68702 0.6479,1.88996 1.57028,3.96067 1.96924,5.90614 0.90436,4.40899 -0.44236,10.9442 2.53211,14.62662 2.38644,2.95386 13.9718,7.34858 18.00066,9.5069 4.978,2.66688 4.05899,8.17982 6.13128,10.74522 1.83527,2.27248 5.64117,2.38188 7.93247,3.9369 0.20375,0.13834 1.40182,1.56374 1.6125,1.83764 2.14742,2.79174 0.9428,3.92104 1.87569,6.43254 0.53314,1.43532 1.22087,2.90194 1.83765,4.31268 0.29748,0.68019 0.74817,1.5229 0.80545,2.2689 0.13754,1.78889 -1.20066,3.11916 -1.96766,4.55685 -0.62054,1.1634 -0.93685,2.49129 -1.57602,3.65626 -1.27875,2.33194 -2.87935,3.74425 -1.68702,6.46901 0.4489,1.02624 0.67524,1.66205 1.40637,2.53211 1.12078,1.33423 2.14643,2.46751 3.76883,3.22499 1.30867,0.61083 6.25755,2.66729 7.53767,2.51309 1.1085,-0.29175 2.16486,-0.62193 3.31854,-0.67544 1.66799,-0.0773 4.37213,0.68971 5.79515,-0.22515 1.27458,-0.81933 2.10323,-4.00706 5.62551,-3.54369 0.81992,0.10821 2.95603,2.21382 3.9369,2.6431 0.877,0.3837 2.06298,0.37617 2.81274,1.12574 0.45129,0.45148 0.41621,1.04329 1.23831,1.2938 l 0.71191,0 c 0.87403,0 2.42647,-1.67791 3.39465,-2.19439 1.68186,-0.89663 3.6297,-0.46179 5.2307,-1.29381 1.19272,-1.44283 0.96539,-4.11963 1.57602,-5.00555 2.66767,0.22594 4.04848,3.49374 6.58158,3.9369 1.87768,0.32821 3.96465,-0.34486 5.73808,0.78801 7.22849,-0.74758 5.71905,-4.64404 9.50691,-6.02029 0.51629,0.11019 1.28369,0.5585 1.57603,1.01315 0.2636,1.4373 -0.39382,3.46045 0.28064,4.72492 0.24497,0.45941 0.86135,0.99215 1.18123,1.46345 0.4612,0.6798 2.53905,4.60045 2.5876,5.23229 0.17302,2.24988 -1.3152,2.26534 -1.57444,3.71176 0.49449,0.91723 0.84093,2.11907 0.56128,3.15047 -0.46734,0.84588 -1.40796,1.24068 -2.02474,1.96924 0.20889,2.55748 2.01741,4.53425 2.24989,6.9193 0.32246,3.30348 -2.07388,10.07692 -1.2938,12.88253 0.65225,0.67742 1.50982,1.36158 2.47502,1.46187 l 0.3948,0.90058 c -0.55117,1.0742 -1.35048,1.96171 -1.83764,3.07437 -0.29411,0.67266 -0.1536,1.65689 0.26162,2.2689 0.40272,0.5934 1.19768,1.02467 1.89472,1.10672 2.87359,0.33811 3.28366,-1.66285 5.43841,-2.54956 l 0.31869,-0.1316 0.899,0.39322 c 2.03306,2.69027 -4.75483,6.7659 -1.57444,10.23943 0.82443,0.3291 1.62681,0.72285 2.46869,1.00681 -0.0712,-0.0335 -0.14902,-0.0752 -0.21881,-0.10781 l 0.39321,0.16965 c -0.0589,-0.0186 -0.11586,-0.0421 -0.1744,-0.0619 1.82997,0.86075 4.0761,2.00257 4.39353,4.22389 0.1207,0.84509 -0.0836,1.78848 0,2.64468 0.13893,1.4254 0.92397,2.67045 1.18123,4.04947 l -0.56128,0.84351 c -0.93845,-0.47091 -2.2917,-0.20728 -3.26305,0.0571 l -0.67544,0.73093 c -0.58585,1.68662 1.09423,2.9388 1.57604,4.38878 l -0.22516,1.06865 c -0.31643,0.25562 -0.63296,0.60718 -0.88631,0.97352 0.0703,-0.0654 0.14177,-0.13233 0.21087,-0.18709 l -0.50579,0.67544 c 0.0807,-0.16153 0.18251,-0.32581 0.29492,-0.48835 -0.34763,0.32302 -0.69129,0.75531 -0.85778,1.16379 -0.09,0.4495 0.54444,3.84177 0.78643,4.16205 2.35532,1.10908 5.39084,-1.46306 7.59474,0 l 0.56287,0.78801 c -0.0741,0.6683 -0.14825,1.62796 -0.39321,2.24989 -1.37823,3.49889 -8.31478,4.43356 -7.14445,8.1576 0.41779,1.32909 1.48366,2.09649 1.79958,3.15047 2.77272,2.63914 0.6798,3.25632 1.01317,5.45586 0.29511,1.94705 2.56124,1.66957 3.26146,3.32012 0.45703,1.07698 0.003,2.35333 0.67544,3.31854 2.68174,1.73339 5.91367,-3.42476 10.08879,-2.32599 0.88374,0.23268 1.58238,0.61797 2.00572,1.48248 -0.0692,1.80791 -1.56751,1.80593 -2.53053,2.81275 -1.47395,1.54115 -2.54043,5.9105 0,7.08737 1.8537,0.15737 4.93599,-3.47273 9.11369,-0.16807 l 0.22356,1.06866 c -0.54522,1.56731 -1.69732,2.63872 -2.64309,3.9369 -0.53076,4.23935 2.09253,3.66617 3.99398,6.0203 0.71826,0.88949 1.00979,1.95101 1.57444,2.86824 0.85778,1.39409 2.05784,2.38466 2.47662,4.10656 0.65185,2.68115 -1.45909,4.12518 0.11099,7.70732 l 0.78801,0.56286 1.06866,0 c 1.41708,-1.19232 5.52561,-2.54796 6.30094,0 -0.72876,3.41605 -2.98894,3.75575 -1.79959,8.15603 1.01851,3.76843 4.27085,2.87973 5.79357,7.03187 1.02643,2.79927 -2.29369,8.54172 1.46345,10.12686 2.78322,0.55692 4.19138,-3.94444 6.9193,-3.0379 l 0.61837,0.67385 c 0.88671,3.19289 -2.58245,5.10506 -1.18123,9.56399 1.60734,5.11416 4.51919,3.56272 5.00555,5.56843 -0.0282,2.29309 -1.66521,5.19066 -0.899,7.42667 1.16974,3.41089 7.86746,3.03393 9.44983,7.65024 1.07975,3.15007 -0.0686,6.32393 -0.22515,9.45141 -0.0432,0.86095 0.40273,2.23165 1.01316,2.86824 1.10037,1.14833 5.2755,1.28588 6.97638,2.24989 1.37347,0.77811 2.50992,1.90345 3.59919,3.0379 0.0682,0.74203 0.3825,1.37704 0.50578,2.08181 0.18789,1.07421 0.32028,2.44768 0.3948,3.54369 0.10187,1.49516 -0.0658,3.02639 0.0745,4.50135 0.0421,0.4388 0.14111,1.05597 0.3187,1.46187 0.0662,0.15063 2.94196,3.66458 3.43269,4.38719 1.92881,2.84248 3.64516,5.94383 5.73649,8.66344 2.27604,2.9594 5.09831,5.43206 7.48217,8.27018 2.00691,2.38904 3.70898,5.29446 5.17521,8.04345 0.14072,0.26359 0.17956,0.6548 0.33772,0.90061 0.44593,0.69368 1.16299,1.36552 1.63152,2.08177 0.86294,1.31998 1.1194,2.38271 1.64897,3.44064 0,0 1.23394,0.18193 2.00253,0.25052 1.3386,0.11966 2.78817,0.4788 4.11924,0.4788 1.09283,0 2.3149,-0.22957 3.41684,-0.29809 1.55106,-0.0968 3.14691,-0.0832 4.68845,-0.24257 1.55027,-0.16016 3.334,-0.80619 4.90567,-0.57873 0.0511,0.008 0.90533,0.39405 1.0084,0.43919 0.0626,0.0276 0.11098,0.11138 0.17599,0.13159 1.56018,0.47847 3.37284,0.8519 4.86603,1.49362 1.09561,0.47133 1.53005,1.89515 2.32758,2.68592 0.91763,0.9097 1.97994,1.92047 2.98399,2.73031 1.70802,1.37819 2.69819,0.73614 4.64563,1.00842 0.0425,0.008 2.08341,1.02506 2.2372,1.10031 1.05518,1.49517 2.05129,3.73557 2.2372,5.5764 0.046,-0.0227 3.88537,-0.66316 5.08642,-0.60252 0.438,0.0219 2.96536,1.26641 3.28841,1.43648 1.79286,0.94217 5.41424,2.89836 7.49645,2.82862 0,0 1.9296,-0.31432 2.18963,-0.44397 1.34929,-0.67152 2.91422,-1.89904 4.20168,-2.73819 0.0222,-0.0146 0.88077,-0.1626 0.96401,-0.17762 1.31124,1.26405 5.2755,4.03325 6.71002,4.71224 1.06904,0.50623 3.40018,0.69011 4.69002,1.36195 1.8646,0.97115 4.22469,2.92141 6.18203,3.61031 0,0 2.24473,0.52125 2.58443,0.48196 0.27866,-0.0325 3.04068,-1.04925 3.54686,-1.19391 2.95188,-0.842 6.02387,-0.3218 8.98209,0.25685 2.08419,0.40793 4.10814,1.28118 6.07738,2.03745 2.99786,1.15154 5.97432,2.35933 8.95672,3.55007 0.31712,0.1268 0.6041,0.47839 0.91963,0.61672 0.0935,0.0406 0.6457,0.0943 0.78959,0.1316 2.39893,0.62354 4.91241,1.14999 7.27288,1.89156 2.36642,0.74329 4.64326,1.86779 7.01285,2.59556 0.21405,0.0658 6.10275,0.80109 6.10751,0.80068 0.65285,-0.0365 4.49104,-1.23945 5.30997,-1.61564 0.81498,-0.37464 3.2682,-1.77386 3.29952,-1.79488 0.64294,-0.43675 1.42222,-0.87244 2.01363,-1.36829 0.92874,-0.77892 4.64009,-4.24927 5.51452,-5.16254 0.29689,-0.30954 0.58705,-0.87082 0.83241,-1.23515 -0.36626,-2.08932 -0.86174,-4.14065 -1.27636,-6.21691 -0.33772,-1.69211 -1.98034,-10.14113 -1.98034,-10.14113 -0.0103,-0.0682 -0.0559,-2.70174 -0.0476,-2.77781 0.18036,-1.66564 1.08094,-2.05685 1.48724,-3.08864 0.65165,-1.65453 1.45474,-5.05596 0.65166,-6.74653 -0.40273,-0.84873 -1.29698,-2.26653 -1.8868,-2.99821 -0.67544,-0.83834 -2.84367,-3.06526 -3.11559,-3.35028 -0.72261,-0.75749 -3.94285,-3.3895 -4.56002,-4.0542 -0.64452,-0.6949 -1.57959,-1.91974 -2.06279,-2.73348 -0.35753,-0.60293 -0.45544,-1.44955 -0.79118,-2.07228 -1.01831,-1.89116 -2.61653,-3.31976 -4.11923,-4.809 l -0.61837,-0.61202 c -1.23077,-0.0576 -5.79039,-2.7097 -6.97162,-3.52466 -0.67822,-0.4677 -2.24552,-2.40288 -2.4576,-3.30585 -0.0813,-3.46322 3.36136,-4.75266 0.56129,-8.20359 l -5.87602,-2.7747 c -0.57278,-0.21722 -0.92754,-0.24061 -1.52053,-0.3948 -2.61853,-0.68218 -5.20732,-1.2062 -7.86429,-1.71397 -0.21722,-0.0416 -1.04408,-0.54621 -1.09402,-0.83716 l -0.0444,-1.19233 c 0.39796,-1.84438 2.63596,-7.29508 3.36451,-8.82355 0.96719,-2.02908 2.12741,-4.24885 3.28048,-6.17726 0.52324,-0.87483 1.92168,-2.62289 3.02047,-2.82544 l 2.0612,0.2204 c 0.64888,0.482 3.32726,2.80442 4.12241,2.5099 l 1.31441,-0.70556 c 0.66157,-1.68623 1.97162,-4.63454 3.10608,-6.04567 1.22919,-1.52886 2.98161,-2.87618 4.51086,-4.0907 0.53473,-0.42453 0.97868,-0.77415 1.51895,-1.14635 0.10781,-0.0749 0.20176,-0.0844 0.27747,-0.19184 0.63144,-0.89662 1.66244,-2.89639 1.39845,-4.05899 -0.80466,-1.18797 -1.95616,-2.79095 -2.37197,-4.189 -0.0154,-0.0516 -0.0428,-2.12106 -0.046,-2.29428 1.21492,-1.53084 3.15523,-4.30474 3.06327,-6.35326 l -1.14318,-2.68908 0.61202,-1.94229 c 1.42382,-1.40836 2.72594,-1.83963 4.63137,-2.25147 0.93706,-0.20255 3.64437,-0.9216 4.66149,-0.53274 0.44197,0.16886 0.64214,0.36745 1.0528,0.6025 l 2.1056,1.20501 c 1.81941,1.3164 3.56271,2.89878 5.30839,4.31902 0.27985,0.22792 0.78723,0.32583 1.0972,0.52957 l 5.32266,3.50246 0.20295,-0.0206 c 1.05518,0.47923 2.17615,0.9216 3.20279,1.45395 0.27113,0.14031 2.13018,1.33739 2.2372,1.36673 2.76757,0.75392 5.8451,0.78643 8.59364,1.58395 0.005,0.002 3.4759,1.8868 3.55161,1.94071 0.023,0.0166 1.39012,1.55264 1.4476,1.62993 0.66712,0.89782 1.17646,1.93238 1.62042,2.95387 0.16926,0.38885 0.34724,0.97987 0.57556,1.32552 0.58783,0.88987 1.36158,1.754 2.01839,2.60028 l 2.28001,0.39638 c 0.32861,-0.0154 0.49905,-0.12565 0.81814,-0.20611 l 1.63628,-0.41225 c 1.84517,-0.73886 4.91597,-2.70414 6.83685,-2.95703 1.98747,-0.26122 4.05304,-0.18115 6.04884,-0.39797 1.44046,-0.15657 3.10132,-0.43366 4.51562,-0.74996 0.59537,-0.13319 1.2066,-0.48319 1.79642,-0.66276 1.38536,-0.42135 2.88332,-0.88196 4.29523,-1.19074 1.30174,-0.285 2.68472,8.1e-4 3.98923,0.0428 1.46384,0.0464 4.75265,0.2311 6.09482,0.0888 2.31965,-0.24616 5.24933,-1.1412 7.62646,-1.54433 3.0704,-0.52124 6.07976,-0.19423 9.16284,0 0.60013,0.0377 1.61487,-0.24258 2.32281,-0.17599 2.23958,0.21127 5.77732,1.94982 7.62963,3.08705 0.52918,0.32464 2.33748,2.2055 2.41161,2.24989 0.80664,0.4828 1.89433,0.84866 2.76202,1.23671 l 0.482,0 0.9212,-0.70556 c 0.36784,-1.5253 -0.51292,-2.71366 0.30442,-4.72016 0.79039,-0.68851 1.6672,-1.74965 2.06121,-2.73505 l -1.57921,-4.45538 0.56763,-2.55747 c 0.42334,-0.92358 1.97242,-2.82188 2.63042,-3.64675 l 1.6664,-2.08657 c 0.008,-0.007 3.09973,-1.44086 3.15523,-1.45553 0.30324,-0.0793 2.4116,0 2.4116,0 0.76502,0.0789 1.56969,0.47051 2.20708,0.85302 l 1.52053,0.91327 c 1.668,1.21215 4.79864,4.4629 7.14604,4.27938 0,0 1.84953,-0.3286 2.1056,-0.44078 0.49865,-0.21801 0.73966,-0.42016 1.21293,-0.68971 0.52244,-0.29768 3.65508,-2.04614 4.0035,-2.61615 l 5.04202,-8.24639 1.7108,-1.67593 c 1.36476,-0.96083 3.42715,-1.80593 5.08484,-2.07071 0,0 2.87815,-0.17084 3.33281,0.0888 l 0.74519,0.83875 c 0.0563,0.31196 0.14747,0.65641 0.17442,0.97035 0.15459,1.81227 0.15895,3.86832 0.482,5.64611 l 0.83399,1.58872 c 0.52283,0.64175 2.80879,1.17924 3.55162,0.88314 1.07777,-0.42928 2.56619,-1.27041 3.55161,-1.89472 0.14072,-0.0888 3.09339,-2.31092 4.12082,-3.12986 1.00325,-0.7999 1.84755,-1.84517 2.85081,-2.64468 2.12819,-1.69613 4.54574,-2.99152 6.44681,-4.98177 0,0 2.83614,-1.24664 2.93801,-1.27637 0.9327,-0.2735 1.9395,-0.5038 2.84922,-0.83716 3.12945,-1.14793 6.34811,-3.83225 8.4652,-6.34692 0.45426,0.16965 0.97907,0.79198 1.14001,1.23672 0.28738,1.28825 -0.87681,3.76804 -1.75679,4.67417 l -5.34967,5.51148 c -0.0131,0.0131 -0.32503,1.2621 -0.35199,1.36674 0.19145,0.57753 0.37378,1.46464 0.65799,1.98509 0.39797,0.72816 1.20977,1.79286 1.75361,2.42747 1.13763,1.32671 2.50079,2.55629 3.71017,3.82591 2.29507,2.40844 4.56557,4.93222 6.98431,7.20946 1.37149,1.29142 3.26304,2.47701 4.51403,3.84018 0.0991,0.10782 1.74251,2.87222 1.92802,3.17743 0.0257,0.0432 0.19504,0.78564 0.21881,0.88156 1.95775,2.1492 3.23054,1.90027 6.09324,2.38782 0.66276,0.11297 1.45632,-0.27073 2.18487,-0.1316 2.06478,-1.38854 4.65753,-1.49319 6.74807,-2.79055 0.0527,-0.0329 1.60417,-1.36872 1.67591,-1.44284 0.29373,-0.30245 1.91217,-2.53727 2.5448,-3.07913 0.39758,-0.3401 3.83186,-1.37822 4.91201,-1.27477 2.97883,0.28461 7.28794,2.98399 9.77327,4.37609 0.0547,0.0305 0.61916,0.58506 0.70081,0.66276 l -0.0872,0.88156 -2.14999,2.95387 0.0428,0.92595 1.70922,2.20707 -0.3076,0.88157 c -0.67148,0.14111 -3.2135,-0.74006 -4.42683,-0.79753 -0.50579,0.22594 -1.53639,2.60028 -1.53639,2.60028 -0.18154,0.80229 1.14278,3.18298 1.57603,3.7514 0.12209,0.16014 2.00372,1.62478 2.80482,2.38465 l 0.39322,1.58713 c -0.45228,1.21849 -0.6366,2.64984 -0.83559,3.9258 0.46417,2.7188 8.11956,2.2158 9.68607,2.3466 1.9304,0.16133 1.82021,0.70398 4.25243,0.18075 2.3355,-0.50262 4.79825,-1.28428 6.97004,-2.28635 1.12692,0.28937 2.62843,0.41621 3.77042,0.35675 0.80664,-0.0417 1.70129,-0.40114 2.49881,-0.39321 0.0535,4e-4 2.47662,0.43482 2.49723,0.44395 0.69724,0.29966 2.60464,2.04059 2.89203,2.82543 0.27747,0.7567 0.36626,1.88561 0.52323,2.69225 l 1.06548,0.77692 0.55653,-0.68813 c 1.39567,-0.0971 5.02933,-0.17797 6.22483,-0.43285 0.35517,-0.0757 2.41161,-1.40796 2.41161,-1.40796 0.34525,-0.25567 0.58348,-0.78287 0.9212,-1.05756 0.89346,-0.72578 2.08142,-0.32067 3.11242,-0.4376 1.28032,-0.14508 4.8898,-2.64747 4.91359,-4.05107 l -0.48201,-1.50151 -2.10084,-2.82543 c -0.24655,-2.17061 -0.36349,-5.33495 0.0714,-8.59047 l -0.10148,0.20613 0.0286,-2.60505 c 1.62201,0.0563 2.97686,-0.002 3.44855,-0.33454 0.7789,-0.54781 3.51436,-5.26439 5.30681,-6.91931 2.16545,-1.99857 4.76371,-3.90637 6.33898,-6.35644 1.69251,-2.63318 2.86816,-5.28896 3.48659,-8.38275 0.14896,-0.74283 0.10496,-1.50865 0.3377,-2.24989 0.88153,-2.80443 3.30118,-4.53108 4.21916,-7.36959 0.89549,-2.76757 0.7393,-5.7793 2.08185,-8.38118 0.58506,-1.13366 1.75714,-1.79801 2.53208,-2.75725 0.3912,-0.48438 0.67144,-1.08253 1.06865,-1.57445 0.77015,-0.9537 1.70485,-1.80434 2.47501,-2.75725 0.4404,-0.54543 0.57118,-1.1622 0.9006,-1.7441 1.57724,-2.78381 2.58444,-6.09601 4.61231,-8.60632 2.55075,-3.1576 8.44455,-7.70692 10.01265,-10.74521 2.1159,-4.10021 0.7163,-4.47876 0.3378,-8.32568 0.4035,-0.46417 0.6739,-1.1622 1.0687,-1.57444 0.5089,-0.53076 2.5087,-1.66443 3.7133,-2.86825 l 0.2251,-1.07024 c -0.5149,-1.37982 -2.1194,-1.4139 -3.263,-1.96765 -0.4031,-0.45546 -0.771,-1.10989 -0.9561,-1.68861 -0.1344,-1.01554 0.7932,-1.64698 1.1812,-2.47503 0.5767,-1.23117 0.1502,-2.32916 0.3932,-3.54368 0.2176,-1.08729 1.8274,-2.67125 2.5321,-3.54369 0.8055,-0.99731 2.607,-5.35873 2.3625,-6.58158 -0.076,-0.37617 -0.6536,-1.36555 -0.9006,-1.68861 -0.8412,-0.37934 -2.0006,-0.65284 -2.5305,-1.46186 -0.3933,-1.02625 -0.3897,-2.29389 -0.2807,-3.37562 0.6815,-1.33027 1.6688,-1.68782 1.9122,-3.43112 0.1284,-0.9208 -1.0484,-6.98628 -1.6315,-7.59474 -0.6362,-0.66394 -1.4523,-1.1071 -2.0818,-1.85666 l 0,-1.01317 c 0.9026,-0.42651 1.7984,-0.89226 2.7573,-1.18123 0.3103,-0.56723 0.6719,-1.12097 1.0686,-1.63152 0.3933,-2.82186 -0.2557,-2.21896 -0.75,-4.44269 -0.7781,-3.50405 0.3231,-5.24933 -4.4252,-5.68258 -0.4151,0.44633 -0.8042,0.94459 -1.1257,1.46345 l -1.1813,0.16807 c -0.054,-0.74837 0.2973,-1.28151 0.3933,-1.96924 0.1097,-0.78723 -0.1309,-1.75598 0.1125,-2.53052 0.396,-1.26011 2.1651,-2.59356 2.5876,-3.93849 0.5842,-1.85825 -0.1315,-3.76922 0.9561,-5.6255 1.6506,-2.81592 4.1319,-2.71802 5.9077,-4.72492 0.9786,-1.10631 1.6875,-2.85515 2.3625,-4.16362 1.3176,-2.55272 4.1299,-6.35327 6.1883,-8.32568 0.5898,-0.56525 2.487,-1.62122 3.2631,-1.91217 0.8907,-0.38885 3.6654,-1.94546 4.1621,-2.53211 1.1159,-1.31877 0.876,-8.27771 2.7002,-11.81228 0.9279,-1.7984 3.208,-3.15205 4.6123,-4.55684 2.2975,-2.29706 2.5753,-3.86476 4.051,-6.46901 0.7798,-1.37585 2.2777,-2.44055 2.5322,-4.05107 0.1312,-0.83122 -0.2057,-1.32828 -0.3377,-2.08181 -0.4911,-2.80561 0.7709,-5.60528 0,-8.38117 -0.2727,-0.98225 -0.8955,-1.76907 -1.2939,-2.64469 -0.6821,-1.5015 -0.7923,-4.20446 -0.5073,-5.79357 0.7039,-3.92461 4.9143,-6.48922 5.3448,-9.00111 0.1708,-0.99532 -0.3278,-2.03822 -0.7309,-2.92533 -1.2966,-2.85239 -3.4561,-6.78137 -7.257,-5.11812 -1.5712,0.68692 -1.3184,1.06865 -3.3566,1.06865 -0.6024,0 -1.249,-0.006 -1.7632,-0.39481 -0.4641,-1.44957 0.1225,-3.08388 -0.5628,-4.44427 -6.3802,-4.48629 -4.2283,-7.15594 -6.2439,-13.38831 -0.5641,-1.7429 -2.4367,-4.24885 -3.3757,-5.90614 -0.3052,-0.53868 -0.4312,-1.23909 -0.7308,-1.80117 -0.07,-0.13081 -2.493,-3.48304 -2.7557,-3.82433 -3.2821,-4.26709 -12.3035,-1.31045 -13.7831,-6.01871 -0.6394,-2.03465 0.4225,-2.83217 0.168,-4.61393 -0.7314,-1.58079 -3.124,-1.79444 -4.3872,-2.86824 -0.4769,-0.40511 -0.8423,-0.95648 -1.3493,-1.35088 -0.6798,-0.52878 -1.6962,-0.95847 -2.307,-1.51896 l -0.3757,-0.52481 c -0.79006,-1.10591 -1.93794,-2.00729 -2.66215,-3.07436 -0.98617,-1.45355 -0.57435,-3.49454 -1.85666,-4.66942 -1.39889,-1.28231 -3.53724,-1.42818 -4.83742,-3.0379 -2.25858,-2.7965 -1.27671,-8.66856 -5.17521,-13.27574 -2.33903,-2.76479 -8.46209,-4.11607 -9.05827,-7.98796 -0.45469,-2.95664 2.16741,-4.32219 2.7002,-6.9193 0.31822,-1.55145 0.1186,-3.19288 0.4503,-4.7265 0.56566,-2.61575 2.08656,-5.04519 2.64467,-7.8183 l -0.39477,-0.95767 c -1.65014,-1.02228 -3.22333,-2.08856 -5.00555,-2.86825 -2.62602,-1.14872 -6.08649,-1.54788 -8.15761,-3.71334 -1.69653,-1.77382 -0.90535,-6.25297 0.16965,-8.2131 0.43087,-0.78564 1.22762,-1.58515 1.46188,-2.47503 0.42928,-1.63153 -0.5268,-2.95109 -0.67386,-4.49977 -0.20176,-2.11552 0.46655,-4.32735 0.16807,-6.41352 -0.0261,-0.18313 -2.48535,-7.62011 -2.53211,-7.70732 -0.71706,-1.34493 -2.10084,-2.45362 -2.92533,-3.71174 -0.086,-0.1316 -1.37823,-3.22222 -1.51895,-3.60077 -1.91533,-5.15737 -1.6438,-13.75537 -2.64309,-19.46411 -0.36706,-2.09767 -1.06866,-4.63097 -1.06866,-6.75124 0,-0.68575 0.394,-2.57016 0.78643,-3.14888 0.49072,-0.72301 1.4143,-1.27518 1.96924,-1.96925 0.80228,-1.00285 3.00461,-4.86087 3.20755,-6.02029 1.13882,-6.50667 -1.48803,-9.059 -3.03789,-14.79469 -0.18948,-0.70001 -0.49311,-1.40836 -0.56287,-2.13731 -0.27747,-2.91344 0.96639,-5.07414 1.34929,-7.8199 0.17402,-1.24544 -0.37974,-2.23878 -0.56128,-3.43111 -2.15911,-2.57017 -6.52608,-2.16506 -7.48217,-4.3317 -0.39084,-0.88593 -0.57476,-2.30063 -0.61836,-3.26305 -0.0741,-1.62557 0.39638,-3.1247 0.50578,-4.72491 0.20295,-2.97527 -0.52401,-6.08055 -0.16965,-9.05661 0.23982,-2.01324 0.80586,-3.93136 0.56287,-6.02031 -0.285,-2.44847 -1.9411,-4.39709 -2.36246,-6.80672 -0.1419,-0.80982 -0.22911,-1.41152 0.11257,-2.1928 1.10909,-2.53489 6.37903,-4.82639 6.86382,-7.59475 0.14389,-0.8225 -0.11258,-1.71714 -0.16965,-2.53212 -0.11139,-1.601401 -0.22832,-3.083094 -0.50579,-4.669427 -0.60885,-3.479671 -1.11107,-3.880415 0.39321,-7.425087 0.35635,-0.841128 2.48574,-4.026287 3.09498,-4.780407 0.19701,-0.244172 0.52878,-0.379539 0.73094,-0.619953 0.62827,-0.748169 0.97352,-1.692557 1.40637,-2.530518 0.64611,-1.251986 1.84874,-2.690662 2.75567,-3.770417 1.51459,-1.80236 4.16799,-3.201607 5.40035,-5.11813 0.59299,-0.922786 0.3948,-2.15395 0.3948,-3.207549 0.99414,-2.500798 4.32137,-2.658953 5.96161,-4.61234 1.35562,-1.61348 1.8155,-4.440693 2.86986,-6.300935 3.9183,-6.914345 7.50117,-13.82593 14.51404,-18.170304 1.32072,-0.589422 2.55075,-2.001356 3.88131,-2.755678 1.6863,-0.955486 3.7661,-1.374665 5.4559,-2.306958 2.5162,-1.388342 4.0518,-3.917482 5.7952,-6.075802 0.6365,-0.78811 1.4821,-1.58594 1.9803,-2.47503 0.5518,-0.7345 2.1369,-3.14948 2.4069,-3.9369 0.3231,-0.94181 0.3195,-2.27208 0.7309,-3.15046 0.058,-0.12407 2.8444,-3.76468 3.3201,-4.55686 1.1392,-1.89928 1.9784,-4.076609 3.4311,-5.7935588 1.165,-1.37685 2.7998,-2.47147 3.9386,-3.88141 3.8255,-4.73660981 7.9237,-8.29456 8.8314,-14.7962712 0.2826,-2.02295 0.3583,-5.6921 0.1126,-7.70573 -0.1356,-1.11227 -0.6231,-2.08619 -0.6755,-3.26305 -0.1117,-2.51388 0.8131,-3.46281 1.0132,-5.51292 0.1864,-1.91474 -0.6504,-4.17831 0,-6.02031 0.072,-0.20533 1.7005,-3.13977 1.8567,-3.37403 0.6771,-1.01554 1.9272,-1.62538 2.5305,-2.75725 0.8967,-1.68127 0.845,-4.44447 1.9692,-5.90615 0.9085,-1.18123 2.7145,-1.64698 3.5438,-2.9824 0.1791,-0.28857 0.2259,-0.66019 0.3931,-0.95609 0.3901,-0.68752 0.7643,-0.85559 0.7881,-1.79958 0.056,-2.2487 -3.8426,-4.60581 -4.8946,-6.91931 -0.5612,-1.23533 -0.6177,-4.66881 -1.1797,-6.63866 -1.5867,-1.40578 -4.263,-1.43809 -6.2454,-1.63152 -1.4444,-0.14091 -2.9388,-0.73074 -4.3872,-0.899 -1.5836,-0.18413 -3.2555,0.0902 -4.8391,-0.33773 -0.6386,-0.17262 -4.4288,-2.38167 -5.0056,-2.86982 -0.5474,-0.46298 -0.7967,-0.82567 -1.4634,-1.18123 -1.1083,-0.59101 -2.2444,-0.60964 -3.3375,-1.08768 -1.7164,-0.75076 -3.2449,-1.90879 -4.9311,-2.62408 -1.1892,-0.5044 -2.6891,-0.86531 -3.9385,-1.2938 -1.5926,-0.54622 -7.6086,-1.2928 -9.28171,-1.18123 -1.45515,0.0969 -3.35808,0.62708 -4.78198,0.28065 -1.71037,-0.41581 -3.2441,-2.49703 -5.00562,-2.92533 -1.07539,-0.26142 -2.42541,-0.13675 -3.5452,-0.33772 -2.49563,-0.44791 -5.02705,-1.63152 -7.59323,-1.63152 -1.13254,0 -2.42702,0.50619 -3.54522,0.45029 -2.93721,-0.14705 -5.49271,-1.93654 -8.43825,-2.1373 -6.28865,-0.4287 -12.61536,-0.30265 -18.90124,-0.73094 -1.93476,-0.13179 -3.87229,-0.70894 -5.79357,-0.78802 -1.53243,-1.42936 -3.65467,-1.41648 -5.51293,-1.85667 -1.23871,-0.29332 -2.44728,-1.24762 -3.65626,-1.57444 -1.16578,-0.31493 -2.34105,0.0183 -3.54527,-0.3948 -3.19565,-1.09561 -6.45513,-2.77609 -9.78755,-3.37403 -2.75131,-0.4939 -6.28944,0.48695 -8.6634,0 -2.80086,-0.57456 -5.0008,-1.76927 -7.59474,-2.86983 -0.53909,-0.22891 -1.2613,-0.71271 -1.79959,-0.84351 -2.93167,-0.7131 -8.06605,0.66672 -11.30808,0.28065 -0.637,-0.0757 -1.64501,-0.19444 -2.24989,-0.33773 -1.29222,-0.30601 -2.34502,-1.55343 -3.71175,-1.63152 -1.43016,-0.0817 -3.59839,0.99611 -5.23228,1.06865 -3.10014,0.13775 -4.26948,-1.18123 -6.2629,-1.18123 -0.97273,0 -1.89274,0.21683 -2.8508,0.28223 -1.28112,0.0872 -2.59633,-0.0583 -3.88141,0 -3.60433,0.16371 -7.7081,0.70874 -11.30649,0.28064 -2.84011,-0.33772 -4.77763,-2.606218 -7.76281,-2.755658 -0.27346,-0.0136 -0.52876,-0.014 -0.76899,0 z m -32.93328,11.071828 -0.55494,0.12208 -0.47249,0.59617 0.44078,0.95132 0.55494,0.11575 0.78801,-0.83559 -0.27905,-0.6342 -0.47725,-0.31553 z m -359.74194,13.00461 c -0.74679,0.052 -1.5027,0.0742 -2.25147,0.0555 -0.59656,1.01296 -2.04714,1.5253 -2.75567,2.53211 -1.09085,1.54987 -0.76799,5.67625 -1.40637,7.70733 -0.45684,1.45314 -2.3248,3.66061 -2.41954,4.16204 l 0.33772,1.06865 0.78802,0.50738 c 0.56445,-0.67227 1.44878,-1.24822 1.91215,-1.96925 0.79951,-1.24346 1.15665,-3.02521 1.72507,-4.40621 0.93824,-2.27843 2.33689,-4.68963 3.76883,-6.69416 0.42493,-0.59497 0.71548,-1.46028 0.86254,-2.17536 l -0.56128,-0.78802 z m -12.26417,23.7958 c -2.10025,0.45584 -2.91084,3.36572 -2.30696,5.2323 0.24893,0.76938 0.84569,1.38021 1.06865,2.86824 0.20256,1.34969 0.2087,2.917 1.12574,4.05105 l 0.78802,0.22516 0.78643,-0.50738 c 0.9987,-1.96548 -0.39322,-3.68024 -0.39322,-5.6255 0,-1.1957 0.46893,-2.31251 0.16966,-3.54368 -0.20217,-0.83023 -0.83162,-1.93595 -1.23832,-2.70019 z m 600.96789,30.3774 c -0.5506,-0.0248 -0.9505,0.50005 -1.2938,0.84351 -2.7676,2.76776 -1.5836,7.6873 1.4063,9.78913 l 0.899,-0.3948 c 1.1808,-1.83645 1.8789,-9.57587 -1.0115,-10.23784 z m -9.1137,27.2269211 -1.1813,0.28223 c -1.2494,1.14475 -1.9593,2.27703 -2.9824,3.54368 -1.2581,1.5579889 -4.5025,3.5541889 -5.1181,5.5129189 -0.1586,0.50481 -0.1023,1.83052 0,2.36246 0.8364,-0.0459 2.001,-0.52877 2.6431,-1.06865 0.8634,-0.72499 1.6675,-1.91335 2.4766,-2.75726 1.7539,-1.83011 5.0789,-3.6019489 5.3988,-6.4119289 l -0.2807,-1.01316 -0.956,-0.45029 z"
         id="path3392" /></clipPath></defs><sodipodi:namedview
     pagecolor="#ffffff"
     bordercolor="#666666"
     borderopacity="1"
     objecttolerance="10"
     gridtolerance="10"
     guidetolerance="10"
     inkscape:pageopacity="0"
     inkscape:pageshadow="2"
     inkscape:window-width="1366"
     inkscape:window-height="716"
     id="namedview21"
     showgrid="false"
     fit-margin-top="0"
     fit-margin-left="0"
     fit-margin-right="0"
     fit-margin-bottom="0"
     inkscape:zoom="0.6523189"
     inkscape:cx="391.92237"
     inkscape:cy="394.09208"
     inkscape:window-x="-8"
     inkscape:window-y="-8"
     inkscape:window-maximized="1"
     inkscape:current-layer="Слой_1"
     showguides="true"
     inkscape:guide-bbox="true" /><path
     inkscape:connector-curvature="0"
     style="fill:none;stroke:#377e3f;stroke-width:5;stroke-miterlimit:4;stroke-dasharray:none;stroke-opacity:1"
     clip-path="none"
     d="m 206.86861,59.300044 c -0.1859,0.17576 -0.35622,0.36014 -0.49218,0.56055 -0.76146,1.121773 -0.26363,5.548993 -0.5625,7.257813 -0.8328,4.76019 -6.46933,7.4723 -4.38672,13.33008 1.16954,1.4472 2.8532,1.40459 4.21875,2.36523 1.05517,0.74243 1.6661,1.78758 2.58789,2.64258 0.20156,0.6909 0.20156,1.67024 0,2.36133 l -0.61914,0.62109 c -4.15472,0.27707 -5.34105,-2.36528 -8.55078,-1.68945 -1.48248,0.31216 -1.91712,1.4616 -3.03711,2.19531 -0.54423,0.35655 -4.38484,1.37135 -5.11914,1.46094 -1.11939,0.13635 -2.34098,0.0646 -3.43164,0.50781 -1.50904,0.61301 -2.27961,2.24936 -3.93947,2.64258 -1.41728,0.33594 -5.09699,-0.5309 -6.29883,-1.34766 -2.60722,0.22554 -4.95005,1.99099 -7.59375,1.34766 -3.5526,-0.86452 -6.2266,-4.33008 -8.77734,-4.33008 -4.87613,0 -9.9257,3.9375 -14.51366,3.9375 -2.28754,0 -3.03107,-0.95583 -5.00586,-1.57617 -10.37717,-3.26107 -8.67841,-3.60679 -17.04492,3.15039 -1.33602,1.07896 -4.1702,2.58355 -5.11914,3.76953 -0.38668,0.48359 -0.69297,1.07395 -1.07032,1.576163 -0.51709,1.53798 1.06826,2.50085 0,4.16211 -0.43999,0.68495 -1.28858,1.1105 -1.96679,1.51758 -5.5159,3.30942 -9.88382,-2.18635 -13.67188,-0.8418 -1.05438,0.37418 -3.502728,3.94355 -4.162108,5.00586 -0.63422,1.02188 -1.80545,1.99142 -2.25,3.03907 l 0.28125,-0.56446 c -0.97749,0.6909 -2.29647,2.58211 -3.03711,3.54492 -0.71291,0.92675 -1.88228,1.68056 -2.64453,2.5879 -2.76618,3.29356 -5.8861,7.5038 -5.17578,12 0.16232,1.02742 0.59065,2.70496 1.46289,3.35742 1.70406,0.46377 3.61818,0.40497 5.17578,1.40625 0.22713,0.14587 0.81854,0.95305 0.99414,1.19922 0.6226,0.87133 0.97118,1.82328 1.22071,2.80273 l 652.230468,0 c -0.0124,-0.15565 -0.0288,-0.31937 -0.0352,-0.45898 -0.0741,-1.62557 0.39646,-3.1244 0.50586,-4.72461 0.20295,-2.97527 -0.52428,-6.08058 -0.16992,-9.05664 0.23982,-2.01324 0.80549,-3.93059 0.5625,-6.01954 -0.285,-2.44847 -1.93997,-4.39701 -2.36133,-6.80664 -0.1419,-0.80982 -0.23035,-1.41208 0.11133,-2.19336 1.10909,-2.53489 6.38044,-4.82734 6.86523,-7.5957 0.14389,-0.8225 -0.11285,-1.71627 -0.16992,-2.531243 -0.11139,-1.6014 -0.22839,-3.08359 -0.50586,-4.66992 -0.60885,-3.47967 -1.1117,-3.87916 0.39258,-7.42383 0.35635,-0.84113 2.48646,-4.02713 3.0957,-4.78125 0.19701,-0.24417 0.52831,-0.37873 0.73047,-0.61914 0.62827,-0.74817 0.9734,-1.69329 1.40625,-2.53125 0.64611,-1.25198 1.84893,-2.69172 2.75586,-3.77148 1.51459,-1.80236 4.16803,-3.20066 5.40039,-5.11719 0.59299,-0.92278 0.39453,-2.15344 0.39453,-3.20703 0.99414,-2.5008 4.3207,-2.6599 5.96094,-4.61328 0.84159,-1.00168 1.33996,-2.46343 1.84766,-3.878913 l -546.58399,0 c -0.55318,1.899373 -2.32873,1.936953 -3.6875,2.810553 -1.19867,0.77017 -3.01964,3.56997 -4.83984,2.25 -1.22836,-1.37206 -0.9197,-3.48215 -2.13672,-5.060553 l -9.24024,0 z m 11.15235,399.999996 c 0.0172,0.006 0.0336,0.0137 0.0508,0.0195 -0.0127,-0.006 -0.026,-0.0131 -0.0391,-0.0195 l -0.0117,0 z m 0.0508,0.0195 c 1.82997,0.86075 4.0771,2.00134 4.39453,4.22266 0.1207,0.84509 -0.0836,1.78833 0,2.64453 0.13893,1.4254 0.92243,2.67176 1.17969,4.05078 l -0.56055,0.84375 c -0.93845,-0.47091 -2.29232,-0.20774 -3.26367,0.0566 l -0.67383,0.73047 c -0.58585,1.68662 1.09241,2.93869 1.57422,4.38867 l -0.22461,1.06836 c -0.31643,0.25562 -0.63337,0.60827 -0.88672,0.97461 0.0703,-0.0654 0.14184,-0.13274 0.21094,-0.1875 l -0.50586,0.67578 c 0.0807,-0.16153 0.18251,-0.32574 0.29492,-0.48828 -0.34763,0.32302 -0.69093,0.75363 -0.85742,1.16211 -0.09,0.4495 0.54512,3.84183 0.78711,4.16211 2.35532,1.10908 5.38985,-1.46306 7.59375,0 l 0.56445,0.78906 c -0.0741,0.6683 -0.14957,1.62807 -0.39453,2.25 -1.37823,3.49889 -8.31486,4.43416 -7.14453,8.1582 0.41779,1.32909 1.48486,2.09642 1.80078,3.1504 2.77272,2.63913 0.67835,3.25553 1.01172,5.45507 0.29511,1.94705 2.5615,1.66977 3.26172,3.32032 0.45703,1.07698 0.003,2.35315 0.67578,3.31835 2.68174,1.73339 5.91472,-3.42494 10.08984,-2.32617 0.88374,0.23268 1.58252,0.61791 2.00586,1.48243 -0.0692,1.8079 -1.56823,1.80567 -2.53125,2.8125 -1.47395,1.54115 -2.54043,5.91102 0,7.08789 1.8537,0.15737 4.93558,-3.47263 9.11328,-0.16797 l 0.22461,1.06836 c -0.54522,1.56731 -1.69876,2.63932 -2.64453,3.9375 -0.53076,4.23935 2.09269,3.6654 3.99414,6.01953 0.71826,0.88949 1.00957,1.95191 1.57422,2.86914 0.85778,1.39409 2.05778,2.38357 2.47656,4.10547 0.21268,0.87475 0.12438,1.6171 -0.0273,2.3457 l 532.0957,0 c 0.32348,-0.3452 0.64952,-0.68721 0.94336,-1.05078 0.4404,-0.54543 0.57097,-1.16224 0.90039,-1.74414 1.57724,-2.78381 2.58541,-6.09711 4.61328,-8.60742 2.55077,-3.1576 8.44357,-7.70585 10.01167,-10.74414 2.1159,-4.10021 0.7164,-4.47926 0.3379,-8.32618 0.4035,-0.46417 0.6736,-1.16197 1.0684,-1.57422 0.5089,-0.53075 2.5102,-1.66532 3.7148,-2.86914 l 0.2247,-1.07031 c -0.5149,-1.37982 -2.1201,-1.41304 -3.2637,-1.96679 -0.4031,-0.45547 -0.77,-1.11074 -0.9551,-1.68946 -0.1344,-1.01554 0.7917,-1.64656 1.1797,-2.47461 0.5767,-1.23117 0.1515,-2.32845 0.3945,-3.54297 0.2176,-1.08729 1.8266,-2.67248 2.5313,-3.54492 0.8055,-0.99731 2.6078,-5.35723 2.3633,-6.58008 -0.076,-0.37617 -0.6534,-1.36639 -0.9004,-1.68945 -0.8412,-0.37934 -2.0014,-0.65192 -2.5313,-1.46094 -0.3933,-1.02625 -0.3902,-2.29522 -0.2812,-3.37695 0.6815,-1.33027 1.6687,-1.68639 1.9121,-3.42969 0.1284,-0.9208 -1.0478,-6.98724 -1.6309,-7.5957 -0.6362,-0.66394 -1.4525,-1.10786 -2.082,-1.85742 l 0,-1.01172 c 0.9026,-0.42651 1.7989,-0.89267 2.7578,-1.18164 0.3103,-0.56723 0.6717,-1.12031 1.0684,-1.63086 0.054,-0.39019 0.086,-0.70471 0.1035,-0.98047 l -587.7012,0 0.18555,0.0801 c -0.0589,-0.0186 -0.11529,-0.0408 -0.17383,-0.0605 z"
     id="rect13-5" /><g
     id="g3"
     transform="translate(-0.62761759,-0.7000234)"
     clip-path="url(#clipPath3390)"><defs
       id="defs5"><path
         id="Meer"
         d="m 806.6,25.8 c 0.6,-0.7 2.1,-3.2 2.4,-3.9 0.3,-0.9 0.3,-2.3 0.7,-3.2 0.1,-0.1 2.8,-3.8 3.3,-4.6 1.1,-1.9 2,-4.1 3.4,-5.8 1.2,-1.4 2.8,-2.5 3.9,-3.9 3.8,-4.7 7.9,-8.3 8.8,-14.8 0.3,-2 0.4,-5.7 0.1,-7.7 -0.1,-1.1 -0.6,-2.1 -0.7,-3.3 -0.1,-2.5 0.8,-3.5 1,-5.5 0.2,-1.9 -0.7,-4.2 0,-6 0.1,-0.2 1.7,-3.1 1.9,-3.4 0.7,-1 1.9,-1.6 2.5,-2.8 0.9,-1.7 0.8,-4.4 2,-5.9 0.9,-1.2 2.7,-1.6 3.5,-3 0.2,-0.3 0.2,-0.7 0.4,-1 0.4,-0.7 0.8,-0.9 0.8,-1.8 0.1,-2.2 -3.8,-4.6 -4.9,-6.9 -0.6,-1.2 -0.6,-4.7 -1.2,-6.6 -1.6,-1.4 -4.3,-1.4 -6.2,-1.6 -1.4,-0.1 -2.9,-0.7 -4.4,-0.9 -1.6,-0.2 -3.3,0.1 -4.8,-0.3 -0.6,-0.2 -4.4,-2.4 -5,-2.9 -0.5,-0.5 -0.8,-0.8 -1.5,-1.2 -1.1,-0.6 -2.2,-0.6 -3.3,-1.1 -1.7,-0.8 -3.2,-1.9 -4.9,-2.6 -1.2,-0.5 -2.7,-0.9 -3.9,-1.3 -1.6,-0.5 -7.6,-1.3 -9.3,-1.2 -1.5,0.1 -3.4,0.6 -4.8,0.3 -1.7,-0.4 -3.2,-2.5 -5,-2.9 -1.1,-0.3 -2.4,-0.1 -3.5,-0.3 -2.5,-0.4 -5,-1.6 -7.6,-1.6 -1.1,0 -2.4,0.5 -3.5,0.5 -2.9,-0.1 -5.5,-1.9 -8.4,-2.1 -6.3,-0.4 -12.6,-0.3 -18.9,-0.7 -1.9,-0.1 -3.9,-0.7 -5.8,-0.8 -1.5,-1.4 -3.7,-1.4 -5.5,-1.9 -1.2,-0.3 -2.4,-1.2 -3.7,-1.6 -1.2,-0.3 -2.3,0 -3.5,-0.4 -3.2,-1.1 -6.5,-2.8 -9.8,-3.4 -2.8,-0.5 -6.3,0.5 -8.7,0 -2.8,-0.6 -5,-1.8 -7.6,-2.9 -0.5,-0.2 -1.3,-0.7 -1.8,-0.8 -2.9,-0.7 -8.1,0.7 -11.3,0.3 -0.6,-0.1 -1.6,-0.2 -2.3,-0.3 -1.3,-0.3 -2.3,-1.6 -3.7,-1.6 -1.4,-0.1 -3.6,1 -5.2,1.1 -3.1,0.1 -4.3,-1.2 -6.3,-1.2 -1,0 -1.9,0.2 -2.9,0.3 -1.3,0.1 -2.6,-0.1 -3.9,0 -3.6,0.2 -7.7,0.7 -11.3,0.3 -2.8,-0.3 -4.8,-2.6 -7.8,-2.8 -2.2,-0.1 -3.2,0.7 -5,1.6 -3.8,1.8 -7.6,1.9 -11.6,2.7 -1.2,0.2 -2.3,0.2 -3.4,0.6 -0.9,0.3 -1.8,0.8 -2.4,1.6 -0.7,1.7 -0.1,2.5 1,3.8 1,1.2 1.6,2.6 2.9,3.7 1.4,1.2 3.2,2.1 4.6,3.3 1,0.8 1.6,1.8 3,2.2 2.9,0.9 6.6,-0.6 9.1,0.6 2.3,1.1 7,6.6 9.2,6.9 1.7,0.2 4.3,-1.8 7.2,-1.9 0.8,0 1.9,-0.1 2.6,0 1.5,0.2 2.1,1.4 4,1.2 0.3,0 0.7,-0.2 1.1,-0.3 0.3,-0.6 2.6,-2.2 3.2,-2.5 0.8,-0.3 1.8,-0.9 2.7,-0.8 0.8,0 2.8,1.3 3.3,2 0.4,0.5 0.6,1.1 1,1.6 0.6,0.7 1.4,1.3 2,1.9 l 0,0.8 c -0.9,-0.8 -1.9,-1.9 -3,-2.4 -2.2,-1 -5.3,-1.5 -7.4,0 -1.1,0.7 -1.6,1.8 -2.5,2.7 -0.5,0.5 -1.1,0.7 -1.8,0.8 -3.7,0.8 -4.6,-2.7 -7.3,-3 -3.4,-0.3 -3.9,2.6 -6.7,2.4 -3.5,-0.3 -10,-6.7 -14.9,-5.9 -1,1.8 -0.6,3.6 -1.2,5.4 -0.3,0.8 -1.2,1.5 -1.5,2.4 -0.3,1 -0.4,2 -0.9,3 -0.8,0.6 -2.7,1.4 -3.5,0.7 l 0.1,-1.1 c 1,-1.2 2.4,-2 3,-3.5 1.2,-3 1,-7 -2.6,-8 -1.4,-0.4 -2.8,-0.5 -4.1,-1.2 -1.8,-1 -4,-3.2 -6.1,-3.2 -2.8,0 -2.9,2.7 -6.5,3.1 -0.6,0.1 -1.4,0.1 -2,0 -0.5,-0.2 -6.2,-4.9 -8,-5.7 -1.6,-0.8 -3.5,-0.6 -5.1,-1.4 -3.2,-1.7 -6.8,-3 -10.2,-4.2 -1.4,-0.5 -2.9,-0.6 -4.3,-0.9 -1.3,-0.3 -2.6,-1.1 -3.8,-1.5 -1.5,-0.4 -3.4,0.1 -5,0 -1.9,-0.1 -3.8,-0.8 -5.7,-0.9 -2,-0.1 -3.9,0.6 -5.9,0.6 -2.1,0 -4.4,-0.8 -6.5,-1.1 -1.2,-0.2 -2.4,-0.2 -3.5,-0.4 -1.5,-0.3 -2.9,-0.8 -4.5,-0.8 -2,0 -4,0.4 -6,0.5 -4.5,0.2 -9,0.4 -13.4,-0.8 -1,-0.3 -3.6,-0.8 -4.6,-0.6 -1.6,0.4 -3.7,1.8 -5.6,2.3 -1.6,0.4 -3.3,0.2 -4.9,0.4 -0.8,0.1 -1.5,0.3 -2.3,0.4 -1.6,0.2 -3.1,-0.2 -4.7,-0.2 -1.6,0 -14.3,2.1 -15.8,2.6 -2.8,1 -3.4,3.9 -5.4,5.9 -2.3,2.3 -13.3,6.4 -8.8,10.7 0.9,0.9 2.4,1.2 3.4,1.8 0.5,0.3 0.9,0.9 1.4,1.2 1.4,4.1 -1.4,5.5 -1.7,8 -0.2,2 0.7,2.4 1.6,3.7 1.8,2.7 2.6,9.5 3.7,12.8 l 0.1,-0.2 c -0.4,2.5 -0.2,8.8 -3.2,10 l -0.9,-0.4 c -0.4,-1 0.2,-3 0.4,-4.2 0.1,-1 -0.1,-2 0,-3 0.2,-1.6 0.6,-3.1 0.4,-4.8 -0.1,-0.7 -0.4,-1.4 -0.5,-2.1 -0.4,-2.4 -0.5,-4.9 -2.8,-6.4 -1.3,-0.9 -3,-0.5 -4.4,-0.9 -0.3,-0.1 -0.6,-0.4 -0.9,-0.4 -0.3,-0.1 -0.6,0 -0.9,-0.1 -1.1,-0.2 -2.1,-0.7 -3.2,-0.8 -1.5,-0.3 -2.8,-0.4 -4.3,-0.9 -2.4,-0.8 -4.3,-3 -6.7,-3.9 -2.4,-0.9 -4.7,-0.4 -7.1,-0.5 -1.9,-0.1 -5.4,-1.2 -7.4,-1.8 -2.5,-0.8 -5.4,-2.8 -8,-3.8 -4,-1.5 -7.7,-0.9 -11,-2.1 -2.2,-0.8 -4,-2.1 -6.1,-3 -2.2,-1 -4.6,-1.6 -6.9,-2.3 -1.5,-0.4 -2.8,-0.6 -4.3,-0.9 -1.4,-0.3 -2.7,-0.9 -4.2,-1.1 -0.8,-0.1 -1.6,0 -2.5,-0.1 -2,-0.3 -3.8,-1.9 -5.7,-2.1 -0.8,-0.1 -1.7,0.1 -2.5,0.2 -1.7,0.1 -4,-0.3 -5.6,-0.9 -2.1,-0.7 -4.1,-2.2 -6.2,-3 -2.2,-0.8 -4.6,-0.2 -6.9,-1 -1.2,-0.4 -2.3,-1.4 -3.5,-1.7 -1.9,-0.5 -4.8,0.6 -6.9,0.6 -2.5,0 -5.2,-1.4 -8,-1.2 -1.1,0.1 -2,0.7 -3,0.9 -2.1,0.5 -4.9,0.9 -7.1,0.6 -4.6,-0.8 -8.4,-4.6 -10.9,-4.9 -2.3,-0.3 -4.7,0.1 -7,0.1 -3.6,0 -7.4,-0.6 -11,-0.7 -1.3,-0.1 -2.7,0.2 -4,0 -2.1,-0.3 -4.8,-1.7 -7,-2.3 -1.9,-0.5 -4.1,-0.1 -6,-0.5 -1.3,-0.3 -2.4,-1.4 -3.8,-1.5 -1.1,-0.1 -2.3,0.2 -3.4,0.3 -2.5,0.2 -5.4,0.2 -7.9,0 -2.8,-0.2 -5,-1.6 -7.9,-1.5 -0.9,0 -1.3,0.3 -2.1,0.6 -1,0.4 -2,0.5 -2.9,1 -2.6,1.4 -4.6,5.2 -6.9,6.2 -1.9,0.8 -4.6,0.2 -6.4,1.4 -3.3,2.2 -1.5,9.7 -2.6,13.1 -0.9,2.6 -2.5,4.4 -3.8,6.7 -1,1.7 -1.6,3.6 -2.5,5.3 -1.6,3.1 -3.9,6.3 -4.6,9.8 -0.5,2.5 -0.3,9.7 -0.4,12.7 -0.2,3.7 -1.2,7.4 -2.1,11 -0.2,1 -0.7,2.1 -0.8,3.2 -0.7,4.7 -1.8,14.4 -3.9,18.3 -2.5,4.6 -9,4.2 -12.1,6.2 -0.8,0.6 -1.9,1.9 -2.6,2.6 l -0.3,0 c -0.5,1.1 -1.8,3.8 -2,4.7 -0.2,1.2 0.1,2.5 0,3.7 -0.1,1.9 -1.6,10.4 -2.4,11.9 -1.4,2.5 -5,3.2 -7,4.8 -0.7,0.6 -1.2,1.4 -1.8,2.1 -1.7,2 -2.7,3.1 -3.3,5.9 l 0.3,1.1 0.7,0.6 c 2.3,0.8 6.1,-2.7 8.2,-1.2 l 0.3,0.6 c 0.2,0.5 0.1,0.6 0.1,1.1 -0.3,3.3 -2.1,10 -0.7,13.1 0.6,1.4 1.8,1.9 3.1,2.2 1.1,0.3 2.3,0.6 3.3,-0.1 1.3,-3 -4.2,-5 -2.1,-8.1 0.5,-0.4 1.1,-0.7 1.7,-1 2.9,0.2 4.9,1.8 6.4,4.2 l -0.6,-0.5 c 2.7,2.3 8.6,12.2 7.7,15.7 -0.5,2 -2.3,2 -3.7,2.9 -1.2,0.8 -3,3.6 -4.8,2.2 -1.7,-1.9 -0.5,-5.1 -4.1,-6.5 -2.2,-0.9 -6.4,-0.1 -7.8,2 -0.8,1.1 -0.3,5.5 -0.6,7.3 -0.8,4.8 -6.5,7.5 -4.4,13.3 1.2,1.4 2.9,1.4 4.2,2.4 1.1,0.7 1.7,1.8 2.6,2.6 0.2,0.7 0.2,1.7 0,2.4 l -0.6,0.6 c -4.2,0.3 -5.3,-2.4 -8.6,-1.7 -1.5,0.3 -1.9,1.5 -3,2.2 -0.5,0.4 -4.4,1.4 -5.1,1.5 -1.1,0.1 -2.3,0.1 -3.4,0.5 -1.5,0.6 -2.3,2.3 -3.9,2.6 -1.4,0.3 -5.1,-0.5 -6.3,-1.4 -2.6,0.2 -5,2 -7.6,1.4 -3.6,-0.9 -6.2,-4.3 -8.8,-4.3 -4.9,0 -9.9,3.9 -14.5,3.9 -2.3,0 -3,-1 -5,-1.6 -10.4,-3.3 -8.7,-3.6 -17,3.2 -1.3,1.1 -4.2,2.6 -5.1,3.8 -0.4,0.5 -0.7,1.1 -1.1,1.6 -0.5,1.5 1.1,2.5 0,4.2 -0.4,0.7 -1.3,1.1 -2,1.5 -5.5,3.3 -9.9,-2.2 -13.7,-0.8 -1.1,0.4 -3.5,3.9 -4.2,5 -0.6,1 -1.8,2 -2.3,3 l 0.3,-0.6 c -1,0.7 -2.3,2.6 -3,3.5 -0.7,0.9 -1.9,1.7 -2.6,2.6 -2.8,3.3 -5.9,7.5 -5.2,12 0.2,1 0.6,2.7 1.5,3.4 1.7,0.5 3.6,0.4 5.2,1.4 0.2,0.1 0.8,1 1,1.2 1.8,2.5 1.4,5.7 2.6,8.4 0.8,1.7 2.3,4.2 3.5,5.6 0.6,0.7 1.4,1.4 1.9,2.1 0.5,0.7 1,2.8 1.1,3.7 0,0.2 0.1,0.2 0.1,0.4 0,3.1 -2.5,7.7 -4.1,10.4 -0.7,1.1 -1.6,2 -2,3.3 l 0.3,-0.5 c -0.4,1.2 -1.4,2.2 -1.7,3.5 -0.5,1.7 -1.2,3.2 -1.7,4.9 -0.7,2 -1.1,4 -1.8,6 -0.7,2.1 -2.1,4.1 -2.9,6.2 -0.8,2.2 -1.1,4.7 -2.3,6.8 -1.5,2.9 -6.6,6.5 -7.3,9.9 -0.7,3.8 1.9,6.2 2.3,9.2 0.2,1.7 -0.4,10.4 -1,11.8 -1.1,2.5 -2.7,2.4 -4.4,3.7 -1.1,0.8 -2.5,2.1 -3.4,3.2 -1.2,1.5 -2,3.2 -3.6,4.4 -1.2,1 -2.9,1.5 -4.1,2.4 -0.8,0.6 -1.9,2 -2.5,2.8 -0.4,0.5 -0.5,1.3 -0.9,1.7 -0.2,0.2 -0.5,0.4 -0.7,0.6 -0.4,0.5 -0.5,1.2 -0.8,1.7 -0.9,1.4 -1.9,2.4 -2.1,4.2 -0.1,1.1 0.2,2.5 0.4,3.5 0.7,3.8 2.8,7.2 3.6,10.9 0.7,3.1 0,6.6 0.1,9.8 0,1.4 0.2,3.3 0.5,4.7 0.2,0.7 0.5,1.3 0.7,2 1.8,1.4 3.6,4.9 5.2,6.6 1.5,1.5 3.8,2.4 5.4,3.8 1.6,1.4 3.4,2.8 5.1,4.1 0.2,0.2 0.6,0.3 0.8,0.4 0.4,0.4 0.8,1 1.2,1.4 3.3,3 4.3,5.6 6.4,9.5 1.3,2.4 3.6,4.5 5.3,6.5 1.6,1.9 2.8,4.4 3.9,6.6 0.5,0.9 0.6,2 1.1,2.9 0.3,0.6 0.7,1.1 0.9,1.7 0.6,1.9 1.6,4 2,5.9 0.9,4.4 -0.4,10.9 2.5,14.6 2.4,3 14,7.3 18,9.5 5,2.7 4.1,8.2 6.1,10.7 1.8,2.3 5.6,2.4 7.9,3.9 0.2,0.1 1.4,1.6 1.6,1.8 2.1,2.8 0.9,3.9 1.9,6.4 0.5,1.4 1.2,2.9 1.8,4.3 0.3,0.7 0.7,1.5 0.8,2.3 0.1,1.8 -1.2,3.1 -2,4.6 -0.6,1.2 -0.9,2.5 -1.6,3.7 -1.3,2.3 -2.9,3.7 -1.7,6.5 0.4,1 0.7,1.7 1.4,2.5 1.1,1.3 2.1,2.5 3.8,3.2 1.3,0.6 6.3,2.7 7.5,2.5 1.1,-0.3 2.2,-0.6 3.3,-0.7 1.7,-0.1 4.4,0.7 5.8,-0.2 1.3,-0.8 2.1,-4 5.6,-3.5 0.8,0.1 3,2.2 3.9,2.6 0.9,0.4 2.1,0.4 2.8,1.1 0.5,0.5 0.4,1 1.2,1.3 l 0.7,0 c 0.9,0 2.4,-1.7 3.4,-2.2 1.7,-0.9 3.6,-0.5 5.2,-1.3 1.2,-1.4 1,-4.1 1.6,-5 2.7,0.2 4,3.5 6.6,3.9 1.9,0.3 4,-0.3 5.7,0.8 7.2,-0.7 5.7,-4.6 9.5,-6 0.5,0.1 1.3,0.6 1.6,1 0.3,1.4 -0.4,3.5 0.3,4.7 0.2,0.5 0.9,1 1.2,1.5 0.5,0.7 2.5,4.6 2.6,5.2 0.2,2.2 -1.3,2.3 -1.6,3.7 0.5,0.9 0.8,2.1 0.6,3.2 -0.5,0.8 -1.4,1.2 -2,2 0.2,2.6 2,4.5 2.3,6.9 0.3,3.3 -2.1,10.1 -1.3,12.9 0.7,0.7 1.5,1.4 2.5,1.5 l 0.4,0.9 c -0.6,1.1 -1.4,2 -1.8,3.1 -0.3,0.7 -0.2,1.7 0.3,2.3 0.4,0.6 1.2,1 1.9,1.1 2.9,0.3 3.3,-1.7 5.4,-2.5 l 0.3,-0.1 0.9,0.4 c 2,2.7 -4.8,6.8 -1.6,10.2 0.9,0.4 1.7,0.8 2.6,1.1 l -0.4,-0.2 c 1.9,0.9 4.3,2 4.6,4.3 0.1,0.8 -0.1,1.8 0,2.6 0.1,1.4 0.9,2.7 1.2,4.1 l -0.6,0.8 c -0.9,-0.5 -2.3,-0.2 -3.3,0.1 l -0.7,0.7 c -0.6,1.7 1.1,2.9 1.6,4.4 l -0.2,1.1 c -0.5,0.4 -0.9,0.9 -1.2,1.5 l 0.5,-0.7 c -0.4,0.3 -0.9,0.9 -1.1,1.4 -0.1,0.4 0.5,3.8 0.8,4.2 2.4,1.1 5.4,-1.5 7.6,0 l 0.6,0.8 c -0.1,0.7 -0.1,1.6 -0.4,2.3 -1.4,3.5 -8.3,4.4 -7.1,8.2 0.4,1.3 1.5,2.1 1.8,3.2 2.8,2.6 0.7,3.3 1,5.5 0.3,1.9 2.6,1.7 3.3,3.3 0.5,1.1 0,2.4 0.7,3.3 2.7,1.7 5.9,-3.4 10.1,-2.3 0.9,0.2 1.6,0.6 2,1.5 -0.1,1.8 -1.6,1.8 -2.5,2.8 -1.5,1.5 -2.5,5.9 0,7.1 1.9,0.2 4.9,-3.5 9.1,-0.2 l 0.2,1.1 c -0.5,1.6 -1.7,2.6 -2.6,3.9 -0.5,4.2 2.1,3.7 4,6 0.7,0.9 1,2 1.6,2.9 0.9,1.4 2.1,2.4 2.5,4.1 0.7,2.7 -1.5,4.1 0.1,7.7 l 0.8,0.6 1.1,0 c 1.4,-1.2 5.5,-2.5 6.3,0 -0.7,3.4 -3,3.8 -1.8,8.2 1,3.8 4.3,2.9 5.8,7 1,2.8 -2.3,8.5 1.5,10.1 2.8,0.6 4.2,-3.9 6.9,-3 l 0.6,0.7 c 0.9,3.2 -2.6,5.1 -1.2,9.6 1.6,5.1 4.5,3.6 5,5.6 0,2.3 -1.7,5.2 -0.9,7.4 1.2,3.4 7.9,3 9.5,7.7 1.1,3.2 -0.1,6.3 -0.2,9.5 0,0.9 0.4,2.2 1,2.9 1.1,1.1 5.3,1.3 7,2.3 1.4,0.8 2.5,1.9 3.6,3 0.1,0.7 0.4,1.4 0.5,2.1 0.2,1.1 0.3,2.4 0.4,3.5 0.1,1.5 -0.1,3 0.1,4.5 0,0.4 0.1,1.1 0.3,1.5 0.1,0.2 2.9,3.7 3.4,4.4 1.9,2.8 3.6,5.9 5.7,8.7 2.3,3 5.1,5.4 7.5,8.3 2,2.4 3.7,5.3 5.2,8 0.1,0.3 0.2,0.7 0.3,0.9 0.4,0.7 1.2,1.4 1.6,2.1 0.9,1.3 1.1,2.4 1.6,3.4 0,0 1.2,0.2 2,0.3 1.3,0.1 2.8,0.5 4.1,0.5 1.1,0 2.3,-0.2 3.4,-0.3 1.6,-0.1 3.1,-0.1 4.7,-0.2 1.6,-0.2 3.3,-0.8 4.9,-0.6 0.1,0 0.9,0.4 1,0.4 0.1,0 0.1,0.1 0.2,0.1 1.6,0.5 3.4,0.9 4.9,1.5 1.1,0.5 1.5,1.9 2.3,2.7 0.9,0.9 2,1.9 3,2.7 1.7,1.4 2.7,0.7 4.6,1 0,0 2.1,1 2.2,1.1 1.1,1.5 2.1,3.7 2.2,5.6 0,0 3.9,-0.7 5.1,-0.6 0.4,0 3,1.3 3.3,1.4 1.8,0.9 5.4,2.9 7.5,2.8 0,0 1.9,-0.3 2.2,-0.4 1.3,-0.7 2.9,-1.9 4.2,-2.7 0,0 0.9,-0.2 1,-0.2 1.3,1.3 5.3,4 6.7,4.7 1.1,0.5 3.4,0.7 4.7,1.4 1.9,1 4.2,2.9 6.2,3.6 0,0 2.2,0.5 2.6,0.5 0.3,0 3,-1 3.5,-1.2 3,-0.8 6,-0.3 9,0.3 2.1,0.4 4.1,1.3 6.1,2 3,1.2 6,2.4 9,3.6 0.3,0.1 0.6,0.5 0.9,0.6 0.1,0 0.6,0.1 0.8,0.1 2.4,0.6 4.9,1.1 7.3,1.9 2.4,0.7 4.6,1.9 7,2.6 0.2,0.1 6.1,0.8 6.1,0.8 0.7,0 4.5,-1.2 5.3,-1.6 0.8,-0.4 3.3,-1.8 3.3,-1.8 0.6,-0.4 1.4,-0.9 2,-1.4 0.9,-0.8 4.6,-4.2 5.5,-5.2 0.3,-0.3 0.6,-0.9 0.8,-1.2 -0.4,-2.1 -0.9,-4.1 -1.3,-6.2 -0.3,-1.7 -2,-10.1 -2,-10.1 0,-0.1 -0.1,-2.7 0,-2.8 0.2,-1.7 1.1,-2.1 1.5,-3.1 0.7,-1.7 1.5,-5.1 0.7,-6.7 -0.4,-0.8 -1.3,-2.3 -1.9,-3 -0.7,-0.8 -2.8,-3.1 -3.1,-3.4 -0.7,-0.8 -3.9,-3.4 -4.6,-4.1 -0.6,-0.7 -1.6,-1.9 -2.1,-2.7 -0.4,-0.6 -0.5,-1.4 -0.8,-2.1 -1,-1.9 -2.6,-3.3 -4.1,-4.8 l -0.6,-0.6 c -1.2,-0.1 -5.8,-2.7 -7,-3.5 -0.7,-0.5 -2.2,-2.4 -2.5,-3.3 -0.1,-3.5 3.4,-4.8 0.6,-8.2 l -5.9,-2.8 c -0.6,-0.2 -0.9,-0.2 -1.5,-0.4 -2.6,-0.7 -5.2,-1.2 -7.9,-1.7 -0.2,0 -1,-0.5 -1.1,-0.8 l 0,-1.2 c 0.4,-1.8 2.6,-7.3 3.4,-8.8 1,-2 2.1,-4.2 3.3,-6.2 0.5,-0.9 1.9,-2.6 3,-2.8 l 2.1,0.2 c 0.6,0.5 3.3,2.8 4.1,2.5 l 1.3,-0.7 c 0.7,-1.7 2,-4.6 3.1,-6 1.2,-1.5 3,-2.9 4.5,-4.1 0.5,-0.4 1,-0.8 1.5,-1.1 0.1,-0.1 0.2,-0.1 0.3,-0.2 0.6,-0.9 1.7,-2.9 1.4,-4.1 -0.8,-1.2 -2,-2.8 -2.4,-4.2 0,-0.1 0,-2.1 0,-2.3 1.2,-1.5 3.2,-4.3 3.1,-6.4 l -1.1,-2.7 0.6,-1.9 c 1.4,-1.4 2.7,-1.8 4.6,-2.3 0.9,-0.2 3.6,-0.9 4.7,-0.5 0.4,0.2 0.6,0.4 1.1,0.6 l 2.1,1.2 c 1.8,1.3 3.6,2.9 5.3,4.3 0.3,0.2 0.8,0.3 1.1,0.5 l 5.3,3.5 0.2,0 c 1.1,0.5 2.2,0.9 3.2,1.5 0.3,0.1 2.1,1.3 2.2,1.4 2.8,0.8 5.8,0.8 8.6,1.6 0,0 3.5,1.9 3.6,1.9 0,0 1.4,1.6 1.4,1.6 0.7,0.9 1.2,1.9 1.6,3 0.2,0.4 0.3,1 0.6,1.3 0.6,0.9 1.4,1.8 2,2.6 l 2.3,0.4 c 0.3,0 0.5,-0.1 0.8,-0.2 l 1.6,-0.4 c 1.8,-0.7 4.9,-2.7 6.8,-3 2,-0.3 4.1,-0.2 6,-0.4 1.4,-0.2 3.1,-0.4 4.5,-0.8 0.6,-0.1 1.2,-0.5 1.8,-0.7 1.4,-0.4 2.9,-0.9 4.3,-1.2 1.3,-0.3 2.7,0 4,0 1.5,0 4.8,0.2 6.1,0.1 2.3,-0.2 5.3,-1.1 7.6,-1.5 3.1,-0.5 6.1,-0.2 9.2,0 0.6,0 1.6,-0.2 2.3,-0.2 2.2,0.2 5.8,2 7.6,3.1 0.5,0.3 2.3,2.2 2.4,2.2 0.8,0.5 1.9,0.8 2.8,1.2 l 0.5,0 0.9,-0.7 c 0.4,-1.5 -0.5,-2.7 0.3,-4.7 0.8,-0.7 1.7,-1.7 2.1,-2.7 l -1.6,-4.5 0.6,-2.6 c 0.4,-0.9 2,-2.8 2.6,-3.6 l 1.7,-2.1 c 0,0 3.1,-1.4 3.2,-1.5 0.3,-0.1 2.4,0 2.4,0 0.8,0.1 1.6,0.5 2.2,0.9 l 1.5,0.9 c 1.7,1.2 4.8,4.5 7.1,4.3 0,0 1.8,-0.3 2.1,-0.4 0.5,-0.2 0.7,-0.4 1.2,-0.7 0.5,-0.3 3.7,-2 4,-2.6 l 5,-8.2 1.7,-1.7 c 1.4,-1 3.4,-1.8 5.1,-2.1 0,0 2.9,-0.2 3.3,0.1 l 0.7,0.8 c 0.1,0.3 0.1,0.7 0.2,1 0.2,1.8 0.2,3.9 0.5,5.6 l 0.8,1.6 c 0.5,0.6 2.8,1.2 3.6,0.9 1.1,-0.4 2.6,-1.3 3.6,-1.9 0.1,-0.1 3.1,-2.3 4.1,-3.1 1,-0.8 1.8,-1.8 2.9,-2.6 2.1,-1.7 4.5,-3 6.4,-5 0,0 2.8,-1.2 2.9,-1.3 0.9,-0.3 1.9,-0.5 2.9,-0.8 3.1,-1.1 6.3,-3.8 8.5,-6.3 0.5,0.2 1,0.8 1.1,1.2 0.3,1.3 -0.9,3.8 -1.8,4.7 l -5.4,5.5 c 0,0 -0.3,1.3 -0.4,1.4 0.2,0.6 0.4,1.5 0.7,2 0.4,0.7 1.2,1.8 1.8,2.4 1.1,1.3 2.5,2.6 3.7,3.8 2.3,2.4 4.6,4.9 7,7.2 1.4,1.3 3.3,2.5 4.5,3.8 0.1,0.1 1.7,2.9 1.9,3.2 0,0 0.2,0.8 0.2,0.9 2,2.1 3.2,1.9 6.1,2.4 0.7,0.1 1.5,-0.3 2.2,-0.1 2.1,-1.4 4.7,-1.5 6.7,-2.8 0.1,0 1.6,-1.4 1.7,-1.4 0.3,-0.3 1.9,-2.5 2.5,-3.1 0.4,-0.3 3.8,-1.4 4.9,-1.3 3,0.3 7.3,3 9.8,4.4 0.1,0 0.6,0.6 0.7,0.7 l -0.1,0.9 -2.1,3 0,0.9 1.7,2.2 -0.3,0.9 c -0.7,0.1 -3.2,-0.7 -4.4,-0.8 -0.5,0.2 -1.5,2.6 -1.5,2.6 -0.2,0.8 1.1,3.2 1.6,3.8 0.1,0.2 2,1.6 2.8,2.4 l 0.4,1.6 c -0.5,1.2 -0.6,2.6 -0.8,3.9 0.5,2.7 8.1,2.2 9.7,2.3 1.9,0.2 1.8,0.7 4.3,0.2 2.3,-0.5 4.8,-1.3 7,-2.3 1.1,0.3 2.6,0.4 3.8,0.4 0.8,0 1.7,-0.4 2.5,-0.4 0.1,0 2.5,0.4 2.5,0.4 0.7,0.3 2.6,2 2.9,2.8 0.3,0.8 0.4,1.9 0.5,2.7 l 1.1,0.8 0.6,-0.7 c 1.4,-0.1 5,-0.2 6.2,-0.4 0.4,-0.1 2.4,-1.4 2.4,-1.4 0.3,-0.3 0.6,-0.8 0.9,-1.1 0.9,-0.7 2.1,-0.3 3.1,-0.4 1.3,-0.1 4.9,-2.6 4.9,-4.1 l -0.5,-1.5 -2.1,-2.8 c -0.2,-2.2 -0.4,-5.3 0.1,-8.6 l -0.1,0.2 0,-2.6 c 1.6,0.1 3,0 3.4,-0.3 0.8,-0.5 3.5,-5.3 5.3,-6.9 2.2,-2 4.8,-3.9 6.3,-6.4 1.7,-2.6 2.9,-5.3 3.5,-8.4 0.1,-0.7 0.1,-1.5 0.3,-2.2 0.9,-2.8 3.3,-4.5 4.2,-7.4 0.9,-2.8 0.7,-5.8 2.1,-8.4 0.6,-1.1 1.8,-1.8 2.5,-2.8 0.4,-0.5 0.7,-1.1 1.1,-1.6 0.8,-1 1.7,-1.8 2.5,-2.8 0.4,-0.5 0.6,-1.2 0.9,-1.7 1.6,-2.8 2.6,-6.1 4.6,-8.6 2.6,-3.2 8.4,-7.7 10,-10.7 2.1,-4.1 0.7,-4.5 0.3,-8.3 0.4,-0.5 0.7,-1.2 1.1,-1.6 0.5,-0.5 2.5,-1.7 3.7,-2.9 l 0.2,-1.1 c -0.5,-1.4 -2.1,-1.4 -3.3,-2 -0.4,-0.5 -0.8,-1.1 -1,-1.7 -0.1,-1 0.8,-1.6 1.2,-2.5 0.6,-1.2 0.2,-2.3 0.4,-3.5 0.2,-1.1 1.8,-2.7 2.5,-3.5 0.8,-1 2.6,-5.4 2.4,-6.6 -0.1,-0.4 -0.7,-1.4 -0.9,-1.7 -0.8,-0.4 -2,-0.7 -2.5,-1.5 -0.4,-1 -0.4,-2.3 -0.3,-3.4 0.7,-1.3 1.7,-1.7 1.9,-3.4 0.1,-0.9 -1,-7 -1.6,-7.6 -0.6,-0.7 -1.5,-1.1 -2.1,-1.9 l 0,-1 c 0.9,-0.4 1.8,-0.9 2.8,-1.2 0.3,-0.6 0.7,-1.1 1.1,-1.6 0.4,-2.8 -0.3,-2.2 -0.8,-4.4 -0.8,-3.5 0.3,-5.2 -4.4,-5.7 -0.4,0.4 -0.8,0.9 -1.1,1.5 l -1.2,0.2 c -0.1,-0.7 0.3,-1.3 0.4,-2 0.1,-0.8 -0.1,-1.8 0.1,-2.5 0.4,-1.3 2.2,-2.6 2.6,-3.9 0.6,-1.9 -0.1,-3.8 1,-5.6 1.7,-2.8 4.1,-2.7 5.9,-4.7 1,-1.1 1.7,-2.9 2.4,-4.2 1.3,-2.6 4.1,-6.4 6.2,-8.3 0.6,-0.6 2.5,-1.6 3.3,-1.9 0.9,-0.4 3.7,-1.9 4.2,-2.5 1.1,-1.3 0.9,-8.3 2.7,-11.8 0.9,-1.8 3.2,-3.2 4.6,-4.6 2.3,-2.3 2.6,-3.9 4.1,-6.5 0.8,-1.4 2.3,-2.4 2.5,-4.1 0.1,-0.8 -0.2,-1.3 -0.3,-2.1 -0.5,-2.8 0.8,-5.6 0,-8.4 -0.3,-1 -0.9,-1.8 -1.3,-2.6 -0.7,-1.5 -0.8,-4.2 -0.5,-5.8 0.7,-3.9 4.9,-6.5 5.3,-9 0.2,-1 -0.3,-2 -0.7,-2.9 -1.3,-2.9 -3.5,-6.8 -7.3,-5.1 -1.6,0.7 -1.3,1.1 -3.4,1.1 -0.6,0 -1.2,0 -1.8,-0.4 -0.5,-1.4 0.1,-3.1 -0.6,-4.4 -6.4,-4.5 -4.2,-7.2 -6.2,-13.4 -0.6,-1.7 -2.4,-4.2 -3.4,-5.9 -0.3,-0.5 -0.4,-1.2 -0.7,-1.8 -0.1,-0.1 -2.5,-3.5 -2.8,-3.8 -3.3,-4.3 -12.3,-1.3 -13.8,-6 -0.6,-2 0.4,-2.8 0.2,-4.6 -0.7,-1.6 -3.1,-1.8 -4.4,-2.9 -0.5,-0.4 -0.8,-1 -1.4,-1.4 -0.7,-0.5 -1.7,-1 -2.3,-1.5 l -0.4,-0.5 c -0.8,-1.1 -1.9,-2 -2.7,-3.1 -1,-1.5 -0.6,-3.5 -1.9,-4.7 -1.4,-1.3 -3.5,-1.4 -4.8,-3 -2.3,-2.8 -1.3,-8.7 -5.2,-13.3 -2.3,-2.8 -8.5,-4.1 -9.1,-8 -0.5,-3 2.2,-4.3 2.7,-6.9 0.3,-1.6 0.1,-3.2 0.5,-4.7 0.6,-2.6 2.1,-5 2.6,-7.8 l -0.4,-1 c -1.7,-1 -3.2,-2.1 -5,-2.9 -2.6,-1.1 -6.1,-1.5 -8.2,-3.7 -1.7,-1.8 -0.9,-6.3 0.2,-8.2 0.4,-0.8 1.2,-1.6 1.5,-2.5 0.4,-1.6 -0.5,-3 -0.7,-4.5 -0.2,-2.1 0.5,-4.3 0.2,-6.4 0,-0.2 -2.5,-7.6 -2.5,-7.7 -0.7,-1.3 -2.1,-2.5 -2.9,-3.7 -0.1,-0.1 -1.4,-3.2 -1.5,-3.6 -1.9,-5.2 -1.6,-13.8 -2.6,-19.5 -0.4,-2.1 -1.1,-4.6 -1.1,-6.8 0,-0.7 0.4,-2.6 0.8,-3.2 0.5,-0.7 1.4,-1.3 2,-2 0.8,-1 3,-4.9 3.2,-6 1.1,-6.5 -1.5,-9.1 -3,-14.8 -0.2,-0.7 -0.5,-1.4 -0.6,-2.1 -0.3,-2.9 1,-5.1 1.4,-7.8 0.2,-1.2 -0.4,-2.2 -0.6,-3.4 -2.2,-2.6 -6.5,-2.2 -7.5,-4.3 -0.4,-0.9 -0.6,-2.3 -0.6,-3.3 -0.1,-1.6 0.4,-3.1 0.5,-4.7 0.2,-3 -0.5,-6.1 -0.2,-9.1 0.2,-2 0.8,-3.9 0.6,-6 -0.3,-2.4 -1.9,-4.4 -2.4,-6.8 -0.1,-0.8 -0.2,-1.4 0.1,-2.2 1.1,-2.5 6.4,-4.8 6.9,-7.6 0.1,-0.8 -0.1,-1.7 -0.2,-2.5 -0.1,-1.6 -0.2,-3.1 -0.5,-4.7 -0.6,-3.5 -1.1,-3.9 0.4,-7.4 0.4,-0.8 2.5,-4 3.1,-4.8 0.2,-0.2 0.5,-0.4 0.7,-0.6 0.6,-0.7 1,-1.7 1.4,-2.5 0.6,-1.3 1.8,-2.7 2.8,-3.8 1.5,-1.8 4.2,-3.2 5.4,-5.1 0.6,-0.9 0.4,-2.2 0.4,-3.2 1,-2.5 4.3,-2.7 6,-4.6 1.4,-1.6 1.8,-4.4 2.9,-6.3 3.9,-6.9 7.5,-13.8 14.5,-18.2 1.3,-0.6 2.6,-2 3.9,-2.8 1.7,-1 3.8,-1.4 5.5,-2.3 2.5,-1.4 4.1,-3.9 5.8,-6.1 0.5,-2 1.3,-2.8 1.8,-3.7 z m -201.7,-112.9 -0.6,-0.1 -0.4,-1 0.5,-0.6 0.6,-0.1 0.5,0.3 0.3,0.6 -0.9,0.9 z m 228.9,65.4 c 2.9,0.7 2.2,8.4 1,10.2 l -0.9,0.4 c -3,-2.1 -4.2,-7 -1.4,-9.8 0.4,-0.3 0.8,-0.9 1.3,-0.8 z M 242.9,-75.9 c 0.7,0 1.5,0 2.3,-0.1 l 0.6,0.8 c -0.1,0.7 -0.4,1.6 -0.9,2.2 -1.4,2 -2.8,4.4 -3.8,6.7 -0.6,1.4 -0.9,3.2 -1.7,4.4 -0.5,0.7 -1.3,1.3 -1.9,2 l -0.8,-0.5 -0.3,-1.1 c 0.1,-0.5 2,-2.7 2.4,-4.2 0.6,-2 0.3,-6.2 1.4,-7.7 0.6,-0.9 2.1,-1.4 2.7,-2.5 z m -10,23.8 c 0.4,0.8 1,1.9 1.2,2.7 0.3,1.2 -0.2,2.3 -0.2,3.5 0,1.9 1.4,3.7 0.4,5.6 l -0.8,0.5 -0.8,-0.2 c -0.9,-1.1 -0.9,-2.7 -1.1,-4.1 -0.2,-1.5 -0.8,-2.1 -1.1,-2.9 -0.5,-1.8 0.3,-4.7 2.4,-5.1 z"
         inkscape:connector-curvature="0" /></defs><path
       style="fill:#377e3f"
       clip-path="none"
       d="M 0,0 0,160 1200,160 1200,0 0,0 Z m 0,640 0,160 1200,0 0,-160 -1200,0 z"
       id="rect11"
       transform="translate(-150,-100)"
       inkscape:connector-curvature="0" /><path
       style="fill:#ffffff"
       clip-path="none"
       d="m 0,160 0,80 1200,0 0,-80 -1200,0 z m 0,400 0,80 1200,0 0,-80 -1200,0 z"
       id="rect13"
       transform="translate(-150,-100)"
       inkscape:connector-curvature="0" /><rect
       x="-150"
       y="140"
       clip-path="none"
       width="1200"
       height="320"
       id="rect15"
       style="fill:#b40a2d" /><polygon
       clip-path="none"
       points="449.9,155.3 485.9,265.8 602.1,265.7 508.1,334.1 544.1,444.6 450.1,376.4 356.1,444.7 391.9,334.2 297.9,265.9 414.1,265.8 "
       id="polygon17"
       style="fill:#ecc81d" /></g></svg>