<?xml version="1.0" encoding="UTF-8" standalone="no"?>
<!-- Created with Inkscape (http://www.inkscape.org/) -->

<svg
   xmlns:dc="http://purl.org/dc/elements/1.1/"
   xmlns:cc="http://creativecommons.org/ns#"
   xmlns:rdf="http://www.w3.org/1999/02/22-rdf-syntax-ns#"
   xmlns:svg="http://www.w3.org/2000/svg"
   xmlns="http://www.w3.org/2000/svg"
   xmlns:sodipodi="http://sodipodi.sourceforge.net/DTD/sodipodi-0.dtd"
   xmlns:inkscape="http://www.inkscape.org/namespaces/inkscape"
   width="50"
   height="50"
   viewBox="0 0 13.229166 13.229167"
   version="1.1"
   id="svg8"
   inkscape:version="0.92.4 (5da689c313, 2019-01-14)"
   sodipodi:docname="globe.svg">
  <defs
     id="defs2" />
  <sodipodi:namedview
     id="base"
     pagecolor="#ffffff"
     bordercolor="#666666"
     borderopacity="1.0"
     inkscape:pageopacity="0.0"
     inkscape:pageshadow="2"
     inkscape:zoom="8"
     inkscape:cx="35.155461"
     inkscape:cy="19.789964"
     inkscape:document-units="mm"
     inkscape:current-layer="layer1"
     showgrid="false"
     units="px"
     inkscape:window-width="1920"
     inkscape:window-height="986"
     inkscape:window-x="2869"
     inkscape:window-y="-11"
     inkscape:window-maximized="1" />
  <metadata
     id="metadata5">
    <rdf:RDF>
      <cc:Work
         rdf:about="">
        <dc:format>image/svg+xml</dc:format>
        <dc:type
           rdf:resource="http://purl.org/dc/dcmitype/StillImage" />
        <dc:title></dc:title>
      </cc:Work>
    </rdf:RDF>
  </metadata>
  <g
     inkscape:label="Ebene 1"
     inkscape:groupmode="layer"
     id="layer1"
     transform="translate(0,-283.77082)">
    <path
       style="fill:#000000;stroke-width:0.99999988"
       d="m 6.0172832,296.9181 c -1.0150031,-0.10499 -1.9766506,-0.42606 -2.8143001,-0.9396 -0.8437082,-0.51724 -1.6564754,-1.33003 -2.1737281,-2.17373 -1.08026522,-1.76205 -1.25966658,-3.94056 -0.48333224,-5.86923 0.40664496,-1.01022 1.13546094,-1.98839 1.98821214,-2.66842 0.5135325,-0.40952 1.2514891,-0.8225 1.8696309,-1.04626 0.9652847,-0.34941 2.0848459,-0.46617 3.1117834,-0.3246 1.3386213,0.18457 2.6488898,0.81895 3.6211458,1.75321 1.088926,1.04637 1.75976,2.36183 1.979232,3.88117 0.05905,0.40875 0.05861,1.31423 -8.44e-4,1.71596 -0.178763,1.20802 -0.589098,2.1882 -1.318793,3.15019 -0.231796,0.30561 -0.826742,0.90698 -1.130542,1.1428 -0.9525395,0.73935 -2.0635295,1.20194 -3.2526447,1.35434 -0.3022691,0.0387 -1.1183242,0.0526 -1.3958207,0.0244 z M 7.15699,296.38113 c 1.2276056,-0.12751 2.3087978,-0.56775 3.23984,-1.31927 0.217496,-0.17554 0.669761,-0.61659 0.819853,-0.79954 l 0.0683,-0.0835 h -0.104726 -0.104721 v -0.20897 c 0,-0.2041 -0.0025,-0.21212 -0.102447,-0.34465 l -0.102444,-0.13573 v -0.23936 -0.23937 l -0.08869,-0.0861 c -0.06323,-0.0614 -0.09337,-0.11721 -0.105015,-0.19486 -0.01448,-0.0965 -0.0033,-0.13315 0.09977,-0.32245 l 0.116105,-0.21354 -0.213338,-0.37481 -0.213341,-0.37481 0.02185,-0.18864 c 0.03978,-0.34359 0.05098,-0.31983 -0.159175,-0.33744 -0.158784,-0.013 -0.194024,-0.0261 -0.263737,-0.0932 -0.1079604,-0.10464 -0.2812697,-0.11114 -0.3725582,-0.0137 -0.055821,0.0595 -0.077341,0.0643 -0.2989953,0.0643 -0.142155,0 -0.2388437,0.0103 -0.2388437,0.0259 0,0.0138 -0.056803,0.0259 -0.1262299,0.0259 H 8.9022184 L 8.618666,290.60327 8.3351136,290.27951 v -0.26353 c 0,-0.24111 0.00439,-0.265 0.051223,-0.27987 0.032087,-0.0102 0.051222,-0.0387 0.051222,-0.0764 0,-0.0328 0.00696,-0.0785 0.015546,-0.10072 0.012045,-0.0311 -0.00173,-0.0406 -0.061178,-0.0406 -0.067478,0 -0.078759,-0.0106 -0.093621,-0.0898 -0.00927,-0.0495 -0.010119,-0.10104 -0.00183,-0.11445 0.00831,-0.0131 0.1529088,-0.1234 0.3213842,-0.2444 l 0.3063207,-0.22026 v -0.17185 -0.17185 l 0.1596712,-0.0876 c 0.1478117,-0.0814 0.1742631,-0.0873 0.3561284,-0.0812 0.1656465,0.006 0.215918,-0.003 0.3205423,-0.0557 0.098659,-0.0496 0.1818116,-0.0663 0.4058116,-0.0803 0.154948,-0.01 0.301896,-0.0236 0.326544,-0.0303 0.03962,-0.0112 0.04481,0.008 0.04481,0.16519 v 0.17808 l 0.28084,0.0696 c 0.154462,0.0383 0.294176,0.086 0.310472,0.10539 0.01632,0.0196 0.05703,0.0356 0.09053,0.0356 0.05216,0 0.06088,-0.0121 0.06088,-0.0869 0,-0.10113 0.0289,-0.118 0.20236,-0.118 0.1016,0 0.14367,0.0165 0.258644,0.10246 l 0.137307,0.10244 h 0.251489 c 0.202436,0 0.25149,-0.008 0.25149,-0.037 0,-0.0204 -0.03567,-0.13564 -0.07926,-0.25612 l -0.07925,-0.21902 h -0.159258 c -0.143259,0 -0.1666,-0.008 -0.232327,-0.0762 -0.05745,-0.06 -0.07558,-0.1065 -0.0848,-0.21769 -0.0067,-0.0778 -0.01663,-0.14143 -0.02262,-0.14143 -0.0063,0 -0.04352,0.0167 -0.08338,0.0374 -0.05846,0.0299 -0.08129,0.0698 -0.118125,0.20615 l -0.04567,0.16869 -0.107785,-0.10579 c -0.09069,-0.0889 -0.110252,-0.1266 -0.123339,-0.23711 -0.01419,-0.11957 -0.02876,-0.14335 -0.163394,-0.26567 -0.137689,-0.12512 -0.156961,-0.13443 -0.280743,-0.13551 l -0.132907,-9.6e-4 0.0389,0.1142 c 0.03394,0.0996 0.0598,0.12585 0.20221,0.20551 0.169767,0.0948 0.221535,0.14397 0.170088,0.16112 -0.01657,0.006 -0.03016,0.0541 -0.03016,0.10838 0,0.0893 -0.0083,0.10095 -0.0889,0.12767 -0.06953,0.0231 -0.104023,0.0221 -0.158181,-0.005 -0.11174,-0.0543 -0.105336,-0.0978 0.01448,-0.0978 0.05751,0 0.104578,-0.005 0.104578,-0.0103 0,-0.006 0.0066,-0.0275 0.014,-0.0475 0.0099,-0.0249 -0.06047,-0.0857 -0.216389,-0.18778 -0.145813,-0.0957 -0.235735,-0.17248 -0.244977,-0.20896 -0.0192,-0.0757 -0.04076,-0.0725 -0.127903,0.0181 -0.06424,0.0673 -0.08498,0.074 -0.179203,0.0613 l -0.106563,-0.0144 -0.1441183,0.1885 c -0.079267,0.10369 -0.155467,0.21856 -0.1693386,0.25533 -0.017444,0.0466 -0.050519,0.0716 -0.1072605,0.0835 -0.1504071,0.0299 -0.3790127,0.0174 -0.4700293,-0.0262 -0.082094,-0.0392 -0.090467,-0.0539 -0.1109723,-0.19849 -0.022386,-0.15761 5.12e-5,-0.29197 0.054738,-0.32794 0.055791,-0.0366 0.3034734,-0.0511 0.4327912,-0.026 0.073199,0.0143 0.1358486,0.0239 0.1392235,0.0205 0.00335,-0.003 0.013349,-0.0421 0.022164,-0.0864 0.014226,-0.0708 0.00844,-0.0822 -0.051738,-0.0971 -0.046322,-0.0113 -0.064173,-0.0301 -0.056414,-0.0589 0.00626,-0.0232 0.018369,-0.0839 0.026947,-0.13465 0.015454,-0.0917 0.016954,-0.0927 0.1679027,-0.11001 0.1508086,-0.0169 0.15336,-0.0187 0.2587786,-0.16903 0.05856,-0.0837 0.130955,-0.15975 0.16088,-0.16952 0.02993,-0.01 0.144784,-0.0159 0.255246,-0.0137 l 0.200837,0.004 -0.01807,-0.13407 c -0.0099,-0.0735 -0.02087,-0.13724 -0.02434,-0.14111 -0.0036,-0.004 -0.05947,0.0156 -0.124495,0.0438 l -0.118206,0.0505 -0.05046,-0.11406 c -0.04013,-0.0906 -0.06344,-0.11406 -0.113885,-0.11406 -0.05003,0 -0.06709,-0.0165 -0.08077,-0.079 -0.02227,-0.1014 0.05132,-0.18472 0.215616,-0.24406 0.11426,-0.0414 0.243272,-0.14849 0.227839,-0.18939 -0.0044,-0.0108 -0.0998,-0.094 -0.21249,-0.1847 -0.8500683,-0.6827 -1.8753251,-1.12049 -2.9965314,-1.27957 -0.2926317,-0.0416 -1.1834602,-0.0416 -1.4854605,10e-6 -0.9203233,0.12654 -1.7845989,0.4414 -2.5227219,0.91902 l -0.2689193,0.17403 0.1690337,0.0125 c 0.09297,0.007 0.1851692,0.026 0.2048911,0.0416 0.019719,0.0156 0.095254,0.0427 0.1678428,0.0596 0.09017,0.0212 0.1358909,0.0462 0.1443119,0.0781 0.010344,0.0396 0.043696,0.0487 0.2074249,0.0555 0.2004534,0.009 0.2139244,0.002 0.1684672,-0.083 -0.022113,-0.0414 -0.054645,-0.0493 -0.1960549,-0.0493 -0.1588212,0 -0.1671476,-0.003 -0.131673,-0.0451 0.074116,-0.0877 0.031461,-0.13144 -0.1362846,-0.13968 l -0.1542755,-0.008 0.1659496,-0.12166 c 0.1585213,-0.11621 0.1735499,-0.12166 0.3357338,-0.12166 h 0.1697662 l 0.081236,0.11524 c 0.077852,0.11046 0.086585,0.11526 0.2095468,0.11526 0.108729,0 0.1407809,-0.0117 0.2100261,-0.0793 0.071571,-0.0696 0.088778,-0.0753 0.1385954,-0.0489 0.056283,0.0299 0.055718,0.0313 -0.053815,0.14322 C 4.694771,285.5401 4.6787021,285.5474 4.550516,285.5474 H 4.4134793 l 0.00796,0.096 0.00796,0.096 0.1877759,0.008 c 0.1673405,0.007 0.18918,0.002 0.2006784,-0.0419 0.00993,-0.0379 0.042045,-0.0518 0.1393325,-0.0616 0.1456816,-0.0137 0.1430652,-0.0121 0.1548136,-0.0949 0.00695,-0.0487 -0.00493,-0.0664 -0.055122,-0.0786 -0.045198,-0.0111 -0.061624,-0.0303 -0.055855,-0.0658 0.014073,-0.0856 0.082139,-0.11357 0.2720438,-0.11313 0.2464647,4.9e-4 0.2740782,0.0235 0.1485697,0.12272 -0.086186,0.0684 -0.098494,0.0901 -0.088377,0.1594 0.012552,0.0857 0.017695,0.0889 0.165783,0.11369 l 0.096412,0.0159 -0.016455,-0.14 -0.016454,-0.14 0.1249344,-0.0633 c 0.077965,-0.0394 0.1952818,-0.0699 0.3120613,-0.0818 0.1846344,-0.0183 0.1908597,-0.0168 0.4674077,0.10396 l 0.2802807,0.1225 v 0.10869 c 0,0.0999 0.0062,0.11005 0.076834,0.12558 0.085246,0.0187 0.090246,0.0319 0.047113,0.12685 -0.026281,0.0576 -0.045079,0.0655 -0.1623746,0.0655 -0.1319432,0 -0.1328319,5.4e-4 -0.1662973,0.10193 -0.027833,0.0846 -0.042919,0.0996 -0.087337,0.0884 -0.029531,-0.008 -0.1573928,-0.0397 -0.2841398,-0.0713 l -0.2304485,-0.058 0.1151973,-0.067 c 0.063359,-0.0366 0.1584167,-0.0873 0.2112403,-0.11199 0.052823,-0.0251 0.096043,-0.0533 0.096043,-0.064 0,-0.01 -0.03614,-0.0489 -0.080308,-0.0864 -0.057109,-0.0481 -0.099653,-0.0641 -0.1472655,-0.0547 -0.036824,0.007 -0.1261718,0.02 -0.1985477,0.0288 -0.099624,0.0119 -0.1491356,0.0343 -0.2038047,0.0913 -0.044524,0.0468 -0.1094543,0.0815 -0.1693408,0.0906 -0.09912,0.0157 -0.1324611,0.0737 -0.058711,0.10216 0.061082,0.0236 0.044843,0.0525 -0.038417,0.0694 -0.045064,0.009 -0.076834,0.0312 -0.076834,0.0542 0,0.0264 -0.024841,0.0391 -0.0748,0.0391 -0.062287,0 -0.077622,-0.0125 -0.091675,-0.0768 -0.0194,-0.0884 -0.012632,-0.0863 -0.1506969,-0.0467 -0.1048503,0.0301 -0.6187553,0.31412 -0.6447395,0.35616 -0.00747,0.0118 -0.00132,0.0678 0.013652,0.1233 0.034343,0.12753 0.1389699,0.19491 0.3399877,0.21894 l 0.1472652,0.0175 v 0.16463 c 0,0.1595 0.00205,0.16461 0.065445,0.16461 0.054413,0 0.076285,-0.0239 0.1297424,-0.14043 0.062363,-0.13621 0.069058,-0.14184 0.2226827,-0.18701 l 0.1583859,-0.0469 0.00741,-0.20941 c 0.00715,-0.20238 0.010235,-0.2116 0.090207,-0.2726 0.088122,-0.0676 0.1079367,-0.0669 0.4112469,0.0136 l 0.099102,0.0266 -0.016806,0.12667 c -0.0222,0.16737 0.013011,0.17914 0.2308767,0.0771 0.093353,-0.0439 0.1742011,-0.0795 0.1796627,-0.0795 0.00544,0 0.00993,0.0751 0.00993,0.16709 v 0.16711 l 0.1152511,0.0693 c 0.1073697,0.0652 0.1152513,0.077 0.1152513,0.17762 0,0.10382 -0.00398,0.10922 -0.1024455,0.13871 -0.1425041,0.0429 -0.133957,0.10152 0.025611,0.17627 0.1093577,0.0509 0.1280569,0.0702 0.1280569,0.13242 0,0.0892 -0.034695,0.0917 -0.2511409,0.0188 -0.1329679,-0.0452 -0.1586412,-0.0633 -0.1586412,-0.11252 0,-0.0321 0.017287,-0.0658 0.038417,-0.0735 0.056733,-0.0219 0.048749,-0.13573 -0.010596,-0.15124 -0.032152,-0.009 -0.053006,0.003 -0.060615,0.0312 -0.016307,0.0625 -0.3001534,0.11339 -0.3001534,0.0537 0,-0.0477 -0.082059,-0.10427 -0.1503753,-0.10427 -0.085268,0 -0.1313498,0.0423 -0.1313498,0.12006 0,0.0487 0.017552,0.0616 0.1036535,0.075 l 0.1036531,0.0164 -0.055537,0.0592 c -0.051742,0.0549 -0.059657,0.0563 -0.1158199,0.0196 -0.057741,-0.0378 -0.066246,-0.0342 -0.2017841,0.0815 -0.077827,0.0667 -0.1415023,0.13516 -0.1415023,0.15263 0,0.0174 -0.072032,0.0696 -0.1600712,0.11637 -0.2111443,0.11162 -0.5825033,0.46889 -0.583051,0.56092 -5.354e-4,0.0895 -0.013795,0.10489 -0.2044988,0.23135 -0.091562,0.0608 -0.2096933,0.15153 -0.2625168,0.20177 -0.093862,0.0893 -0.096043,0.0955 -0.096043,0.27825 0,0.10278 -0.00624,0.18688 -0.013827,0.18688 -0.0076,0 -0.058801,-0.0231 -0.1137672,-0.0507 -0.089717,-0.0461 -0.100748,-0.0623 -0.1078278,-0.16007 l -0.00789,-0.1091 -0.3384529,-0.007 -0.3384538,-0.007 -0.2054877,0.10334 c -0.1917361,0.0963 -0.2104802,0.1132 -0.2800862,0.25105 -0.1223472,0.24242 -0.1434043,0.35372 -0.089509,0.47324 0.050367,0.11168 0.1150587,0.1471 0.2687762,0.1471 0.079865,0 0.1427813,-0.0279 0.2905778,-0.1273 0.1037541,-0.0696 0.203058,-0.13052 0.2206758,-0.13445 0.072016,-0.016 0.068786,0.11869 -0.00603,0.25294 l -0.073633,0.13206 0.1767765,0.0297 0.1767767,0.0297 0.022218,0.27351 0.022219,0.27353 0.2403484,0.0369 c 0.2362732,0.0362 0.2410958,0.0359 0.2844416,-0.0174 0.024251,-0.0299 0.091415,-0.10822 0.149252,-0.17393 l 0.1051585,-0.11946 0.1817305,0.0322 c 0.1669826,0.0297 0.1873257,0.0406 0.2506842,0.13142 0.05933,0.0853 0.079234,0.097 0.1425869,0.0856 0.040496,-0.008 0.1175161,-0.0134 0.1711511,-0.0134 0.074329,0 0.1013032,-0.0116 0.1134344,-0.0499 0.015339,-0.0483 0.019216,-0.0487 0.1068146,-0.007 0.061404,0.029 0.1272682,0.0996 0.2029896,0.21662 l 0.1120918,0.17328 h 0.1885334 0.1885314 l 0.066152,0.12166 c 0.038188,0.0699 0.073562,0.18734 0.083684,0.27705 l 0.017533,0.15541 0.2213198,0.0819 c 0.19312,0.0711 0.2531663,0.0819 0.4712669,0.0817 l 0.2499479,-2.4e-4 0.077711,0.12631 c 0.060721,0.0987 0.1012619,0.13427 0.185446,0.16277 0.1039345,0.035 0.1074517,0.04 0.09966,0.13433 -0.00594,0.0716 -0.044085,0.14424 -0.1436822,0.27242 l -0.1356059,0.17453 -0.03359,0.35802 -0.033588,0.35803 -0.1043625,0.0843 c -0.091615,0.0735 -0.1276787,0.0857 -0.2952457,0.0968 -0.1849782,0.0121 -0.1924579,0.0153 -0.2417781,0.10018 -0.048719,0.0839 -0.049215,0.0955 -0.011591,0.28036 l 0.039301,0.19295 -0.1903028,0.24344 c -0.1046665,0.1339 -0.2126175,0.28719 -0.2398916,0.34065 -0.039128,0.0766 -0.08835,0.11673 -0.2333848,0.18975 -0.101088,0.0507 -0.2362922,0.10004 -0.3004544,0.10917 -0.093422,0.013 -0.1182273,0.0278 -0.1245335,0.0714 -0.0062,0.0434 0.00892,0.0587 0.07043,0.072 0.1032517,0.0228 0.104502,0.10651 0.003,0.20372 -0.071289,0.0682 -0.073163,0.0752 -0.03547,0.13285 0.029308,0.045 0.063384,0.0608 0.1292929,0.0608 0.089071,0 0.089424,4.5e-4 0.07415,0.096 -0.050341,0.31505 -0.055289,0.29149 0.083915,0.39969 0.1064221,0.0829 0.123772,0.10767 0.1068394,0.15367 -0.017417,0.0477 -0.043468,0.0558 -0.1881491,0.0626 l -0.1679339,0.008 -0.1918882,-0.16735 c -0.153476,-0.13351 -0.2183953,-0.21446 -0.324386,-0.40415 l -0.1325084,-0.23714 0.017408,-0.23774 0.017406,-0.23772 -0.1040838,-0.13786 -0.1040836,-0.13787 0.037566,-0.21347 c 0.048302,-0.27446 0.04879,-0.26914 -0.02639,-0.28803 l -0.064029,-0.0159 v -0.52135 -0.52134 L 4.640685,292.72455 c -0.1021257,-0.0699 -0.2201426,-0.13586 -0.2622604,-0.14609 -0.0866,-0.0211 -0.1145483,-0.0534 -0.1151157,-0.1344 -2.305e-4,-0.0311 -0.1014474,-0.18236 -0.2319547,-0.34574 -0.2251521,-0.28191 -0.2310872,-0.29278 -0.2144037,-0.39239 0.00942,-0.0562 0.024321,-0.18298 0.033075,-0.28141 l 0.015915,-0.17898 0.1492507,-0.10244 0.1492509,-0.10249 -0.017858,-0.17956 c -0.00982,-0.0988 -0.030884,-0.18803 -0.046805,-0.19838 -0.015921,-0.0102 -0.088012,-0.019 -0.1602042,-0.0192 -0.2431859,-2.3e-4 -0.2761948,-0.0167 -0.4629629,-0.2322 l -0.1741145,-0.2008 -0.2048911,-0.0487 c -0.197437,-0.0468 -0.2048911,-0.0509 -0.2048911,-0.12216 0,-0.0656 -0.010965,-0.0754 -0.096042,-0.0894 -0.071146,-0.0113 -0.096044,-0.007 -0.096044,0.0185 0,0.0464 -0.025886,0.0446 -0.295497,-0.0202 l -0.2314686,-0.0552 -0.1083244,-0.16316 c -0.1071802,-0.16125 -0.1078819,-0.1638 -0.066989,-0.24286 l 0.041322,-0.08 -0.1671269,-0.24621 C 1.7419335,288.96916 1.7017622,288.8874 1.688654,288.7873 c -0.025847,-0.19732 -0.035559,-0.21768 -0.1038325,-0.21768 -0.047986,0 -0.061952,0.0129 -0.060777,0.0576 0.00452,0.17045 0.049544,0.30993 0.1496313,0.46356 0.076643,0.11761 0.1062553,0.18812 0.1004225,0.239 -0.00462,0.0397 -0.016919,0.0692 -0.027482,0.0661 -0.010562,-0.004 -0.052688,-0.007 -0.09361,-0.007 -0.065784,0 -0.088028,-0.0234 -0.192085,-0.20071 -0.1174732,-0.20041 -0.1176853,-0.2012 -0.1176853,-0.44384 v -0.2431 l -0.1280567,-0.06 -0.1280575,-0.06 -7.782e-4,-0.1685 c -9.444e-4,-0.20423 -0.012608,-0.18806 -0.14848503,0.20601 -0.23938819,0.69427 -0.32264808,1.20234 -0.32264808,1.96893 0,0.61063 0.0358459,0.9227 0.16595198,1.44489 0.10986422,0.44094 0.23172483,0.76979 0.44685733,1.2059 0.5959608,1.2081 1.5255271,2.14017 2.732289,2.73969 0.9780568,0.48589 2.1642032,0.70928 3.196712,0.60205 z m -1.4854605,-8.80464 c 0,-0.0691 0.052504,-0.11279 0.094153,-0.0782 0.059487,0.0491 0.041326,0.1243 -0.030125,0.1243 -0.044583,0 -0.064028,-0.0138 -0.064028,-0.0464 z m 0.2612362,-0.0102 c -0.058134,-0.0581 -0.034092,-0.0973 0.059709,-0.0973 0.056768,0 0.095933,-0.0141 0.1051858,-0.0384 0.016491,-0.0432 0.1629301,-0.0537 0.1629301,-0.0118 0,0.0142 -0.028812,0.0371 -0.064028,0.0504 -0.035216,0.0131 -0.064028,0.0408 -0.064028,0.0607 0,0.0659 -0.1443635,0.0918 -0.1997692,0.0366 z m 3.5408104,-0.57352 c 0.018643,-0.0994 0.04891,-0.13734 0.1100927,-0.13811 0.017608,-2e-4 0.03165,-0.0266 0.031205,-0.058 -5.66e-4,-0.0404 -0.03508,-0.0784 -0.1152511,-0.12707 -0.1162265,-0.0703 -0.1350599,-0.1131 -0.08852,-0.20004 0.024669,-0.0464 0.1915154,-0.0978 0.2208541,-0.0686 0.00763,0.008 0.024559,0.0615 0.037599,0.11945 0.031397,0.13972 0.1363682,0.30227 0.2293704,0.35518 0.09081,0.0514 0.09139,0.057 0.014174,0.1296 -0.048463,0.0458 -0.1023349,0.0607 -0.2597085,0.0722 l -0.1985622,0.0148 z m -0.4136815,-0.0277 c -0.00943,-0.0249 0.011671,-0.0917 0.050049,-0.15959 0.0744,-0.13111 0.1860012,-0.18192 0.2927702,-0.13328 0.1049091,0.0481 0.076961,0.13778 -0.075381,0.24269 -0.1452061,0.10002 -0.2413911,0.11806 -0.2674386,0.05 z m 2.9960624,0.84934 c -0.038,-0.0775 -0.07822,-0.14087 -0.08937,-0.14087 -0.01114,0 -0.02028,0.0636 -0.02028,0.14087 v 0.14086 h 0.08935 0.08936 z m -7.5069424,0.0217 c 0.05873,-0.0529 0.062747,-0.16252 0.00597,-0.16252 -0.022477,0 -0.077221,0.0202 -0.1216541,0.0451 -0.044433,0.0249 -0.082236,0.0451 -0.084008,0.0451 -0.00176,0 -0.011193,0.0262 -0.020935,0.0576 -0.016181,0.0524 -0.00942,0.0576 0.07804,0.0576 0.053158,0 0.1165871,-0.0188 0.1425885,-0.0425 z m -0.3549263,-0.22646 0.1197586,-0.16647 h -0.097515 c -0.073065,0 -0.1143119,0.0176 -0.1645079,0.0701 -0.083617,0.088 -0.117522,0.20773 -0.067711,0.23926 0.064921,0.0412 0.089359,0.0247 0.209974,-0.14322 z m 0.734711,0.081 c 0,-0.0477 -0.020703,-0.0664 -0.099015,-0.0894 -0.1288766,-0.0386 -0.1314882,-0.0382 -0.1314882,0.0195 0,0.10183 0.028475,0.13017 0.1307968,0.13017 0.087481,0 0.099706,-0.008 0.099706,-0.0601 z m -0.3386468,-0.10797 c 0.031307,-0.022 0.056921,-0.0624 0.056921,-0.0894 0,-0.0411 -0.01807,-0.0496 -0.1024453,-0.0496 -0.1000064,0 -0.1024457,0.002 -0.1024457,0.0894 0,0.10172 0.049843,0.11852 0.14797,0.0496 z M 1.4556782,287.396 c 0.050834,-0.0613 0.092416,-0.13555 0.092416,-0.1652 0,-0.0704 -0.026114,-0.0409 -0.1297381,0.14841 -0.094336,0.17227 -0.092501,0.1731 0.037321,0.0167 z m 3.4189557,0.10082 c 0.028444,-0.0179 0.024946,-0.0282 -0.017655,-0.0507 -0.055991,-0.0299 -0.098913,1.9e-4 -0.069043,0.0485 0.019291,0.0309 0.040244,0.0315 0.086697,0.002 z m -0.4068395,-0.1688 c 0,-0.035 -0.011525,-0.0643 -0.025611,-0.0643 -0.014085,0 -0.025611,-0.0172 -0.025611,-0.0384 0,-0.0888 -0.3823741,-0.0187 -0.419055,0.0768 -0.022433,0.0584 0.066929,0.0863 0.2845953,0.0879 0.1814199,0.002 0.1856826,1.6e-4 0.1856826,-0.0626 z m 0.1792795,0.0269 c 0,-0.003 -0.02305,-0.027 -0.051223,-0.0519 -0.049955,-0.0455 -0.051222,-0.045 -0.051222,0.0192 0,0.0527 0.00984,0.0632 0.051222,0.0519 0.028173,-0.008 0.051223,-0.0159 0.051223,-0.0192 z M 3.883142,286.95997 c 0.00946,-0.009 0.024994,-0.0582 0.034501,-0.10998 0.016363,-0.0891 0.013398,-0.0945 -0.055633,-0.10339 -0.064911,-0.009 -0.2137805,0.04 -0.2137805,0.0691 0,0.006 0.019291,0.0514 0.042862,0.10115 0.036811,0.0772 0.052171,0.0881 0.1088483,0.0742 0.036294,-0.009 0.073733,-0.0228 0.083202,-0.0311 z m 7.344314,-0.25676 c 0.02913,-0.041 0.05294,-0.0844 0.05291,-0.096 -2.7e-5,-0.0116 -0.06288,-0.0905 -0.139688,-0.17532 l -0.139641,-0.15367 -0.0012,0.13297 c -0.0012,0.13255 -0.0017,0.13322 -0.129206,0.2049 -0.121156,0.068 -0.149956,0.10553 -0.111008,0.14448 0.0098,0.01 0.106569,0.017 0.215951,0.017 0.19029,0 0.201166,-0.003 0.251845,-0.0742 z m -7.7841171,-0.5275 c 0,-0.0737 -0.040235,-0.0805 -0.2191618,-0.0352 -0.1782028,0.0452 -0.1492984,0.0994 0.052689,0.0994 0.1604987,0 0.1664749,-0.002 0.166474,-0.0643 z m -0.035654,-0.2625 c 0.018717,-0.0249 0.034393,-0.0653 0.034842,-0.0894 8.909e-4,-0.0489 -0.082389,-0.058 -0.2617025,-0.0286 -0.084979,0.0138 -0.096043,0.0246 -0.096043,0.0892 0,0.0719 0.00251,0.0733 0.1444418,0.0733 0.1075279,0 0.1531371,-0.0112 0.1784653,-0.0451 z"
       id="path4542"
       inkscape:connector-curvature="0" />
  </g>
</svg>
