<?xml version="1.0" encoding="UTF-8" standalone="no"?>
<!-- Created with Inkscape (http://www.inkscape.org/) -->

<svg
   xmlns:dc="http://purl.org/dc/elements/1.1/"
   xmlns:cc="http://creativecommons.org/ns#"
   xmlns:rdf="http://www.w3.org/1999/02/22-rdf-syntax-ns#"
   xmlns:svg="http://www.w3.org/2000/svg"
   xmlns="http://www.w3.org/2000/svg"
   xmlns:sodipodi="http://sodipodi.sourceforge.net/DTD/sodipodi-0.dtd"
   xmlns:inkscape="http://www.inkscape.org/namespaces/inkscape"
   width="50"
   height="50"
   viewBox="0 0 13.229166 13.229167"
   version="1.1"
   id="svg8"
   inkscape:version="0.92.4 (5da689c313, 2019-01-14)"
   sodipodi:docname="soccer-field.svg">
  <defs
     id="defs2" />
  <sodipodi:namedview
     id="base"
     pagecolor="#ffffff"
     bordercolor="#666666"
     borderopacity="1.0"
     inkscape:pageopacity="0.0"
     inkscape:pageshadow="2"
     inkscape:zoom="11.313708"
     inkscape:cx="19.30268"
     inkscape:cy="15.993152"
     inkscape:document-units="mm"
     inkscape:current-layer="layer1"
     showgrid="false"
     units="px"
     inkscape:window-width="1920"
     inkscape:window-height="986"
     inkscape:window-x="2869"
     inkscape:window-y="-11"
     inkscape:window-maximized="1" />
  <metadata
     id="metadata5">
    <rdf:RDF>
      <cc:Work
         rdf:about="">
        <dc:format>image/svg+xml</dc:format>
        <dc:type
           rdf:resource="http://purl.org/dc/dcmitype/StillImage" />
        <dc:title></dc:title>
      </cc:Work>
    </rdf:RDF>
  </metadata>
  <g
     inkscape:label="Ebene 1"
     inkscape:groupmode="layer"
     id="layer1"
     transform="translate(0,-283.77082)">
    <path
       style="fill:#000000;stroke-width:1"
       d="m 0.01948631,290.3854 v -4.12537 H 6.6145828 13.20968 v 4.12537 4.12538 H 6.6145828 0.01948631 Z m 12.63464169,2.17562 v -1.7407 l 0.05639,-10e-4 0.05638,-10e-4 v -0.42627 -0.42629 l -0.05638,-10e-4 -0.05639,-0.001 v -1.74643 -1.74622 H 6.6145828 0.57503648 v 1.74637 1.74641 l -0.0508804,9e-5 c -0.0279837,5e-5 -0.0539872,0.001 -0.0577898,0.002 -0.00548,0.002 -0.006603,0.0927 -0.005535,0.42758 l 0.001411,0.42321 0.0563808,10e-4 0.0563818,10e-4 v 1.74072 1.74072 H 6.6145659 12.654114 Z m -12.05158899,1.66924 c 0,-0.0239 0.001687,-0.0441 0.003749,-0.0441 0.002073,0 0.0139719,0.002 0.0264544,0.005 0.0246994,0.006 0.0452069,0.0358 0.0524271,0.0611 l 0.004598,0.008 h -0.0436183 -0.0436215 z m 0.11001186,0.0351 c 0,-0.002 -0.006737,-0.0212 -0.0149543,-0.0365 -0.0161274,-0.0294 -0.0506543,-0.0575 -0.0783304,-0.0625 l -0.0167448,-0.002 v -0.7254 -0.72536 H 1.5486077 2.4946934 v -0.74144 -0.74147 l 0.02672,-0.0207 c 0.041524,-0.0316 0.1540825,-0.15064 0.1892616,-0.19998 0.093639,-0.1316 0.1561638,-0.27934 0.186921,-0.44191 0.0163,-0.0864 0.017311,-0.26529 0.00192,-0.35201 -0.02715,-0.15342 -0.088258,-0.30605 -0.1703601,-0.42631 -0.055573,-0.0815 -0.1438467,-0.17795 -0.2059282,-0.22524 l -0.028542,-0.0217 v -0.73592 -0.73594 H 1.5486237 0.60253823 v -0.73044 -0.73044 l 0.0238062,-0.003 c 0.0319924,-0.004 0.0662392,-0.0424 0.078896,-0.0784 l 0.009912,-0.0276 H 3.6593754 6.6036003 v 1.41362 1.4136 h -0.029974 c -0.045542,0 -0.153532,0.007 -0.2120511,0.0301 -0.200001,0.0506 -0.364224,0.14597 -0.508961,0.2952 -0.08691,0.09 -0.1403414,0.1654 -0.1918336,0.27072 -0.1590388,0.32593 -0.1408725,0.71454 0.047613,1.01855 0.1482667,0.23918 0.383403,0.41193 0.6506847,0.47807 0.06181,0.007 0.1691529,0.0306 0.214547,0.0306 h 0.029971 v 1.41365 1.4136 h -2.945536 c -2.70754193,0 -2.9455166,-7.4e-4 -2.9455166,-0.004 z m 5.91303453,-1.40474 v -1.41365 h 0.029972 c 0.04588,0 0.153521,-0.007 0.2148011,-0.0306 0.2694519,-0.0676 0.50201,-0.23843 0.6504302,-0.47779 0.1831324,-0.2954 0.2056748,-0.67456 0.059207,-0.99601 -0.079552,-0.17453 -0.2232825,-0.33989 -0.3906091,-0.44942 -0.092532,-0.0608 -0.2076187,-0.11025 -0.3217794,-0.13914 -0.058518,-0.007 -0.1665068,-0.0301 -0.2120507,-0.0301 H 6.625586 v -1.41359 -1.41364 h 2.9442255 2.9442265 l 0.0099,0.0278 c 0.01264,0.0354 0.04691,0.0697 0.0789,0.0784 l 0.02383,0.003 v 0.73044 0.73043 h -0.94621 -0.946084 v 0.7359 0.73593 l -0.02854,0.0217 c -0.06209,0.047 -0.150354,0.14378 -0.205929,0.22528 -0.08213,0.12034 -0.143325,0.2734 -0.170322,0.42625 -0.01442,0.0821 -0.01456,0.2603 -1.46e-4,0.34103 0.03068,0.17258 0.09894,0.33188 0.199131,0.46563 0.0436,0.0583 0.134411,0.1534 0.178437,0.18685 l 0.02736,0.0207 v 0.74145 0.74141 h 0.946088 0.94609 v 0.72539 0.72537 l -0.01677,0.002 c -0.02768,0.003 -0.06223,0.0332 -0.07832,0.0625 -0.0082,0.007 -0.01488,0.0315 -0.01488,0.0364 0,0.004 -0.237977,0.004 -2.9455194,0.004 H 6.6255363 v -1.41362 z m 5.9183316,1.39782 c 0.0093,-0.0331 0.03558,-0.0587 0.07034,-0.0689 0.01225,-0.002 0.01237,-0.001 0.01237,0.0404 v 0.0443 h -0.04366 -0.04363 z M 0.60254154,292.0658 v -0.61883 h 0.31306975 c 0.20378281,0 0.31370991,-0.001 0.31490301,-0.003 0.00101,-10e-4 0.0012,-0.47823 4.307e-4,-1.05609 l -0.00141,-1.05057 H 0.91603475 0.60253449 v -0.61881 -0.6188 H 1.5348734 2.4672078 v 2.29369 2.29369 H 1.5348734 0.60253901 Z M 1.872056,290.40629 c 0.00365,-0.002 0.00659,-0.006 0.00659,-0.0212 0,-0.004 -0.00298,-0.008 -0.00659,-0.0207 -0.00365,-0.002 -0.013026,-0.003 -0.020903,-0.003 -0.00786,0 -0.017292,0.001 -0.020903,0.003 -0.00365,0.002 -0.00658,0.006 -0.00658,0.0207 0,0.004 0.00298,0.008 0.00658,0.0212 0.00365,0.002 0.013026,0.003 0.020903,0.003 0.00786,0 0.017294,-10e-4 0.020903,-0.003 z m 8.889904,-0.007 v -2.29372 h 0.932332 0.932335 v 0.61882 0.61881 h -0.3135 -0.313502 l -0.0014,1.05058 c -7.71e-4,0.57783 -5.82e-4,1.05305 4.29e-4,1.0561 0.0013,0.002 0.111119,0.003 0.314902,0.003 h 0.313069 v 0.61881 0.61881 H 11.694226 10.76189 v -2.29372 z m 0.636957,0.007 c 0.0035,-0.002 0.0066,-0.006 0.0066,-0.0212 0,-0.009 -0.0092,-0.0274 -0.02751,-0.0274 -0.01816,0 -0.02751,0.004 -0.02751,0.0274 0,0.009 0.0094,0.0274 0.02751,0.0274 0.0079,0 0.01728,-10e-4 0.02091,-0.003 z m -10.79637546,-0.007 v -1.03464 h 0.3025268 0.30252706 v 1.03411 1.03408 H 0.90506624 0.60253901 Z m 5.91984456,1.02799 c -0.2390277,-0.0207 -0.4721145,-0.12946 -0.6404998,-0.30002 -0.091643,-0.0929 -0.1441511,-0.1659 -0.1972526,-0.27415 -0.1744424,-0.35559 -0.1343273,-0.77127 0.1050991,-1.08913 0.038759,-0.0513 0.1284229,-0.14315 0.1820088,-0.18649 0.040644,-0.0328 0.1227107,-0.084 0.1805147,-0.11334 0.122435,-0.0614 0.2706979,-0.10006 0.4045679,-0.10539 l 0.044004,-0.001 0.0014,0.50396 c 0.00124,0.44324 4.073e-4,0.50481 -0.00687,0.51085 -0.00457,0.002 -0.00827,0.007 -0.00827,0.022 0,0.004 0.00372,0.009 0.00827,0.0219 0.00723,0.003 0.0081,0.0677 0.00687,0.51081 -0.00139,0.49959 -0.00149,0.50404 -0.012406,0.5047 -0.00609,4.1e-4 -0.036398,-0.001 -0.067445,-0.002 z m 0.1065996,10e-4 c -0.00186,-10e-4 -0.0034,-0.22912 -0.0034,-0.50507 0,-0.43925 0.00103,-0.50259 0.00825,-0.50857 0.01049,-0.004 0.010562,-0.028 1.661e-4,-0.0415 -0.00697,-0.004 -0.00811,-0.0799 -0.00825,-0.51222 -1.038e-4,-0.27592 0.00172,-0.5028 0.00409,-0.50423 0.00674,-0.002 0.125738,0.003 0.1743525,0.008 0.2923199,0.0553 0.539587,0.22579 0.6974062,0.48116 0.1561636,0.25272 0.1926177,0.57775 0.097169,0.86635 -0.086894,0.26273 -0.2740325,0.47769 -0.5260598,0.60425 -0.058507,0.0291 -0.1540997,0.0631 -0.2243359,0.0795 -0.06963,0.008 -0.2118917,0.0319 -0.2193704,0.0246 z m 5.3925883,-1.03076 v -1.03454 h 0.302527 0.30253 v 1.03409 1.03412 h -0.30253 -0.302528 z m -9.5268611,-0.003 c 0,-0.60003 0.00161,-0.80856 0.00624,-0.80856 0.012945,0 0.1523296,0.14699 0.1901506,0.20081 0.1003684,0.14244 0.1610814,0.29176 0.1861589,0.45853 0.011519,0.0765 0.011519,0.22147 -1.68e-5,0.2978 -0.035808,0.23706 -0.1424501,0.44168 -0.3161128,0.60644 -0.031085,0.0295 -0.058747,0.0536 -0.061471,0.0536 -0.00292,0 -0.00501,-0.33191 -0.00501,-0.80862 z m 8.1733121,0.75497 c -0.213223,-0.20229 -0.324738,-0.46148 -0.324883,-0.75497 -1.05e-4,-0.22507 0.06241,-0.42008 0.194914,-0.6078 0.03781,-0.0535 0.177226,-0.2008 0.190151,-0.2008 0.0046,0 0.0063,0.20851 0.0063,0.80855 0,0.47668 -0.0021,0.80859 -0.0049,0.80859 -0.0027,0 -0.0304,-0.024 -0.06148,-0.0536 z M 0.48703151,290.3981 v -0.40155 h 0.044004 0.0440041 v 0.40155 0.40158 h -0.0440052 -0.044003 z m 12.16710349,0 v -0.40155 h 0.04401 0.04398 v 0.40155 0.40158 h -0.04398 -0.04401 z M 0.60254165,286.54763 v -0.0443 h 0.0443756 c 0.0434639,0 0.0442973,2.3e-4 0.0406271,0.006 -0.006924,0.0227 -0.0249408,0.0478 -0.0426491,0.0583 -0.00968,0.003 -0.0231679,0.006 -0.029977,0.007 -0.0121065,0.002 -0.0123667,10e-4 -0.0123667,-0.0408 z m 11.99201135,0.0317 c -0.02314,-0.006 -0.0455,-0.0385 -0.05301,-0.0641 -0.0033,-0.006 -0.0027,-0.006 0.04074,-0.006 h 0.04439 v 0.0441 c 0,0.0242 -0.0022,0.044 -0.0039,0.044 -0.0024,0 -0.01488,-0.003 -0.02795,-0.006 z"
       id="path4529"
       inkscape:connector-curvature="0" />
  </g>
</svg>
