<?xml version="1.0" encoding="UTF-8" standalone="no"?>
<!-- Created with Inkscape (http://www.inkscape.org/) -->

<svg
   xmlns:dc="http://purl.org/dc/elements/1.1/"
   xmlns:cc="http://creativecommons.org/ns#"
   xmlns:rdf="http://www.w3.org/1999/02/22-rdf-syntax-ns#"
   xmlns:svg="http://www.w3.org/2000/svg"
   xmlns="http://www.w3.org/2000/svg"
   xmlns:sodipodi="http://sodipodi.sourceforge.net/DTD/sodipodi-0.dtd"
   xmlns:inkscape="http://www.inkscape.org/namespaces/inkscape"
   width="50"
   height="50"
   viewBox="0 0 13.229166 13.229167"
   version="1.1"
   id="svg8"
   inkscape:version="0.92.4 (5da689c313, 2019-01-14)"
   sodipodi:docname="soccer-ball.svg">
  <defs
     id="defs2" />
  <sodipodi:namedview
     id="base"
     pagecolor="#ffffff"
     bordercolor="#666666"
     borderopacity="1.0"
     inkscape:pageopacity="0.0"
     inkscape:pageshadow="2"
     inkscape:zoom="11.313708"
     inkscape:cx="36.436917"
     inkscape:cy="21.129133"
     inkscape:document-units="mm"
     inkscape:current-layer="layer1"
     showgrid="false"
     units="px"
     inkscape:window-width="1920"
     inkscape:window-height="986"
     inkscape:window-x="2869"
     inkscape:window-y="-11"
     inkscape:window-maximized="1" />
  <metadata
     id="metadata5">
    <rdf:RDF>
      <cc:Work
         rdf:about="">
        <dc:format>image/svg+xml</dc:format>
        <dc:type
           rdf:resource="http://purl.org/dc/dcmitype/StillImage" />
        <dc:title></dc:title>
      </cc:Work>
    </rdf:RDF>
  </metadata>
  <g
     inkscape:label="Ebene 1"
     inkscape:groupmode="layer"
     id="layer1"
     transform="translate(0,-283.77082)">
    <path
       style="fill:#000000;stroke-width:1"
       d="m 5.8676859,296.88162 c -1.0436222,-0.13009 -2.0951149,-0.52081 -2.8954384,-1.07592 -0.1472827,-0.10221 -0.2941454,-0.18425 -0.3263648,-0.18238 -0.03222,0.004 -0.058578,-0.0104 -0.058578,-0.0262 0,-0.0165 -0.2380431,-0.26763 -0.528987,-0.55862 -0.3263999,-0.32644 -0.6116302,-0.64742 -0.7447799,-0.83811 -0.61967432,-0.88744 -0.9975581,-1.82893 -1.15226056,-2.87078 -0.06906633,-0.46515 -0.07030701,-1.34892 -0.002571,-1.84116 0.35641914,-2.59061 2.28453426,-4.75167 4.82354436,-5.40634 1.2511089,-0.32258 2.6723573,-0.2533 3.8564385,0.18797 0.9665389,0.36023 1.7582549,0.88355 2.4861549,1.64337 1.882021,1.96453 2.332679,4.91752 1.123806,7.3639 -0.9017,1.82475 -2.5324068,3.08392 -4.5468163,3.5109 -0.3588835,0.0759 -0.5056656,0.0885 -1.163827,0.0975 -0.4142321,0.005 -0.8058687,0.004 -0.8703043,-0.005 z m 1.2719847,-0.17708 c 0.1196664,-0.0126 0.1949808,-0.0321 0.1673653,-0.0428 -0.027615,-0.0109 -0.2137654,-0.0746 -0.4136675,-0.14179 -0.4217443,-0.14149 -0.8779797,-0.34924 -1.2065331,-0.5494 l -0.2310599,-0.14077 -0.5220881,-0.0104 c -0.4518986,-0.009 -0.5805916,-0.0245 -0.9572416,-0.11692 -0.2959966,-0.0725 -0.534189,-0.15624 -0.74485,-0.26163 -0.3010951,-0.15067 -0.3115552,-0.15328 -0.376574,-0.0943 -0.036782,0.0331 -0.066878,0.0717 -0.066878,0.0854 0,0.0538 0.6429755,0.45108 1.0544089,0.65119 1.0317628,0.50177 2.2543923,0.73226 3.2971174,0.62159 z m 0.602519,-0.29987 c 0.8128528,-0.20178 1.4911873,-0.48516 2.0508112,-0.85674 l 0.1857729,-0.12332 0.1023273,-0.37389 c 0.198329,-0.72461 0.301406,-1.42828 0.209226,-1.42828 -0.01614,0 -0.155527,-0.10169 -0.3097996,-0.22591 -0.1542712,-0.1243 -0.3933906,-0.29296 -0.5313738,-0.37481 -0.3368452,-0.19984 -0.9510693,-0.47746 -0.9650433,-0.4362 -0.00619,0.0183 -0.025543,0.0241 -0.043043,0.0134 -0.0175,-0.0108 -0.1404803,0.0481 -0.2732951,0.13057 -0.692091,0.4306 -1.4456564,0.72591 -2.2800727,0.89353 l -0.1975617,0.0398 0.1055094,0.0669 c 0.1125612,0.0713 0.1371516,0.12717 0.055938,0.12717 -0.027266,0 -0.058931,0.0414 -0.07037,0.0921 -0.011438,0.0507 -0.070555,0.25022 -0.1313625,0.44351 -0.06081,0.19332 -0.1433039,0.51716 -0.18332,0.71969 -0.040014,0.20251 -0.08073,0.40209 -0.09048,0.44351 -0.010465,0.0444 -0.00208,0.0754 0.020493,0.0754 0.02102,0 0.088759,0.0506 0.1505302,0.11231 0.1350514,0.13505 0.8834908,0.51588 1.3248068,0.67411 0.1748979,0.0626 0.3255268,0.11451 0.3347322,0.11511 0.00921,0.004 0.2502123,-0.0568 0.535573,-0.1277 z m 2.9694824,-1.18825 c 1.082724,-0.90944 1.868276,-2.24662 2.131572,-3.62847 l 0.04606,-0.24169 h -0.291867 -0.291869 l -0.355013,0.47916 c -0.323569,0.43671 -0.899455,1.18871 -1.277707,1.66845 -0.124437,0.15781 -0.155664,0.22761 -0.187231,0.41841 -0.05079,0.307 -0.226123,0.99267 -0.306343,1.19798 -0.08911,0.22807 -0.03385,0.33479 0.180935,0.34933 0.03152,0.004 0.189681,-0.1073 0.351471,-0.24317 z m -7.9129031,0.0332 c -0.011705,-0.0206 -0.069473,-0.10516 -0.128383,-0.18802 -0.3390678,-0.47682 -0.875872,-1.48698 -1.0163029,-1.91249 -0.020671,-0.0625 -0.1503863,-0.24162 -0.2882636,-0.39777 -0.3350429,-0.37945 -0.58596145,-0.73094 -0.84386853,-1.18209 -0.20188463,-0.35315 -0.2124483,-0.36547 -0.19124989,-0.22318 0.0474247,0.31838 0.24598192,1.03607 0.37969024,1.3724 0.33083298,0.83221 0.80712858,1.54228 1.46263758,2.18055 0.4923308,0.47937 0.521487,0.50115 0.5892221,0.44006 0.031783,-0.0286 0.048217,-0.069 0.036518,-0.0895 z m 3.1835557,-1.74335 c 0.4652293,-0.0941 0.8980208,-0.23256 1.3610055,-0.43517 0.3505365,-0.15338 0.9679048,-0.50847 0.9679048,-0.55671 0,-0.0167 0.022315,-0.0302 0.049572,-0.0302 0.061966,0 0.068036,-0.0307 0.1350407,-0.6862 0.030123,-0.29457 0.091279,-0.75114 0.1359125,-1.01461 0.044634,-0.26349 0.081153,-0.5932 0.081153,-0.73271 v -0.25365 L 8.5204414,289.5778 c -0.2710296,-0.30873 -0.735051,-0.70696 -1.1435761,-0.98151 -0.4266273,-0.2867 -1.0372645,-0.59751 -1.1738888,-0.59751 -0.1575833,0 -0.636938,0.17142 -1.2206785,0.43658 -0.5436069,0.2469 -1.1564821,0.61021 -1.1564821,0.68555 0,0.0229 -0.027474,0.049 -0.061051,0.0577 -0.044687,0.0117 -0.084613,0.1003 -0.1489718,0.33027 -0.1874519,0.67013 -0.2805541,1.48114 -0.2378194,2.07168 0.013988,0.19328 0.022913,0.36171 0.01983,0.37425 -0.010491,0.0426 0.5772289,0.5684 0.9635849,0.86198 0.3111731,0.23645 1.1435488,0.77214 1.199775,0.77214 0.00746,0 0.1969961,-0.0373 0.4211612,-0.0825 z m -4.1816421,-0.6204 c 0.033322,-0.0368 0.084927,-0.067 0.1146765,-0.067 0.029751,0 0.1667486,-0.068 0.3044402,-0.15091 0.2446437,-0.14747 0.3093386,-0.19145 0.8464236,-0.57545 l 0.2613407,-0.18685 -0.022456,-0.33839 c -0.039335,-0.59273 0.07617,-1.5147 0.2689439,-2.14672 l 0.085939,-0.28175 -0.1957183,-0.19878 C 3.2636015,288.73621 3.1297443,288.56569 2.587448,287.82296 2.4160571,287.58824 2.269155,287.3962 2.261,287.3962 c -0.00816,0 -0.059121,0.0316 -0.1132558,0.0702 -0.054134,0.0386 -0.1208469,0.0733 -0.1482494,0.0772 -0.1615485,0.0235 -0.9103927,0.63976 -1.30080991,1.07012 l -0.26516639,0.29231 -0.0639484,0.30782 c -0.0471767,0.2271 -0.0681792,0.50096 -0.0800831,1.04424 l -0.0161325,0.73641 0.22809306,0.40973 c 0.12545028,0.22537 0.32600203,0.54915 0.44566924,0.7195 0.2139619,0.30459 0.6945232,0.82896 0.7597127,0.82896 0.018295,0 0.060534,-0.0302 0.093855,-0.067 z m 11.1493295,-2.24269 c 0.06318,-1.29683 -0.317543,-2.65694 -1.057137,-3.77666 l -0.184103,-0.27875 -0.209815,0.0203 c -0.204768,0.0199 -0.375968,0.0736 -0.375968,0.11822 0,0.0122 0.02377,0.17926 0.05282,0.37121 0.03882,0.25656 0.0502,0.53964 0.04295,1.06869 -0.01082,0.7883 -0.02486,0.71865 0.221633,1.10074 0.333304,0.51666 0.587356,1.11344 0.695286,1.63331 l 0.07521,0.36222 0.334732,0.0169 0.33473,0.0169 0.02382,-0.10049 c 0.01312,-0.0552 0.03373,-0.30375 0.04585,-0.55229 z m -4.153481,-1.13813 c 0.04496,0.0374 0.6825526,-0.14388 1.272051,-0.36146 0.147282,-0.0543 0.44101,-0.1476 0.652729,-0.20718 0.211718,-0.0596 0.390559,-0.11349 0.397426,-0.11982 0.0071,-0.005 0.02479,-0.18914 0.03981,-0.40628 0.03322,-0.47973 -0.009,-1.13046 -0.106646,-1.64754 -0.06777,-0.35845 -0.08094,-0.39185 -0.209814,-0.532 -0.135758,-0.14758 -0.9329755,-0.73491 -1.2254006,-0.90273 -0.082847,-0.0475 -0.2179344,-0.13184 -0.3001962,-0.1873 -0.1477863,-0.0998 -0.1544409,-0.1008 -0.5586672,-0.0944 -0.6627965,0.0104 -1.3120606,0.1219 -1.9241752,0.33045 l -0.2558059,0.0872 -0.037446,0.18795 c -0.075877,0.38079 -0.1402134,1.37552 -0.1024388,1.58386 0.019506,0.10756 0.040884,0.3253 0.047507,0.48387 l 0.012043,0.28827 0.3709025,0.1929 c 0.5977682,0.31084 1.2122368,0.78304 1.6906983,1.29926 l 0.1348898,0.14553 0.029449,-0.0884 c 0.022551,-0.0679 0.039682,-0.08 0.073084,-0.0521 z m -7.1875605,-1.8075 c 0.1690486,-0.11966 0.3717175,-0.25255 0.4503758,-0.29528 0.07866,-0.0426 0.1388724,-0.0928 0.1338067,-0.11132 -0.00528,-0.0194 0.019604,-0.0243 0.058577,-0.012 0.045155,0.0142 0.067788,0.006 0.067788,-0.0234 0,-0.14682 0.9682077,-1.43949 1.3751842,-1.83603 l 0.2597973,-0.25313 -0.016838,-0.21551 c -0.025694,-0.32882 -0.013207,-0.32203 -0.3043715,-0.16531 -1.4303566,0.76983 -2.5253114,2.06035 -3.03679885,3.57917 l -0.1154472,0.34281 0.41028333,-0.3961 c 0.22565582,-0.21786 0.54859412,-0.49401 0.71764222,-0.6137 z M 11.09367,286.5171 c -0.03306,-0.0329 -0.0369,-0.0291 -0.01873,0.0188 0.01255,0.033 0.03129,0.0516 0.04159,0.0413 0.0103,-0.0104 2.2e-5,-0.0374 -0.02286,-0.0601 z m -4.2456449,-1.21134 c 0.5493426,-0.18525 0.9760498,-0.27235 1.5822146,-0.32303 l 0.470474,-0.0393 -0.061249,-0.12379 c -0.033685,-0.0681 -0.07251,-0.19025 -0.086272,-0.27146 L 8.7281714,284.40052 8.360706,284.2955 c -0.9899906,-0.28288 -2.0380873,-0.3209 -3.0572255,-0.1109 -0.2973641,0.0612 -0.9421093,0.26304 -1.2223752,0.38256 l -0.1296571,0.0551 0.023818,0.27395 c 0.013098,0.15071 0.027261,0.2775 0.031471,0.2818 0.0042,0.005 0.2476534,0.0159 0.5409905,0.0257 0.7107903,0.0238 1.0779782,0.0664 1.4203834,0.16397 0.156488,0.0444 0.3189753,0.0823 0.3610839,0.0838 0.04211,0.004 0.2755848,-0.0641 0.5188355,-0.14623 z"
       id="path4555"
       inkscape:connector-curvature="0"
       sodipodi:nodetypes="cscsscscsssssccccccccccccsccccscssccccccccsccccsccccccccccsssccccccscscccccssssscsssssccccsscssccccscscsccsccccccssscccsscssccccsccscssccccscssccccccccccccsscssccsccccccccccccscccsccscc" />
  </g>
</svg>
